<svg width="56" height="18" viewBox="0 0 56 18" fill="none" xmlns="http://www.w3.org/2000/svg">
<path fill-rule="evenodd" clip-rule="evenodd" d="M49.1924 10.3963H50.9189H50.9205C51.1011 10.3997 51.2511 10.2548 51.2578 10.0705V5.18347C51.2578 4.56965 51.29 4.01534 51.5323 3.46103C51.6986 3.03936 52.0904 2.75547 52.5351 2.73447C53.6394 2.73447 53.6288 3.97033 53.6205 4.94124C53.6198 5.02312 53.6191 5.10312 53.6191 5.18033V10.1112C53.6405 10.2694 53.7696 10.3894 53.9258 10.3963H55.6676C55.8328 10.3998 55.9751 10.2779 56.0004 10.1112V4.39741C56.0004 3.51896 56.0004 2.29603 55.548 1.56948C55.0589 0.786551 54.3014 0.5 53.5256 0.5C52.3296 0.5 51.6503 1.09189 51.1658 2.33361H51.1321V0.944702C51.0971 0.799505 50.9717 0.69583 50.8254 0.691034H49.2185C49.0487 0.686768 48.904 0.81611 48.8857 0.988546V10.0705C48.8879 10.2446 49.0221 10.3871 49.1924 10.3963ZM47.5663 5.63285C47.5663 2.76734 46.1756 0.512512 43.6042 0.512512C41.0987 0.512512 39.708 2.72976 39.708 5.53733C39.708 8.34491 41.0819 10.5997 43.6042 10.5997C46.033 10.5997 47.5663 8.40284 47.5663 5.63285ZM42.2625 5.25078C42.2625 4.14215 42.3438 2.36648 43.621 2.36648C44.1699 2.36648 44.5579 2.61858 44.7526 3.24492C44.9795 3.96991 45.0117 4.8875 45.0117 5.65164C45.0117 6.81663 44.9611 8.72697 43.6041 8.72697C42.262 8.72697 42.2623 6.4108 42.2625 5.28752L42.2625 5.25078ZM9.86428 10.415H11.5954H11.5969C11.6838 10.4171 11.7679 10.3837 11.8307 10.3223C11.8934 10.2609 11.9296 10.1764 11.9312 10.0877V5.27583L11.9312 5.20051C11.9305 4.15424 11.9295 2.77046 13.1272 2.77046C14.2344 2.77046 14.2173 3.98629 14.2035 4.96811V4.96815V4.9682V4.96824V4.96828C14.202 5.07412 14.2005 5.17724 14.2005 5.27583V10.0893C14.2035 10.2631 14.3372 10.4051 14.5072 10.415H16.2429C16.3295 10.4166 16.4133 10.3831 16.4757 10.3217C16.5381 10.2603 16.574 10.1762 16.5756 10.0877V5.27583L16.5755 5.16143C16.5744 4.6516 16.573 3.96361 16.7382 3.53616C16.9066 3.09924 17.3136 2.80672 17.7732 2.79239C18.2746 2.79239 18.6625 2.96463 18.7913 3.57531C18.857 3.86923 18.8485 4.55058 18.8429 5.0024C18.8415 5.10903 18.8404 5.20288 18.8404 5.27583V10.0893C18.8426 10.2634 18.9767 10.4059 19.147 10.415H20.8782C20.965 10.4171 21.0492 10.3837 21.1119 10.3223C21.1746 10.2609 21.2108 10.1764 21.2124 10.0877V4.35824C21.2124 4.21862 21.2148 4.07594 21.2172 3.93169L21.2172 3.93147C21.2313 3.07598 21.2464 2.16535 20.7754 1.51152C20.2045 0.769864 19.2862 0.400285 18.3733 0.544688C17.4604 0.68909 16.6947 1.32503 16.3702 2.20832C15.8841 1.06055 15.1895 0.526597 14.1223 0.526597C13.0551 0.526597 12.2624 1.06055 11.8423 2.20832H11.8101V1.02297C11.8009 0.854024 11.6688 0.719122 11.5034 0.709801H9.88881C9.71052 0.708002 9.56344 0.851939 9.55762 1.03393V10.1159C9.57333 10.2793 9.70369 10.4064 9.86428 10.415ZM6.85089 10.4839C6.73687 10.5849 6.57301 10.6018 6.4415 10.5262C5.95089 10.1093 5.80298 9.88401 5.57583 9.53797C5.53676 9.47845 5.49534 9.41535 5.44943 9.34709C4.49724 10.3367 3.82411 10.6327 2.59285 10.6327C1.13466 10.6327 0 9.7135 0 7.87519C0 6.43931 0.766662 5.46378 1.83999 4.98463C2.63255 4.62945 3.69003 4.51921 4.60428 4.42391L4.60432 4.4239L4.60433 4.4239C4.7743 4.40618 4.93932 4.38898 5.09677 4.37081V4.1422C5.09677 4.09856 5.09712 4.05409 5.09747 4.00904C5.1005 3.61923 5.10387 3.18524 4.8867 2.8582C4.67511 2.5325 4.27338 2.3994 3.91458 2.3994C3.25371 2.3994 2.66492 2.74546 2.52079 3.46105C2.50252 3.62798 2.37674 3.76157 2.21412 3.78675L0.54893 3.60041C0.465838 3.58826 0.391255 3.54186 0.342575 3.47202C0.293896 3.40219 0.275375 3.31503 0.291332 3.23087C0.676196 1.15142 2.51619 0.523513 4.16451 0.523513C5.00784 0.523513 6.10876 0.752127 6.77116 1.40352C7.54876 2.14699 7.54395 3.12027 7.53869 4.1839C7.53826 4.27172 7.53782 4.36014 7.53782 4.44911V7.20344C7.53782 7.94524 7.80733 8.31423 8.09121 8.7029C8.12493 8.74907 8.15886 8.79551 8.19255 8.84289C8.30295 8.99947 8.32749 9.19521 8.19255 9.31265C7.83835 9.61485 7.20969 10.1723 6.86469 10.487L6.85089 10.4839ZM5.1044 6.17152L5.10446 6.25726C5.10507 6.90857 5.10558 7.46087 4.78087 8.05055C4.50487 8.54849 4.06788 8.85539 3.58028 8.85539C2.91635 8.85539 2.52842 8.33866 2.52842 7.57139C2.52842 6.06504 3.85168 5.79102 5.1044 5.79102V6.17152ZM30.7939 8.69639C30.8277 8.74262 30.8617 8.78913 30.8954 8.83659C31.0119 8.99943 31.0365 9.19047 30.8877 9.29851C30.5335 9.60072 29.9049 10.1597 29.5599 10.4729C29.4451 10.5725 29.2819 10.5887 29.1505 10.5136C28.6578 10.095 28.5118 9.87296 28.2814 9.52242C28.2429 9.46388 28.2021 9.40175 28.1569 9.33453C27.2062 10.3241 26.5285 10.6201 25.3018 10.6201C23.8436 10.6201 22.709 9.70094 22.709 7.86419C22.709 6.42674 23.471 5.45121 24.5566 4.97206C25.3509 4.61554 26.4143 4.50581 27.3313 4.4112C27.4976 4.39404 27.6592 4.37737 27.8134 4.35981V4.1359C27.8134 4.09283 27.8138 4.04895 27.8141 4.00451V4.00423V4.00396V4.00368V4.0034C27.8171 3.61344 27.8205 3.17929 27.6018 2.85346C27.3964 2.52777 26.987 2.3931 26.6297 2.3931C25.9688 2.3931 25.3831 2.73916 25.2374 3.45475C25.2187 3.62144 25.0931 3.75476 24.9308 3.78045L23.2518 3.59568C23.1681 3.58395 23.0928 3.53748 23.0438 3.46724C22.9947 3.39699 22.9762 3.3092 22.9926 3.22457C23.379 1.14355 25.219 0.517212 26.8674 0.517212C27.7092 0.517212 28.8101 0.745826 29.474 1.39722C30.2532 2.13684 30.2477 3.10259 30.2417 4.16078C30.2412 4.2541 30.2407 4.34814 30.2407 4.4428V7.1987C30.2407 7.93897 30.5101 8.30781 30.7939 8.69639ZM26.2921 8.84595C26.7782 8.84595 27.2167 8.53904 27.4912 8.04267C27.817 7.44978 27.8167 6.89487 27.8163 6.23542L27.8162 6.16521V5.78314C26.5635 5.78314 25.2402 6.0556 25.2402 7.56352C25.2402 8.32922 25.6282 8.84595 26.2921 8.84595ZM32.3608 1.00262V2.29601C32.3599 2.38473 32.3946 2.46996 32.4569 2.5318C32.5192 2.59365 32.6036 2.62671 32.6904 2.62327H35.6712L32.2534 7.634C32.0974 7.90278 32.0237 8.21308 32.0418 8.52497V9.84812C32.0418 10.0392 32.2488 10.2568 32.4466 10.1488C34.3317 9.15062 36.5733 9.14654 38.4619 10.1378C38.6781 10.2521 38.882 10.0313 38.882 9.84029V8.44981C38.8762 8.2372 38.7591 8.04412 38.5753 7.94404C37.5802 7.37251 36.4225 7.20496 35.3277 7.23158L38.2779 2.93175C38.5523 2.54655 38.7057 2.30227 38.7057 2.11594V1.00262C38.7065 0.914177 38.672 0.829207 38.61 0.767411C38.5481 0.705614 38.4641 0.672358 38.3775 0.675354H32.6843C32.5976 0.670382 32.513 0.703152 32.4513 0.765534C32.3896 0.827917 32.3567 0.914068 32.3608 1.00262Z" fill="black"/>
<path fill-rule="evenodd" clip-rule="evenodd" d="M35.207 16.1861C35.6011 15.1855 36.4781 12.9432 36.0611 12.3999H36.0641C35.6489 11.8554 33.3182 12.1411 32.2699 12.2696L32.2676 12.2699C31.9487 12.3091 31.8996 12.0256 32.1864 11.8205C34.0478 10.4848 37.0976 10.8669 37.4518 11.3179C37.806 11.7688 37.3552 14.8912 35.6118 16.3818C35.3435 16.6105 35.0874 16.4883 35.207 16.1861ZM22.6813 17.7301C26.7354 17.7301 31.4565 16.4226 34.7087 13.972V13.9767C35.2469 13.5633 34.7853 12.9558 34.2364 13.1938C30.6865 14.7229 26.8759 15.5211 23.0232 15.5426C17.678 15.5426 12.5077 14.0456 8.32475 11.5606C7.95829 11.343 7.68535 11.7266 7.99202 12.0069C12.019 15.7173 17.2576 17.7583 22.6813 17.7301Z" fill="#FF9900"/>
</svg>
