<svg width="321" height="83" viewBox="0 0 321 83" fill="none" xmlns="http://www.w3.org/2000/svg">
<path d="M0.25 51.9623C0.313135 51.9635 0.38666 51.9642 0.469688 51.964C0.77447 51.9633 1.2079 51.95 1.72609 51.9C2.76093 51.8 4.14183 51.5528 5.51298 50.9606C6.88541 50.3678 8.25462 49.4264 9.2515 47.9361C10.2494 46.4442 10.8608 44.4223 10.7498 41.693C10.6389 38.9672 9.91608 36.9518 8.88011 35.4662C7.8446 33.9812 6.50676 33.0406 5.18879 32.4472C3.8723 31.8544 2.57294 31.6066 1.60492 31.5065C1.1203 31.4563 0.717033 31.443 0.433894 31.4423C0.36542 31.4421 0.30394 31.4426 0.25 31.4436V10.7031C0.25 5.31835 4.61522 0.953125 10 0.953125H310.5C315.885 0.953125 320.25 5.31835 320.25 10.7031V29.9278C320.184 29.9227 320.107 29.9174 320.02 29.9125C319.698 29.8945 319.241 29.8826 318.692 29.9065C317.597 29.9541 316.13 30.1447 314.659 30.7203C313.186 31.2967 311.704 32.2612 310.592 33.8571C309.479 35.4534 308.75 37.6621 308.75 40.7031C308.75 43.7444 309.479 45.9827 310.59 47.6245C311.7 49.2655 313.179 50.2927 314.65 50.9324C316.12 51.5714 317.586 51.8257 318.681 51.9209C319.23 51.9686 319.688 51.9766 320.009 51.9726C320.101 51.9715 320.181 51.9694 320.25 51.9669V72.7031C320.25 78.0879 315.885 82.4531 310.5 82.4531H10C4.61522 82.4531 0.25 78.0879 0.25 72.7031V51.9623Z" fill="white" stroke="#C1C7D1" stroke-width="0.5"/>
</svg>
