<svg width="34" height="34" viewBox="0 0 34 34" fill="none" xmlns="http://www.w3.org/2000/svg">
<rect width="34" height="34" rx="17" fill="#BDBDBD"/>
<g clip-path="url(#clip0_1_55)">
<path d="M23.9309 10.6415C22.6562 10.0566 21.2892 9.62568 19.86 9.37884C19.8339 9.37408 19.8079 9.38599 19.7945 9.40978C19.6187 9.72248 19.424 10.1304 19.2876 10.451C17.7504 10.2208 16.221 10.2208 14.7153 10.451C14.5789 10.1233 14.3771 9.72248 14.2005 9.40978C14.1871 9.38677 14.1611 9.37486 14.1351 9.37884C12.7066 9.62486 11.3397 10.0558 10.0641 10.6415C10.0531 10.6463 10.0436 10.6542 10.0373 10.6645C7.44452 14.5381 6.73421 18.3166 7.08265 22.0481C7.08421 22.0664 7.09448 22.0838 7.10866 22.0949C8.81933 23.3512 10.4764 24.1139 12.1027 24.6194C12.1287 24.6274 12.1563 24.6179 12.1729 24.5964C12.5576 24.0711 12.9005 23.5171 13.1945 22.9346C13.2119 22.9005 13.1953 22.86 13.1598 22.8465C12.6159 22.6402 12.098 22.3886 11.5997 22.1029C11.5603 22.0799 11.5571 22.0235 11.5934 21.9965C11.6983 21.918 11.8032 21.8362 11.9033 21.7537C11.9214 21.7386 11.9466 21.7354 11.9679 21.7449C15.241 23.2394 18.7846 23.2394 22.0191 21.7449C22.0404 21.7346 22.0656 21.7378 22.0845 21.7529C22.1847 21.8354 22.2895 21.9179 22.3951 21.9965C22.4314 22.0235 22.429 22.0799 22.3896 22.1029C21.8914 22.3941 21.3735 22.6401 20.8287 22.8457C20.7933 22.8592 20.7775 22.9004 20.7949 22.9345C21.0952 23.5163 21.4382 24.0702 21.8157 24.5956C21.8315 24.6178 21.8599 24.6274 21.8859 24.6194C23.5201 24.1139 25.1772 23.3512 26.8878 22.0949C26.9028 22.0838 26.9123 22.0671 26.9139 22.0489C27.3309 17.7348 26.2154 13.9873 23.9568 10.6652C23.9514 10.6542 23.9419 10.6463 23.9309 10.6415ZM13.6834 19.776C12.698 19.776 11.886 18.8713 11.886 17.7602C11.886 16.6491 12.6822 15.7444 13.6834 15.7444C14.6924 15.7444 15.4966 16.6571 15.4808 17.7602C15.4808 18.8713 14.6845 19.776 13.6834 19.776ZM20.329 19.776C19.3436 19.776 18.5316 18.8713 18.5316 17.7602C18.5316 16.6491 19.3278 15.7444 20.329 15.7444C21.338 15.7444 22.1421 16.6571 22.1264 17.7602C22.1264 18.8713 21.3381 19.776 20.329 19.776Z" fill="#0E0E21"/>
</g>
<defs>
<clipPath id="clip0_1_55">
<rect width="20" height="20" fill="white" transform="translate(7 7)"/>
</clipPath>
</defs>
</svg>
