<svg width="24" height="24" viewBox="0 0 24 24" fill="none" xmlns="http://www.w3.org/2000/svg">
<g opacity="0.4" clip-path="url(#clip0_79_24)">
<path d="M19 4H18V3C18 2.73478 17.8946 2.48043 17.7071 2.29289C17.5196 2.10536 17.2652 2 17 2C16.7348 2 16.4804 2.10536 16.2929 2.29289C16.1054 2.48043 16 2.73478 16 3V4H13V3C13 2.73478 12.8946 2.48043 12.7071 2.29289C12.5196 2.10536 12.2652 2 12 2C11.7348 2 11.4804 2.10536 11.2929 2.29289C11.1054 2.48043 11 2.73478 11 3V4H8V3C8 2.73478 7.89464 2.48043 7.70711 2.29289C7.51957 2.10536 7.26522 2 7 2C6.73478 2 6.48043 2.10536 6.29289 2.29289C6.10536 2.48043 6 2.73478 6 3V4H5C3.6744 4.00156 2.40353 4.52885 1.46619 5.46619C0.528847 6.40353 0.00156145 7.6744 0 9L0 17C0.00156145 18.3256 0.528847 19.5965 1.46619 20.5338C2.40353 21.4712 3.6744 21.9984 5 22H19C20.3256 21.9984 21.5965 21.4712 22.5338 20.5338C23.4712 19.5965 23.9984 18.3256 24 17V9C23.9984 7.6744 23.4712 6.40353 22.5338 5.46619C21.5965 4.52885 20.3256 4.00156 19 4ZM22 17C21.9991 17.7954 21.6828 18.5579 21.1204 19.1204C20.5579 19.6828 19.7954 19.9991 19 20H5C4.20462 19.9991 3.44206 19.6828 2.87964 19.1204C2.31722 18.5579 2.00087 17.7954 2 17V9C2.00087 8.20462 2.31722 7.44206 2.87964 6.87964C3.44206 6.31722 4.20462 6.00087 5 6H19C19.7954 6.00087 20.5579 6.31722 21.1204 6.87964C21.6828 7.44206 21.9991 8.20462 22 9V17Z" fill="white"/>
<path d="M15.293 9.29304L10.7065 13.8789C10.5164 14.0613 10.2632 14.1631 9.99974 14.1631C9.73631 14.1631 9.48308 14.0613 9.29299 13.8789L8.70699 13.293C8.61474 13.1975 8.5044 13.1213 8.38239 13.0689C8.26039 13.0165 8.12917 12.9889 7.99639 12.9878C7.86361 12.9866 7.73193 13.0119 7.60904 13.0622C7.48614 13.1125 7.37449 13.1868 7.28059 13.2806C7.1867 13.3745 7.11245 13.4862 7.06217 13.6091C7.01189 13.732 6.98659 13.8637 6.98774 13.9964C6.98889 14.1292 7.01648 14.2604 7.06889 14.3824C7.1213 14.5044 7.19748 14.6148 7.29299 14.707L7.87839 15.293C8.15697 15.5716 8.48769 15.7926 8.85167 15.9434C9.21565 16.0942 9.60577 16.1718 9.99974 16.1718C10.3937 16.1718 10.7838 16.0942 11.1478 15.9434C11.5118 15.7926 11.8425 15.5716 12.1211 15.293L16.707 10.707C16.8891 10.5184 16.9899 10.2658 16.9877 10.0036C16.9854 9.74144 16.8802 9.49063 16.6948 9.30522C16.5094 9.11981 16.2586 9.01465 15.9964 9.01237C15.7342 9.01009 15.4816 9.11088 15.293 9.29304Z" fill="white"/>
</g>
<defs>
<clipPath id="clip0_79_24">
<rect width="24" height="24" fill="white"/>
</clipPath>
</defs>
</svg>
