<svg width="34" height="34" viewBox="0 0 34 34" fill="none" xmlns="http://www.w3.org/2000/svg">
<path d="M17 0.300781C7.77461 0.300781 0.300781 7.77461 0.300781 17C0.300781 26.2254 7.77461 33.6992 17 33.6992C26.2254 33.6992 33.6992 26.2254 33.6992 17C33.6992 7.77461 26.2254 0.300781 17 0.300781ZM21.7945 10.773C21.7945 10.773 20.0281 10.7582 19.5828 10.7582C18.9148 10.7582 18.4695 11.3371 18.4695 11.9234V14.3801H21.7945L21.416 17.7273H18.4324V26.2773H15.0555V17.7719H12.2055V14.343H15.1C15.1 14.343 15.1 13.1406 15.1 11.107C15.1 9.30352 17.1039 7.71523 18.4992 7.71523C18.707 7.71523 21.7945 7.74492 21.7945 7.74492V10.773Z" fill="#BDBDBD"/>
</svg>
