<svg width="45" height="18" viewBox="0 0 45 18" fill="none" xmlns="http://www.w3.org/2000/svg">
<path fill-rule="evenodd" clip-rule="evenodd" d="M20.8088 14.0445V8.77944H23.5262C24.6398 8.77944 25.5796 8.40632 26.3458 7.67046L26.5297 7.4839C27.9293 5.96034 27.8373 3.5869 26.3458 2.17735C25.6001 1.43112 24.5785 1.02691 23.5262 1.04763H19.1641V14.0445H20.8088ZM20.8116 7.18635V2.64676H23.5703C24.1629 2.64676 24.7249 2.87478 25.1438 3.28935C26.0327 4.15996 26.0532 5.61097 25.1949 6.51267C24.776 6.95833 24.1834 7.20708 23.5703 7.18635H20.8116ZM34.1966 5.84399C33.4917 5.19103 32.5314 4.85937 31.3158 4.85937C29.7527 4.85937 28.5779 5.43978 27.8015 6.59022L29.2522 7.51265C29.7834 6.72496 30.5087 6.33111 31.4281 6.33111C32.0104 6.33111 32.5723 6.54876 33.0116 6.94261C33.4407 7.31573 33.6858 7.85467 33.6858 8.42471V8.80819C33.0525 8.45581 32.2556 8.26925 31.2749 8.26925C30.1307 8.26925 29.2113 8.53872 28.5268 9.08803C27.8424 9.63734 27.495 10.3628 27.495 11.2853C27.4746 12.1248 27.8321 12.9228 28.4655 13.4618C29.1091 14.0422 29.9264 14.3324 30.8867 14.3324C32.0206 14.3324 32.9196 13.8245 33.6041 12.8088H33.6756V14.0422H35.2489V8.55945C35.2489 7.40901 34.9015 6.49694 34.1966 5.84399ZM29.7309 12.4066C29.3937 12.1578 29.1894 11.7536 29.1894 11.3183C29.1894 10.8312 29.4142 10.427 29.8535 10.1057C30.3031 9.78439 30.8651 9.61856 31.5292 9.61856C32.4488 9.6082 33.164 9.81548 33.6749 10.2301C33.6749 10.9348 33.399 11.5463 32.8575 12.0645C32.367 12.562 31.7029 12.8419 31.0081 12.8419C30.5483 12.8522 30.0988 12.6968 29.7309 12.4066ZM38.7894 17.9538L44.2856 5.15379H42.4978L39.954 11.5382H39.9234L37.3184 5.15379H35.5306L39.1368 13.4764L37.0936 17.9538H38.7894Z" fill="#3C4043"/>
<path d="M15.1373 7.65382C15.1373 7.14597 15.0964 6.63811 15.0147 6.14062H8.07812V9.01155H12.0521C11.8886 9.93398 11.3574 10.7631 10.581 11.2813V13.1469H12.9511C14.3404 11.8514 15.1373 9.93398 15.1373 7.65382Z" fill="#4285F4"/>
<path d="M8.07661 14.9461C10.0585 14.9461 11.7339 14.2828 12.9496 13.1427L10.5795 11.2771C9.91546 11.7332 9.06755 11.9923 8.07661 11.9923C6.15603 11.9923 4.53171 10.676 3.9494 8.91406H1.50781V10.8418C2.75415 13.3604 5.2979 14.9461 8.07661 14.9461Z" fill="#34A853"/>
<path d="M3.95003 8.91078C3.64351 7.98835 3.64351 6.98301 3.95003 6.05022V4.13281H1.50805C0.45565 6.23678 0.45565 8.72422 1.50805 10.8282L3.95003 8.91078Z" fill="#FBBC04"/>
<path d="M8.07661 2.97773C9.12884 2.957 10.1402 3.36121 10.8962 4.09708L13.0007 1.96202C11.6624 0.697572 9.90525 0.00315986 8.07661 0.0238886C5.2979 0.0238886 2.75415 1.62 1.50781 4.13854L3.9494 6.06631C4.53171 4.294 6.15603 2.97773 8.07661 2.97773Z" fill="#EA4335"/>
</svg>
