<svg width="34" height="34" viewBox="0 0 34 34" fill="none" xmlns="http://www.w3.org/2000/svg">
<rect width="34" height="34" rx="17" fill="#BDBDBD"/>
<path d="M25.8249 15.2373L25.1 15.2H17V18.8H22.0864C21.3443 20.8956 19.3503 22.4 17 22.4C14.0178 22.4 11.6 19.9822 11.6 17C11.6 14.0178 14.0178 11.6 17 11.6C18.3765 11.6 19.6289 12.1193 20.5824 12.9675L23.1281 10.4219C21.5207 8.92385 19.3706 8 17 8C12.0297 8 8 12.0297 8 17C8 21.9703 12.0297 26 17 26C21.9703 26 26 21.9703 26 17C26 16.3966 25.9379 15.8075 25.8249 15.2373Z" fill="#0E1125"/>
</svg>
