<svg width="24" height="24" viewBox="0 0 24 24" fill="none" xmlns="http://www.w3.org/2000/svg">
<g opacity="0.4">
<path d="M17.7935 1.9H17.7933L6.20667 1.9L6.20651 1.9C4.80278 1.90215 3.45552 2.40996 2.4603 3.3147C1.46477 4.21973 0.902382 5.44875 0.9 6.73315V6.73333L0.9 17.2667L0.9 17.2669C0.902382 18.5513 1.46477 19.7803 2.4603 20.6853C3.45552 21.59 4.80278 22.0978 6.20651 22.1H6.20667H17.7933H17.7935C19.1972 22.0978 20.5445 21.59 21.5397 20.6853C22.5352 19.7803 23.0976 18.5513 23.1 17.2669V17.2667V6.73333V6.73315C23.0976 5.44875 22.5352 4.21973 21.5397 3.3147C20.5445 2.40996 19.1972 1.90215 17.7935 1.9ZM21.4333 17.2665C21.4315 18.138 21.0499 18.9755 20.3685 19.5949C19.6868 20.2146 18.7609 20.5649 17.7932 20.5667H6.20684C5.23908 20.5649 4.31319 20.2146 3.6315 19.5949C2.95015 18.9755 2.56857 18.138 2.56667 17.2666V6.73344C2.56857 5.86197 2.95015 5.02452 3.6315 4.40511C4.31315 3.78542 5.239 3.43509 6.20671 3.43333H17.7933C18.761 3.43509 19.6868 3.78542 20.3685 4.40511C21.0499 5.02454 21.4315 5.86204 21.4333 6.73355V17.2665Z" fill="white" stroke="white" stroke-width="0.2"/>
<path d="M16.0914 10.4009L11.1811 7.32422C10.8731 7.13066 10.515 7.01939 10.1449 7.00231C9.77486 6.98523 9.40683 7.06298 9.08014 7.22725C8.75346 7.39152 8.4804 7.63614 8.29016 7.93496C8.09991 8.23378 7.99962 8.57557 8 8.9238V15.0771C7.99979 15.4251 8.10013 15.7667 8.2903 16.0653C8.48048 16.3639 8.75336 16.6084 9.07981 16.7726C9.40625 16.9368 9.77402 17.0146 10.1438 16.9977C10.5137 16.9808 10.8717 16.8699 11.1797 16.6767L16.0892 13.6C16.3694 13.4245 16.5991 13.1866 16.758 12.9076C16.9169 12.6285 17 12.3169 17 12.0005C17 11.684 16.9169 11.3724 16.758 11.0933C16.5991 10.8143 16.3694 10.5764 16.0892 10.4009H16.0914ZM15.2927 12.4743L10.3831 15.551C10.292 15.6081 10.186 15.6409 10.0766 15.6458C9.96711 15.6508 9.8583 15.6277 9.76172 15.579C9.66515 15.5304 9.58445 15.458 9.52824 15.3696C9.47202 15.2812 9.44241 15.1801 9.44255 15.0771V8.9238C9.44106 8.82071 9.47011 8.71925 9.52646 8.63079C9.5828 8.54232 9.66422 8.47034 9.7616 8.42288C9.85043 8.37884 9.94925 8.35562 10.0497 8.35518C10.1679 8.35579 10.2831 8.39001 10.3802 8.45334L15.2927 11.5266C15.3759 11.5785 15.4441 11.6489 15.4913 11.7316C15.5385 11.8142 15.5633 11.9066 15.5633 12.0005C15.5633 12.0943 15.5385 12.1867 15.4913 12.2693C15.4441 12.352 15.3759 12.4224 15.2927 12.4743Z" fill="white" stroke="white" stroke-width="0.2"/>
</g>
</svg>
