<svg width="24" height="24" viewBox="0 0 24 24" fill="none" xmlns="http://www.w3.org/2000/svg">
<g clip-path="url(#clip0_79_29)">
<path d="M22.5356 9.12162L21 7.58592V3.00002C21 2.7348 20.8946 2.48045 20.7071 2.29291C20.5196 2.10538 20.2652 2.00002 20 2.00002C19.7348 2.00002 19.4804 2.10538 19.2929 2.29291C19.1053 2.48045 19 2.7348 19 3.00002V5.58592L15.8784 2.46442C15.4153 1.99869 14.8643 1.62945 14.2575 1.37808C13.6507 1.12672 13.0001 0.998215 12.3433 1.00002H11.6567C10.9999 0.998215 10.3492 1.12672 9.74244 1.37808C9.13563 1.62945 8.58472 1.99869 8.12159 2.46442L1.46439 9.12162C0.998655 9.58475 0.629417 10.1357 0.378051 10.7425C0.126685 11.3493 -0.00181594 11.9999 -1.17803e-05 12.6567V18C0.00154967 19.3256 0.528835 20.5965 1.46618 21.5338C2.40352 22.4712 3.67439 22.9985 4.99999 23H19C20.3256 22.9985 21.5965 22.4712 22.5338 21.5338C23.4711 20.5965 23.9984 19.3256 24 18V12.6567C24.0018 11.9999 23.8733 11.3493 23.6219 10.7425C23.3706 10.1357 23.0013 9.58475 22.5356 9.12162ZM22 18C21.9991 18.7954 21.6828 19.558 21.1203 20.1204C20.5579 20.6828 19.7954 20.9991 19 21H4.99999C4.20461 20.9991 3.44205 20.6828 2.87963 20.1204C2.31721 19.558 2.00086 18.7954 1.99999 18V12.6567C2.00238 11.8617 2.31798 11.0996 2.87839 10.5356L9.53559 3.87842C10.0996 3.31801 10.8616 3.00241 11.6567 3.00002H12.3433C13.1383 3.00241 13.9004 3.31801 14.4644 3.87842L21.1216 10.5356C21.682 11.0996 21.9976 11.8617 22 12.6567V18Z" fill="white"/>
<path d="M13 15H11C9.9395 15.0012 8.92278 15.423 8.17289 16.1729C7.423 16.9228 7.00119 17.9395 7 19C7 19.2652 7.10536 19.5196 7.29289 19.7071C7.48043 19.8946 7.73478 20 8 20C8.26522 20 8.51957 19.8946 8.70711 19.7071C8.89464 19.5196 9 19.2652 9 19C9.00053 18.4697 9.21141 17.9613 9.58637 17.5864C9.96133 17.2114 10.4697 17.0005 11 17H13C13.5303 17.0005 14.0387 17.2114 14.4136 17.5864C14.7886 17.9613 14.9995 18.4697 15 19C15 19.2652 15.1054 19.5196 15.2929 19.7071C15.4804 19.8946 15.7348 20 16 20C16.2652 20 16.5196 19.8946 16.7071 19.7071C16.8946 19.5196 17 19.2652 17 19C16.9988 17.9395 16.577 16.9228 15.8271 16.1729C15.0772 15.423 14.0605 15.0012 13 15Z" fill="#DDA34E"/>
</g>
<defs>
<clipPath id="clip0_79_29">
<rect width="24" height="24" fill="white"/>
</clipPath>
</defs>
</svg>
