<svg width="20" height="21" viewBox="0 0 20 21" fill="none" xmlns="http://www.w3.org/2000/svg">
<path d="M16.4254 7.7702C16.347 7.81596 14.4796 8.78168 14.4796 10.9229C14.5676 13.3649 16.8361 14.2212 16.875 14.2212C16.8361 14.267 16.5325 15.3878 15.6333 16.5627C14.9196 17.5748 14.1276 18.5952 12.9247 18.5952C11.7806 18.5952 11.3699 17.9207 10.0497 17.9207C8.632 17.9207 8.23085 18.5952 7.14539 18.5952C5.94258 18.5952 5.09181 17.5201 4.33926 16.5176C3.36157 15.2054 2.53058 13.1462 2.50124 11.1689C2.48147 10.1212 2.69703 9.09131 3.24423 8.21651C4.01655 6.99524 5.39538 6.16621 6.90113 6.13887C8.05483 6.10262 9.08162 6.87698 9.7857 6.87698C10.4605 6.87698 11.7219 6.13887 13.1492 6.13887C13.7653 6.13946 15.4082 6.3124 16.4254 7.7702ZM9.68813 5.92968C9.48277 4.97287 10.0497 4.01606 10.5778 3.40572C11.2525 2.66761 12.3182 2.16663 13.2372 2.16663C13.2959 3.12343 12.9241 4.06182 12.2596 4.74526C11.6633 5.48337 10.6365 6.03903 9.68813 5.92968Z" fill="#283544"/>
</svg>
