<svg width="14" height="18" viewBox="0 0 14 18" fill="none" xmlns="http://www.w3.org/2000/svg">
<path d="M4.5219 3.24923H2.85079C1.92787 3.24923 1.17969 3.99741 1.17969 4.92034V14.947C1.17969 15.8699 1.92787 16.6181 2.85079 16.6181H11.2063C12.1292 16.6181 12.8774 15.8699 12.8774 14.947V4.92034C12.8774 3.99741 12.1292 3.24923 11.2063 3.24923H9.53522M4.5219 3.24923C4.5219 4.17216 5.27008 4.92034 6.193 4.92034H7.86411C8.78704 4.92034 9.53522 4.17216 9.53522 3.24923M4.5219 3.24923C4.5219 2.3263 5.27008 1.57812 6.193 1.57812H7.86411C8.78704 1.57812 9.53522 2.3263 9.53522 3.24923M7.02856 9.0981H9.53522M7.02856 12.4403H9.53522M4.5219 9.0981H4.53025M4.5219 12.4403H4.53025" stroke="#315DE4" stroke-width="2" stroke-linecap="round"/>
</svg>
