<svg width="30" height="29" viewBox="0 0 30 29" fill="none" xmlns="http://www.w3.org/2000/svg">
<rect x="0.208888" y="0.208888" width="28.8266" height="27.991" rx="13.9955" fill="#F6F8FE" stroke="#D7E0FB" stroke-width="0.417776"/>
<path fill-rule="evenodd" clip-rule="evenodd" d="M15.0265 8.00806C15.5802 8.00806 16.0291 8.45696 16.0291 9.01072V14.024H21.0424C21.5962 14.024 22.0451 14.4729 22.0451 15.0267C22.0451 15.5805 21.5962 16.0294 21.0424 16.0294H16.0291V21.0427C16.0291 21.5964 15.5802 22.0453 15.0265 22.0453C14.4727 22.0453 14.0238 21.5964 14.0238 21.0427V16.0294H9.01048C8.45672 16.0294 8.00781 15.5805 8.00781 15.0267C8.00781 14.4729 8.45672 14.024 9.01048 14.024L14.0238 14.024V9.01072C14.0238 8.45696 14.4727 8.00806 15.0265 8.00806Z" fill="#315DE4"/>
</svg>
