<svg width="17" height="18" viewBox="0 0 17 18" fill="none" xmlns="http://www.w3.org/2000/svg">
<path d="M11.1247 13.0637H15.3024L14.1285 11.8898C13.8102 11.5715 13.6313 11.1397 13.6313 10.6894V8.05039C13.6313 5.86756 12.2363 4.01057 10.2891 3.32234V3.03707C10.2891 2.11415 9.54094 1.36597 8.61802 1.36597C7.69509 1.36597 6.94691 2.11415 6.94691 3.03707V3.32234C4.99975 4.01057 3.6047 5.86756 3.6047 8.05039V10.6894C3.6047 11.1397 3.42585 11.5715 3.10749 11.8898L1.93359 13.0637H6.11136M11.1247 13.0637V13.8993C11.1247 15.2836 10.0024 16.4059 8.61802 16.4059C7.23363 16.4059 6.11136 15.2836 6.11136 13.8993V13.0637M11.1247 13.0637H6.11136" stroke="#68707D" stroke-width="2" stroke-linecap="round" stroke-linejoin="round"/>
</svg>
