<svg width="20" height="21" viewBox="0 0 20 21" fill="none" xmlns="http://www.w3.org/2000/svg">
<path d="M10 0.570312C4.486 0.570312 0 5.05631 0 10.5703V14.7133C0 15.7373 0.897 16.5703 2 16.5703H3C3.26522 16.5703 3.51957 16.465 3.70711 16.2774C3.89464 16.0899 4 15.8355 4 15.5703V10.4273C4 10.1621 3.89464 9.90774 3.70711 9.72021C3.51957 9.53267 3.26522 9.42731 3 9.42731H2.092C2.648 5.55731 5.978 2.57031 10 2.57031C14.022 2.57031 17.352 5.55731 17.908 9.42731H17C16.7348 9.42731 16.4804 9.53267 16.2929 9.72021C16.1054 9.90774 16 10.1621 16 10.4273V16.5703C16 17.6733 15.103 18.5703 14 18.5703H12V17.5703H8V20.5703H14C16.206 20.5703 18 18.7763 18 16.5703C19.103 16.5703 20 15.7373 20 14.7133V10.5703C20 5.05631 15.514 0.570312 10 0.570312Z" fill="#68707D"/>
</svg>
