<svg width="37" height="36" viewBox="0 0 37 36" fill="none" xmlns="http://www.w3.org/2000/svg">
<path d="M32.2414 17.9987C32.2414 25.5174 26.1463 31.6124 18.6276 31.6124V35.7885C28.4526 35.7885 36.4174 27.8237 36.4174 17.9987H32.2414ZM18.6276 31.6124C11.1089 31.6124 5.01379 25.5174 5.01379 17.9987H0.83777C0.83777 27.8237 8.80254 35.7885 18.6276 35.7885V31.6124ZM5.01379 17.9987C5.01379 10.48 11.1089 4.38489 18.6276 4.38489V0.208864C8.80254 0.208864 0.83777 8.17363 0.83777 17.9987H5.01379ZM18.6276 4.38489C26.1463 4.38489 32.2414 10.48 32.2414 17.9987H36.4174C36.4174 8.17363 28.4526 0.208864 18.6276 0.208864V4.38489ZM23.5181 17.9987C23.5181 20.6997 21.3286 22.8892 18.6276 22.8892V27.0653C23.6349 27.0653 27.6942 23.006 27.6942 17.9987H23.5181ZM18.6276 22.8892C15.9266 22.8892 13.737 20.6997 13.737 17.9987H9.56099C9.56099 23.006 13.6202 27.0653 18.6276 27.0653V22.8892ZM13.737 17.9987C13.737 15.2977 15.9266 13.1081 18.6276 13.1081V8.93208C13.6202 8.93208 9.56099 12.9913 9.56099 17.9987H13.737ZM18.6276 13.1081C21.3286 13.1081 23.5181 15.2977 23.5181 17.9987H27.6942C27.6942 12.9913 23.6349 8.93208 18.6276 8.93208V13.1081ZM28.254 5.41938L22.0857 11.5876L25.0386 14.5405L31.2069 8.37227L28.254 5.41938ZM22.0857 24.4097L28.254 30.578L31.2069 27.6251L25.0386 21.4568L22.0857 24.4097ZM15.1694 11.5876L9.00118 5.41938L6.04828 8.37227L12.2165 14.5405L15.1694 11.5876ZM12.2165 21.4568L6.04828 27.6251L9.00118 30.578L15.1694 24.4097L12.2165 21.4568Z" fill="#315DE4"/>
</svg>
