<svg width="21" height="19" viewBox="0 0 21 19" fill="none" xmlns="http://www.w3.org/2000/svg">
<path d="M1.9444 7.87267H1.79076C1.30866 7.87267 0.956592 8.32822 1.07815 8.79475L3.32458 17.4162C3.40909 17.7405 3.70199 17.9669 4.03718 17.9669H17.3056C17.6518 17.9669 17.9512 17.7258 18.025 17.3876L19.9293 8.66475C20.0182 8.25768 19.7081 7.87267 19.2915 7.87267V7.87267M1.9444 7.87267C1.9444 6.14937 3.02874 3.92199 5.82608 3.92199M1.9444 7.87267H9.51848M5.82608 3.92199C8.6365 3.92199 9.21339 6.24209 9.51848 7.87267M5.82608 3.92199C5.82608 2.81309 5.16282 2.21548 4.68672 1.91572M9.51848 7.87267H10.903M19.2915 7.87267H10.903M19.2915 7.87267C19.2915 6.62438 18.9439 4.82852 17.3458 3.98742M10.903 7.87267C10.903 7.02168 10.6903 4.65297 13.5744 3.79021M13.5744 3.79021C13.9629 3.63862 14.6432 3.49522 15.3664 3.49522C16.0896 3.49522 16.6184 3.60452 17.3458 3.98742M13.5744 3.79021V2.03694C13.5744 1.63023 13.9041 1.30054 14.3108 1.30054H16.6095C17.0162 1.30054 17.3458 1.63023 17.3458 2.03694V3.98742M8.51751 10.5516H12.0376" stroke="#68707D" stroke-width="1.8" stroke-linecap="round"/>
</svg>
