<svg width="22" height="21" viewBox="0 0 22 21" fill="none" xmlns="http://www.w3.org/2000/svg">
<path d="M1.99976 1.5L5.58891 5.08916M19.9998 19.5L16.411 15.9112M12.8746 17.3246C12.2675 17.4398 11.6409 17.5 11.0002 17.5C6.52256 17.5 2.73226 14.5571 1.45801 10.5C1.80491 9.3955 2.33826 8.37361 3.02119 7.47118M8.87844 8.37868C9.42133 7.83579 10.1713 7.5 10.9998 7.5C12.6566 7.5 13.9998 8.84315 13.9998 10.5C13.9998 11.3284 13.664 12.0784 13.1211 12.6213M8.87844 8.37868L13.1211 12.6213M8.87844 8.37868L5.58891 5.08916M13.1211 12.6213L5.58891 5.08916M13.1211 12.6213L16.411 15.9112M5.58891 5.08916C7.14874 4.08354 9.00632 3.5 11.0002 3.5C15.4778 3.5 19.2681 6.44291 20.5424 10.5C19.8355 12.7507 18.3543 14.6585 16.411 15.9112" stroke="#98A2B3" stroke-width="2" stroke-linecap="round" stroke-linejoin="round"/>
</svg>
