<svg width="212" height="214" viewBox="0 0 212 214" fill="none" xmlns="http://www.w3.org/2000/svg">
<path d="M68.7922 208.487C83.6489 217.442 94.2476 213.724 98.3052 206.544C106.152 192.657 132.242 164.26 173.588 154.662C228.348 141.95 216.912 108.198 183.249 90.4861C149.586 72.7745 124.415 48.267 128.225 21.6196C132.034 -5.02787 94.2889 -14.2141 77.5029 37.0466C66.6554 70.1733 47.216 79.048 34.8198 81.1813C23.1367 83.1919 10.3568 85.7145 4.12469 95.799C-3.43755 108.035 -0.798692 120.412 30.8627 128.902C75.7301 140.932 35.492 188.415 68.7922 208.487Z" fill="#DEE9FF"/>
<path d="M30.1915 150.426C30.8202 150.066 37.9166 147.062 73.2195 163.52C73.1166 163.66 73.0729 163.726 73.0729 163.726C73.0729 163.726 36.3721 176.086 29.1813 160.859C27.0339 156.326 27.6492 153.205 30.1302 150.461L30.1915 150.426Z" fill="#0E84E5"/>
<path d="M148.847 156.653C141.177 163.101 129.149 167.781 117.543 161.558C119.377 160.386 121.271 159.179 123.203 157.93C134.859 150.441 145.125 155.452 148.847 156.653Z" fill="#0E84E5"/>
<path d="M162.586 77.3495C170.422 142.601 151.799 154.444 149.726 156.243C149.126 156.764 148.883 156.726 147.975 156.492L147.96 156.501C144.119 155.483 134.859 150.441 123.203 157.929C121.271 159.177 119.377 160.384 117.543 161.556C105.653 169.097 96.0512 174.412 89.1336 171.327C83.2661 168.334 77.9756 165.744 73.2194 163.519C37.9165 147.06 30.8201 150.065 30.1914 150.425C30.9209 150.027 37.6134 146.318 46.6246 139.794C46.6553 139.776 46.6859 139.759 46.6925 139.735C58.7373 131.006 74.8676 117.25 86.4622 99.5548C94.3552 87.5221 102.077 57.0177 116.976 51.0325C147.595 39.6099 161.314 64.077 162.586 77.3495Z" fill="#699CFF"/>
<path d="M128.729 76.2049C129.68 73.6952 129.587 71.3337 128.522 70.9305C127.457 70.5273 125.824 72.235 124.873 74.7447C123.923 77.2545 124.015 79.6159 125.08 80.0192C126.145 80.4224 127.779 78.7147 128.729 76.2049Z" fill="white"/>
<path d="M148.226 79.4092C148.9 76.8114 148.553 74.4738 147.451 74.188C146.348 73.9023 144.909 75.7765 144.235 78.3744C143.562 80.9722 143.909 83.3098 145.011 83.5956C146.113 83.8813 147.553 82.0071 148.226 79.4092Z" fill="white"/>
<path d="M136.359 88.9425C136.2 88.9424 136.045 88.8876 135.921 88.7873C135.796 88.687 135.71 88.5473 135.676 88.3912C135.551 87.8262 134.996 86.1543 134.116 85.9058C133.235 85.6573 131.509 86.622 130.81 87.1281C130.66 87.237 130.472 87.2817 130.289 87.2524C130.105 87.2231 129.941 87.1221 129.832 86.9717C129.723 86.8214 129.679 86.6339 129.708 86.4505C129.737 86.2672 129.838 86.103 129.989 85.9941C130.264 85.7948 132.73 84.06 134.496 84.5583C136.338 85.078 136.977 87.7863 137.044 88.0934C137.066 88.1957 137.065 88.3016 137.041 88.4035C137.017 88.5053 136.97 88.6005 136.905 88.6819C136.839 88.7634 136.756 88.8291 136.662 88.8742C136.567 88.9193 136.464 88.9426 136.359 88.9425H136.359Z" fill="white"/>
</svg>
