<svg width="280" height="280" viewBox="0 0 280 280" fill="none" xmlns="http://www.w3.org/2000/svg">
<path d="M96.1244 49.1352C97.8448 50.839 99.6573 52.4426 101.673 53.7832C111.957 60.6231 142.553 77.0806 191.08 70.3546C251.713 61.9507 242.818 122.913 234.093 139.161C225.368 155.409 193.281 185.193 190.586 200.116C187.891 215.039 199.424 255.798 172.402 243.568C145.381 231.337 129.771 202.69 94.3042 206.02C58.8369 209.349 33.7748 193.632 49.4748 165.552C65.1748 137.472 83.9454 119.352 59.987 88.0747C36.6936 57.667 75.9289 29.1343 96.1244 49.1352Z" fill="#DEE9FF"/>
<path d="M157.644 80.6394C157.194 80.1867 156.937 79.5777 156.926 78.9397C156.915 78.3017 157.151 77.6842 157.585 77.2161L173.583 59.9485C173.81 59.7039 174.083 59.5077 174.388 59.3716C174.692 59.2355 175.021 59.1624 175.354 59.1566C175.688 59.1508 176.019 59.2125 176.328 59.338C176.637 59.4634 176.917 59.6501 177.152 59.8866L178.533 61.2774C178.768 61.514 178.953 61.7957 179.076 62.1055C179.199 62.4153 179.259 62.7468 179.25 63.0802C179.242 63.4135 179.167 63.7418 179.029 64.0452C178.89 64.3486 178.692 64.621 178.446 64.8459L161.067 80.7227C160.596 81.1532 159.977 81.3849 159.339 81.3693C158.701 81.3538 158.094 81.0923 157.644 80.6394Z" fill="#418DF9"/>
<path d="M147.519 74.752C147.137 74.5825 146.835 74.2717 146.676 73.8846C146.517 73.4975 146.514 73.0641 146.668 72.6749L152.329 58.3158C152.41 58.1124 152.53 57.9273 152.684 57.7717C152.837 57.6161 153.021 57.4931 153.223 57.4102C153.425 57.3273 153.642 57.2861 153.861 57.2892C154.08 57.2923 154.295 57.3396 154.495 57.4282L155.67 57.949C155.87 58.0375 156.05 58.1656 156.199 58.3255C156.348 58.4854 156.463 58.6738 156.538 58.8794C156.612 59.085 156.644 59.3035 156.632 59.5218C156.62 59.74 156.564 59.9536 156.467 60.1496L149.631 73.9879C149.445 74.3631 149.122 74.6522 148.729 74.7946C148.335 74.937 147.902 74.9217 147.519 74.752Z" fill="#418DF9"/>
<path d="M137.215 77.1007C135.911 77.3356 134.602 76.216 134.247 74.5628L127.968 45.207C127.594 43.4527 128.434 41.7841 129.818 41.5347L131.747 41.1875C133.131 40.9383 134.501 42.2095 134.761 43.984L139.112 73.6868C139.357 75.3602 138.52 76.8658 137.215 77.1007Z" fill="#418DF9"/>
<path d="M238.711 104.727L211.017 101.157C210.551 101.108 210.08 101.201 209.669 101.426C209.257 101.65 208.923 101.995 208.713 102.414L201.349 116.954L170.523 178.604C170.195 179.256 169.646 179.769 168.975 180.052C168.303 180.335 167.552 180.369 166.857 180.149L83.187 153.442C82.9562 153.368 82.7112 153.351 82.4722 153.39C82.2332 153.43 82.007 153.525 81.8122 153.669C81.6174 153.813 81.4595 154.001 81.3516 154.218C81.2437 154.435 81.1889 154.675 81.1916 154.917L81.2299 158.391C81.2346 158.874 81.3916 159.344 81.6785 159.732C81.9655 160.121 82.3677 160.409 82.828 160.556L171.353 188.812C172.34 189.127 173.226 189.697 173.922 190.465C174.617 191.232 175.097 192.17 175.314 193.184L175.343 193.322C176.113 197.552 171.945 201.024 167.837 199.777L70.7663 168.753C70.2684 168.595 69.8395 168.271 69.5505 167.836C69.2616 167.4 69.13 166.879 69.1775 166.359L76.7744 83.3996C76.8126 82.9719 76.9403 82.557 77.1493 82.1818C77.3582 81.8066 77.6438 81.4796 77.9873 81.2219C78.3309 80.9643 78.7248 80.7817 79.1434 80.6862C79.5621 80.5906 79.9962 80.5842 80.4175 80.6673L196.707 103.416L204.197 88.5309C204.413 88.1102 204.753 87.766 205.171 87.5448C205.589 87.3235 206.065 87.2358 206.535 87.2936L240.448 91.6364C240.749 91.6742 241.039 91.7713 241.302 91.922C241.565 92.0728 241.796 92.2743 241.98 92.5147C242.165 92.7552 242.3 93.0299 242.378 93.3229C242.456 93.6159 242.475 93.9215 242.433 94.2219L241.277 102.752C241.197 103.353 240.882 103.899 240.401 104.269C239.921 104.639 239.313 104.804 238.711 104.727Z" fill="#699CFF"/>
<path d="M81.4648 139.238L90.9406 142.263L100.03 96.1712L85.483 93.9375L81.4648 139.238Z" fill="#DEE9FF"/>
<path d="M155.812 162.968L165.288 165.992L189.794 114.38L179.356 111.852L155.812 162.968Z" fill="#DEE9FF"/>
<path d="M119.367 151.337L128.114 154.129L146.85 105.494L132.536 102.531L119.367 151.337Z" fill="#DEE9FF"/>
<path d="M108.278 98L122.593 100.963L109.89 148.31L100.414 145.286L108.278 98Z" fill="#DEE9FF"/>
<path d="M170.374 109.791L156.06 106.828L138.316 157.386L147.063 160.178L170.374 109.791Z" fill="#DEE9FF"/>
<path d="M83.2937 198.705C89.421 198.705 94.3881 193.737 94.3881 187.61C94.3881 181.483 89.421 176.516 83.2937 176.516C77.1664 176.516 72.1992 181.483 72.1992 187.61C72.1992 193.737 77.1664 198.705 83.2937 198.705Z" fill="#A2BDFF"/>
<path d="M152.54 220.806C158.667 220.806 163.634 215.839 163.634 209.712C163.634 203.584 158.667 198.617 152.54 198.617C146.412 198.617 141.445 203.584 141.445 209.712C141.445 215.839 146.412 220.806 152.54 220.806Z" fill="#A2BDFF"/>
<path d="M243.693 91.1802L214.465 87.5211C214.303 87.5008 214.155 87.6157 214.135 87.7778L212.364 101.928C212.343 102.09 212.458 102.238 212.62 102.258L241.848 105.917C242.01 105.938 242.158 105.823 242.178 105.661L243.949 91.5103C243.97 91.3483 243.855 91.2005 243.693 91.1802Z" fill="#A2BDFF"/>
</svg>
