<svg width="281" height="280" viewBox="0 0 281 280" fill="none" xmlns="http://www.w3.org/2000/svg">
<path d="M42.4978 212.402C50.1138 230.987 62.5318 234.856 71.2627 230.987C88.1478 223.506 132.009 215.147 177.057 234.795C236.72 260.818 249.414 221.556 230.373 181.842C211.331 142.127 204.877 101.965 226.828 79.8377C248.779 57.7105 220.054 23.0957 169.041 59.1273C136.075 82.4123 111.881 77.2274 98.8896 70.6448C86.6452 64.441 73.0279 57.9552 60.2699 63.0193C44.7894 69.1643 38.6896 82.487 62.2425 112.25C95.6189 154.427 25.4255 170.745 42.4978 212.402Z" fill="#DEE9FF"/>
<path d="M73.5078 121.867H192.036V213.022C192.036 213.208 191.962 213.386 191.831 213.517C191.7 213.649 191.522 213.722 191.336 213.722H74.2078C74.0222 213.722 73.8441 213.649 73.7128 213.517C73.5816 213.386 73.5078 213.208 73.5078 213.022V121.867Z" fill="#A2BDFF"/>
<path d="M162.301 86.1484H107.188L73.5078 121.87H192.036L162.301 86.1484Z" fill="#418DF9"/>
<path d="M84.7343 71.8594L107.188 86.1481L73.5076 121.869L47.9922 102.478L84.7343 71.8594Z" fill="#699CFF"/>
<path d="M184.754 71.8594L162.301 86.1481L192.036 121.869L221.496 102.478L184.754 71.8594Z" fill="#699CFF"/>
<path d="M121.667 72.5854C122.301 72.285 122.794 71.7513 123.043 71.0959C123.293 70.4404 123.279 69.714 123.005 69.0684L112.904 45.2505C112.761 44.9132 112.551 44.6082 112.288 44.354C112.024 44.0998 111.711 43.9016 111.368 43.7713C111.026 43.641 110.661 43.5814 110.294 43.5959C109.928 43.6104 109.569 43.6988 109.238 43.8558L107.292 44.7786C106.961 44.9356 106.665 45.1579 106.422 45.4322C106.179 45.7065 105.994 46.0271 105.878 46.3748C105.762 46.7224 105.718 47.0899 105.747 47.4551C105.777 47.8203 105.88 48.1758 106.051 48.5001L118.098 71.3951C118.424 72.0157 118.978 72.4861 119.643 72.7079C120.308 72.9297 121.034 72.8858 121.667 72.5854Z" fill="#418DF9"/>
<path d="M134.332 70.2814C134.79 70.2487 135.219 70.0401 135.527 69.6992C135.835 69.3582 136 68.9113 135.987 68.4517L135.488 51.4955C135.481 51.2553 135.425 51.019 135.324 50.8009C135.224 50.5827 135.08 50.3872 134.902 50.226C134.724 50.0648 134.515 49.9414 134.287 49.863C134.06 49.7847 133.82 49.7531 133.58 49.7701L132.171 49.8705C131.932 49.8875 131.698 49.9529 131.484 50.0625C131.27 50.1722 131.081 50.3239 130.928 50.5086C130.774 50.6933 130.659 50.9071 130.59 51.1372C130.522 51.3674 130.5 51.609 130.527 51.8477L132.435 68.7037C132.486 69.1607 132.712 69.58 133.066 69.8741C133.42 70.1681 133.873 70.314 134.332 70.2814Z" fill="#418DF9"/>
<path d="M144.106 76.5476C145.368 77.2768 147.138 76.6076 148.121 75.0303L165.56 47.0229C166.601 45.3497 166.355 43.3105 165.017 42.537L163.152 41.459C161.814 40.6854 159.924 41.4887 158.993 43.2262L143.419 72.3115C142.542 73.9496 142.845 75.8182 144.106 76.5476Z" fill="#418DF9"/>
</svg>
