<svg width="18" height="17" viewBox="0 0 18 17" fill="none" xmlns="http://www.w3.org/2000/svg">
<path fill-rule="evenodd" clip-rule="evenodd" d="M15.8163 8.62115C15.8163 10.4217 15.101 12.1484 13.8279 13.4216C12.5547 14.6948 10.8279 15.41 9.0274 15.41C7.22688 15.41 5.50011 14.6948 4.22695 13.4216C2.95379 12.1484 2.23854 10.4217 2.23854 8.62115C2.23854 6.82063 2.95379 5.09386 4.22695 3.8207C5.50011 2.54754 7.22688 1.83229 9.0274 1.83229C10.8279 1.83229 12.5547 2.54754 13.8279 3.8207C15.101 5.09386 15.8163 6.82063 15.8163 8.62115ZM17.3829 8.62115C17.3829 10.8372 16.5026 12.9624 14.9357 14.5294C13.3687 16.0964 11.2434 16.9767 9.0274 16.9767C6.81138 16.9767 4.68612 16.0964 3.11915 14.5294C1.55219 12.9624 0.671875 10.8372 0.671875 8.62115C0.671875 6.40513 1.55219 4.27987 3.11915 2.7129C4.68612 1.14594 6.81138 0.265625 9.0274 0.265625C11.2434 0.265625 13.3687 1.14594 14.9357 2.7129C16.5026 4.27987 17.3829 6.40513 17.3829 8.62115ZM5.81784 5.47739C5.52017 5.92545 5.37186 6.36829 5.37186 6.80383C5.37186 7.01585 5.46586 7.21325 5.65386 7.39498C5.84186 7.57671 6.07164 7.66653 6.34423 7.66653C6.80692 7.66653 7.1213 7.40751 7.28736 6.88738C7.46283 6.39127 7.67694 6.01527 7.93074 5.75938C8.18454 5.50454 8.57829 5.37712 9.11514 5.37712C9.57365 5.37712 9.94756 5.50245 10.2379 5.75625C10.5272 6.00901 10.6724 6.32025 10.6724 6.68789C10.6737 6.87233 10.6245 7.05362 10.5304 7.2122C10.4346 7.37388 10.3164 7.52121 10.1794 7.64982C9.95966 7.85077 9.73396 8.04512 9.50262 8.23262C9.14751 8.52715 8.86447 8.78095 8.65454 8.99506C8.44565 9.20917 8.27645 9.45775 8.15007 9.73975C7.81376 11.0401 9.56007 11.1445 9.96322 10.216C10.0123 10.1262 10.0865 10.028 10.1857 9.91939C10.286 9.81182 10.4186 9.68648 10.5847 9.5434C11.0072 9.19142 11.423 8.83137 11.8317 8.46344C12.0625 8.25038 12.262 7.99553 12.4302 7.701C12.6035 7.38668 12.6907 7.03214 12.6829 6.67327C12.6829 6.17716 12.5357 5.71761 12.2401 5.29461C11.9456 4.87057 11.5278 4.53634 10.9868 4.28986C10.4458 4.04441 9.82222 3.92117 9.11514 3.92117C8.35478 3.92117 7.68947 4.06739 7.11921 4.36297C6.54894 4.6575 6.1155 5.02828 5.81784 5.47634V5.47739ZM8.05294 12.872C8.05294 13.149 8.16298 13.4147 8.35885 13.6106C8.55472 13.8064 8.82038 13.9165 9.09738 13.9165C9.37438 13.9165 9.64004 13.8064 9.83591 13.6106C10.0318 13.4147 10.1418 13.149 10.1418 12.872C10.1418 12.595 10.0318 12.3294 9.83591 12.1335C9.64004 11.9376 9.37438 11.8276 9.09738 11.8276C8.82038 11.8276 8.55472 11.9376 8.35885 12.1335C8.16298 12.3294 8.05294 12.595 8.05294 12.872Z" fill="#315DE4"/>
</svg>
