<svg width="18" height="18" viewBox="0 0 18 18" fill="none" xmlns="http://www.w3.org/2000/svg">
<path d="M14.9045 16.0955V2.74521C14.9045 1.82356 14.1574 1.07642 13.2357 1.07642H4.89178C3.97013 1.07642 3.22299 1.82356 3.22299 2.74521V16.0955M14.9045 16.0955L16.5733 16.0955M14.9045 16.0955H10.7325M3.22299 16.0955L1.5542 16.0955M3.22299 16.0955H7.39496M6.56057 4.41398H7.39496M6.56057 7.75156H7.39496M10.7325 4.41398H11.5669M10.7325 7.75156H11.5669M7.39496 16.0955V11.9235C7.39496 11.4627 7.76853 11.0891 8.22936 11.0891H9.89815C10.359 11.0891 10.7325 11.4627 10.7325 11.9235V16.0955M7.39496 16.0955H10.7325" stroke="#808998" stroke-width="2" stroke-linecap="round" stroke-linejoin="round"/>
</svg>
