<svg width="19" height="21" viewBox="0 0 19 21" fill="none" xmlns="http://www.w3.org/2000/svg">
<path d="M15.1569 14.6569C14.2202 15.5935 12.2616 17.5521 10.9138 18.8999C10.1327 19.681 8.86768 19.6814 8.08663 18.9003C6.76234 17.576 4.84159 15.6553 3.84315 14.6569C0.718951 11.5327 0.718951 6.46734 3.84315 3.34315C6.96734 0.218951 12.0327 0.218951 15.1569 3.34315C18.281 6.46734 18.281 11.5327 15.1569 14.6569Z" stroke="#315DE4" stroke-width="2" stroke-linecap="round" stroke-linejoin="round"/>
<path d="M12.5 9C12.5 10.6569 11.1569 12 9.5 12C7.84315 12 6.5 10.6569 6.5 9C6.5 7.34315 7.84315 6 9.5 6C11.1569 6 12.5 7.34315 12.5 9Z" stroke="#315DE4" stroke-width="2" stroke-linecap="round" stroke-linejoin="round"/>
</svg>
