<svg width="16" height="18" viewBox="0 0 16 18" fill="none" xmlns="http://www.w3.org/2000/svg">
<path d="M12.7548 12.4735C11.9722 13.2561 10.3356 14.8927 9.20947 16.0188C8.55687 16.6714 7.49983 16.6718 6.84723 16.0192C5.74071 14.9127 4.13583 13.3078 3.30157 12.4735C0.691143 9.86309 0.691143 5.63075 3.30157 3.02032C5.912 0.409893 10.1443 0.409893 12.7548 3.02032C15.3652 5.63075 15.3652 9.86309 12.7548 12.4735Z" stroke="#315DE4" stroke-width="1.67111" stroke-linecap="round" stroke-linejoin="round"/>
<path d="M10.5348 7.74692C10.5348 9.13131 9.41256 10.2536 8.02817 10.2536C6.64378 10.2536 5.52151 9.13131 5.52151 7.74692C5.52151 6.36253 6.64378 5.24026 8.02817 5.24026C9.41256 5.24026 10.5348 6.36253 10.5348 7.74692Z" stroke="#315DE4" stroke-width="1.67111" stroke-linecap="round" stroke-linejoin="round"/>
</svg>
