<svg width="260" height="260" viewBox="0 0 260 260" fill="none" xmlns="http://www.w3.org/2000/svg">
<path d="M78.3413 68.464C78.3413 68.464 106.159 89.5739 148.449 50.1022C186.007 15.0483 216.674 70.3555 216.888 96.8411C217.166 131.15 179.33 158.603 197.692 181.138C216.054 203.673 161.278 240.885 131.757 208.68C95.0336 168.618 85.0849 201.169 64.1528 201.169C49.1295 201.169 18.2854 163.84 39.1141 136.068C56.6412 112.699 47.0822 104.943 42.4532 96.8411C35.7756 85.1564 51.6335 53.4409 78.3413 68.464Z" fill="#DEE9FF"/>
<path d="M190.022 115.117C191.517 115.673 193.152 115.71 194.706 115.353C201.22 113.858 223.616 109.899 219.724 127.255C218.877 130.698 205.76 149.982 224.44 157.021C225.809 157.543 227.257 157.829 228.721 157.864C234.473 157.983 245.87 156.625 250.64 151.769C256.403 145.903 250.108 148.685 250.108 148.685C250.108 148.685 228.201 158.245 220.463 148.102C219.601 146.974 219.053 145.335 218.896 143.924C218.624 141.477 219.71 138.245 221.137 135.43C223.068 131.621 232.341 114.488 212.209 109.496C207.572 108.392 200.836 107.4 192.151 111.056C187.085 113.189 188.207 114.443 190.022 115.117Z" fill="#BDD6F9"/>
<path d="M194.507 108.712L188.676 110.894C186.663 111.647 185.642 113.89 186.395 115.902L186.684 116.675C187.438 118.687 189.68 119.708 191.693 118.955L197.524 116.773C199.536 116.019 200.557 113.777 199.804 111.764L199.515 110.992C198.762 108.979 196.519 107.958 194.507 108.712Z" fill="#0E84E5"/>
<path d="M158.712 115.035L139.482 122.232C138.476 122.609 137.965 123.73 138.342 124.736L138.418 124.939C138.795 125.945 139.916 126.456 140.922 126.079L160.152 118.882C161.158 118.505 161.669 117.384 161.292 116.378L161.217 116.175C160.84 115.169 159.719 114.658 158.712 115.035Z" fill="white"/>
<path d="M164.08 129.371L144.85 136.568C143.843 136.945 143.333 138.066 143.709 139.072L143.785 139.275C144.162 140.281 145.283 140.792 146.289 140.415L165.519 133.218C166.526 132.841 167.036 131.72 166.66 130.714L166.584 130.511C166.207 129.505 165.086 128.994 164.08 129.371Z" fill="white"/>
<path d="M181.832 105.248L166.246 111.081C164.233 111.835 163.212 114.077 163.966 116.09L169.287 130.307C170.04 132.32 172.282 133.341 174.295 132.588L189.881 126.755C191.894 126.002 192.915 123.759 192.161 121.746L186.84 107.529C186.087 105.516 183.844 104.495 181.832 105.248Z" fill="#5895F9"/>
<path d="M167.859 108.975L152.273 114.808C150.261 115.561 149.24 117.804 149.993 119.816L156.341 136.779C157.095 138.791 159.337 139.812 161.35 139.059L176.935 133.226C178.948 132.473 179.969 130.23 179.216 128.218L172.867 111.255C172.114 109.243 169.872 108.222 167.859 108.975Z" fill="#699CFF"/>
<path d="M170.298 105.537L170.176 105.583C168.834 106.085 168.153 107.58 168.655 108.922L177.549 132.684C178.051 134.026 179.546 134.707 180.888 134.204L181.01 134.159C182.352 133.656 183.033 132.162 182.53 130.82L173.637 107.057C173.135 105.716 171.64 105.035 170.298 105.537Z" fill="#208AF2"/>
<path d="M11.3782 120.723C11.3782 120.723 42.6791 111.927 38.1347 132.193C37.3455 135.399 25.9853 151.91 39.517 159.838C42.4226 161.54 45.7757 162.294 49.1429 162.276C55.1802 162.245 64.7511 161.083 69.0507 156.707C74.8131 150.841 68.5178 153.623 68.5178 153.623C68.5178 153.623 50.5412 161.017 41.2929 155.123C38.1351 153.11 36.7037 149.213 37.5612 145.568C37.9995 143.757 38.667 142.01 39.5474 140.368C41.5587 136.601 50.751 119.425 30.6195 114.434C25.982 113.329 19.2463 112.337 10.5614 115.994C1.87642 119.65 11.3782 120.723 11.3782 120.723Z" fill="#BDD6F9"/>
<path d="M73.2605 149.087L67.4297 151.269C65.4169 152.022 64.3958 154.265 65.1492 156.277L65.4382 157.05C66.1915 159.062 68.4339 160.083 70.4467 159.33L76.2776 157.148C78.2904 156.395 79.3114 154.152 78.5581 152.139L78.269 151.367C77.5157 149.354 75.2733 148.333 73.2605 149.087Z" fill="#0E84E5"/>
<path d="M83.1104 139.495L74.4687 142.73C72.4559 143.483 71.4349 145.725 72.1882 147.738L76.3552 158.872C77.1085 160.885 79.3509 161.906 81.3637 161.153L90.0053 157.918C92.0181 157.165 93.0391 154.923 92.2858 152.91L88.1189 141.776C87.3655 139.763 85.1232 138.742 83.1104 139.495Z" fill="#5895F9"/>
<path d="M97.4965 130.93L84.6094 135.753C82.5965 136.507 81.5755 138.749 82.3288 140.762L88.6771 157.724C89.4305 159.737 91.6729 160.758 93.6857 160.004L106.573 155.181C108.586 154.428 109.607 152.186 108.853 150.173L102.505 133.211C101.752 131.198 99.5093 130.177 97.4965 130.93Z" fill="#699CFF"/>
<path d="M100.224 127.412L100.102 127.458C98.7597 127.96 98.079 129.455 98.5812 130.797L107.475 154.559C107.977 155.901 109.472 156.582 110.814 156.079L110.936 156.034C112.278 155.531 112.958 154.036 112.456 152.695L103.563 128.932C103.061 127.591 101.566 126.91 100.224 127.412Z" fill="#208AF2"/>
<path d="M133.135 112.274C132.671 112.222 132.245 111.993 131.947 111.633C131.649 111.274 131.501 110.813 131.536 110.347L132.498 92.7842C132.555 91.7351 133.441 90.938 134.447 91.0308L135.847 91.1605C136.853 91.2532 137.573 92.1982 137.432 93.2399L135.069 110.673C135.015 111.138 134.783 111.563 134.423 111.861C134.063 112.16 133.602 112.307 133.135 112.274Z" fill="#418DF9"/>
<path d="M124.829 113.784C124.685 113.826 124.533 113.84 124.384 113.824C124.234 113.808 124.089 113.763 123.957 113.69C123.825 113.618 123.709 113.521 123.614 113.404C123.52 113.287 123.449 113.152 123.407 113.008L119.973 102.082C119.873 101.772 119.901 101.434 120.05 101.144C120.198 100.853 120.456 100.634 120.767 100.533L121.656 100.265C121.808 100.22 121.968 100.208 122.126 100.228C122.284 100.249 122.435 100.302 122.571 100.384C122.707 100.466 122.825 100.575 122.917 100.705C123.008 100.835 123.072 100.982 123.104 101.138L125.649 112.331C125.72 112.632 125.675 112.949 125.523 113.218C125.371 113.487 125.123 113.689 124.829 113.784Z" fill="#418DF9"/>
<path d="M120.198 120.089C119.583 120.851 118.346 120.842 117.393 120.068L100.482 106.328C99.4722 105.508 99.1742 104.149 99.8269 103.341L100.737 102.214C101.389 101.406 102.73 101.472 103.686 102.36L119.687 117.227C120.588 118.064 120.813 119.326 120.198 120.089Z" fill="#418DF9"/>
<path d="M128.014 155.567C128.45 155.735 128.803 156.066 129 156.49C129.196 156.913 129.221 157.397 129.068 157.838L123.653 174.573C123.33 175.572 122.27 176.116 121.321 175.77L119.999 175.287C119.051 174.941 118.596 173.843 118.998 172.872L125.735 156.62C125.906 156.185 126.239 155.832 126.663 155.636C127.088 155.44 127.572 155.415 128.014 155.567Z" fill="#418DF9"/>
<path d="M136.427 156.227C136.578 156.223 136.727 156.248 136.868 156.302C137.008 156.356 137.137 156.437 137.246 156.54C137.356 156.644 137.443 156.767 137.505 156.905C137.566 157.042 137.6 157.19 137.604 157.341L138.134 168.781C138.151 169.107 138.038 169.426 137.82 169.669C137.602 169.912 137.297 170.058 136.971 170.076L136.042 170.108C135.884 170.113 135.726 170.084 135.578 170.024C135.431 169.964 135.298 169.874 135.188 169.76C135.077 169.645 134.991 169.51 134.936 169.361C134.88 169.212 134.856 169.053 134.865 168.894L135.264 157.422C135.272 157.113 135.396 156.819 135.612 156.597C135.827 156.376 136.119 156.244 136.427 156.227Z" fill="#418DF9"/>
<path d="M142.52 151.318C143.31 150.738 144.504 151.063 145.227 152.055L158.068 169.657C158.835 170.708 158.776 172.097 157.938 172.713L156.771 173.57C155.933 174.185 154.654 173.778 153.957 172.676L142.283 154.215C141.626 153.176 141.731 151.898 142.52 151.318Z" fill="#418DF9"/>
</svg>
