<svg width="34" height="34" viewBox="0 0 34 34" fill="none" xmlns="http://www.w3.org/2000/svg">
<path d="M17.3268 11.0379C13.9925 11.0379 11.2918 13.7386 11.2918 17.0729C11.2918 20.4073 13.9925 23.108 17.3268 23.108C20.6612 23.108 23.3619 20.4073 23.3619 17.0729C23.3619 13.7386 20.6612 11.0379 17.3268 11.0379ZM30.8152 15.5642C30.4734 12.5046 29.1014 9.65215 26.9245 7.47524C24.7476 5.29834 21.8952 3.92636 18.8356 3.58461V0.476562H15.8181V3.58461C12.7585 3.92636 9.90606 5.29834 7.72915 7.47524C5.55224 9.65215 4.18027 12.5046 3.83852 15.5642H0.730469V18.5817H3.83852C4.18027 21.6413 5.55224 24.4937 7.72915 26.6706C9.90606 28.8475 12.7585 30.2195 15.8181 30.5613V33.6693H18.8356V30.5613C21.8952 30.2195 24.7476 28.8475 26.9245 26.6706C29.1014 24.4937 30.4734 21.6413 30.8152 18.5817H33.9232V15.5642H30.8152ZM17.3268 27.6343C11.4879 27.6343 6.76551 22.9118 6.76551 17.0729C6.76551 11.234 11.4879 6.51161 17.3268 6.51161C23.1657 6.51161 27.8882 11.234 27.8882 17.0729C27.8882 22.9118 23.1657 27.6343 17.3268 27.6343Z" fill="#315DE4"/>
</svg>
