<svg width="16" height="18" viewBox="0 0 16 18" fill="none" xmlns="http://www.w3.org/2000/svg">
<path d="M8.02817 1.57812L8.47539 0.683698C8.19386 0.542934 7.86249 0.542934 7.58096 0.683698L8.02817 1.57812ZM14.7126 4.92034H15.7126C15.7126 4.54156 15.4986 4.1953 15.1598 4.02591L14.7126 4.92034ZM1.34375 4.92034L0.896536 4.02591C0.557752 4.1953 0.34375 4.54156 0.34375 4.92034H1.34375ZM14.7126 13.2759L15.1598 14.1703C15.4986 14.0009 15.7126 13.6546 15.7126 13.2759H14.7126ZM8.02817 16.6181L7.58096 17.5125C7.86249 17.6533 8.19386 17.6533 8.47539 17.5125L8.02817 16.6181ZM1.34375 13.2759H0.34375C0.34375 13.6546 0.557752 14.0009 0.896536 14.1703L1.34375 13.2759ZM10.3704 10.3514C10.3704 10.9037 10.8181 11.3514 11.3704 11.3514C11.9227 11.3514 12.3704 10.9037 12.3704 10.3514H10.3704ZM7.58096 2.47255L14.2654 5.81476L15.1598 4.02591L8.47539 0.683698L7.58096 2.47255ZM8.47539 7.36812L1.79096 4.02591L0.896536 5.81476L7.58096 9.15698L8.47539 7.36812ZM14.2654 12.3814L7.58096 15.7236L8.47539 17.5125L15.1598 14.1703L14.2654 12.3814ZM8.47539 15.7236L1.79096 12.3814L0.896536 14.1703L7.58096 17.5125L8.47539 15.7236ZM2.34375 13.2759V4.92034H0.34375V13.2759H2.34375ZM15.7126 13.2759V4.92034H13.7126V13.2759H15.7126ZM7.02817 8.26255V16.6181H9.02817V8.26255H7.02817ZM1.79096 5.81476L5.13318 4.14366L4.23875 2.3548L0.896536 4.02591L1.79096 5.81476ZM5.13318 4.14366L8.47539 2.47255L7.58096 0.683698L4.23875 2.3548L5.13318 4.14366ZM14.2654 4.02591L10.9232 5.69701L11.8176 7.48587L15.1598 5.81476L14.2654 4.02591ZM10.9232 5.69701L7.58096 7.36812L8.47539 9.15698L11.8176 7.48587L10.9232 5.69701ZM4.23875 4.14366L10.9232 7.48587L11.8176 5.69701L5.13318 2.3548L4.23875 4.14366ZM12.3704 10.3514V6.59144H10.3704V10.3514H12.3704Z" fill="#315DE4"/>
</svg>
