<svg width="18" height="15" viewBox="0 0 18 15" fill="none" xmlns="http://www.w3.org/2000/svg">
<path d="M13.2056 4.67034V2.99923C13.2056 2.0763 12.4574 1.32812 11.5344 1.32812H3.17892C2.25599 1.32812 1.50781 2.0763 1.50781 2.99923V8.01255C1.50781 8.93547 2.25599 9.68365 3.17892 9.68365H4.85002M6.52113 13.0259H14.8767C15.7996 13.0259 16.5478 12.2777 16.5478 11.3548V6.34144C16.5478 5.41852 15.7996 4.67034 14.8767 4.67034H6.52113C5.5982 4.67034 4.85002 5.41852 4.85002 6.34144V11.3548C4.85002 12.2777 5.5982 13.0259 6.52113 13.0259ZM12.37 8.8481C12.37 9.77103 11.6218 10.5192 10.6989 10.5192C9.77597 10.5192 9.02779 9.77103 9.02779 8.8481C9.02779 7.92517 9.77597 7.177 10.6989 7.177C11.6218 7.177 12.37 7.92517 12.37 8.8481Z" stroke="#315DE4" stroke-width="2" stroke-linecap="round" stroke-linejoin="round"/>
</svg>
