<svg width="18" height="17" viewBox="0 0 18 17" fill="none" xmlns="http://www.w3.org/2000/svg">
<path d="M8.07559 1.99695C8.37496 1.07569 9.6783 1.07569 9.97768 1.99695L11.0534 5.30735C11.1873 5.71934 11.5712 5.99828 12.0044 5.9983L15.4852 5.99843C16.4539 5.99847 16.8567 7.23802 16.073 7.80743L13.2571 9.8535C12.9066 10.1081 12.76 10.5595 12.8938 10.9715L13.9693 14.282C14.2686 15.2032 13.2142 15.9693 12.4305 15.4L9.61439 13.3541C9.26391 13.0995 8.78935 13.0995 8.43888 13.3541L5.62277 15.4C4.83907 15.9693 3.78464 15.2032 4.08395 14.282L5.15945 10.9715C5.2933 10.5595 5.14665 10.1081 4.7962 9.8535L1.98025 7.80742C1.19659 7.23802 1.59934 5.99847 2.56803 5.99843L6.04883 5.9983C6.48203 5.99828 6.86596 5.71934 6.99984 5.30735L8.07559 1.99695Z" stroke="#315DE4" stroke-width="2"/>
</svg>
