<svg width="21" height="21" viewBox="0 0 21 21" fill="none" xmlns="http://www.w3.org/2000/svg">
<path d="M2.50781 6.90625H1.50781H2.50781ZM17.5478 9.08401V10.084C18.1 10.084 18.5478 9.6363 18.5478 9.08401H17.5478ZM17.5478 12.4262H18.5478C18.5478 11.8739 18.1 11.4262 17.5478 11.4262V12.4262ZM2.50781 14.604L1.50781 14.604V14.604H2.50781ZM2.50781 12.4262V11.4262C1.95553 11.4262 1.50781 11.8739 1.50781 12.4262H2.50781ZM2.50781 9.08401H1.50781C1.50781 9.6363 1.95553 10.084 2.50781 10.084V9.08401ZM4.50781 3.90625C2.85096 3.90625 1.50781 5.24939 1.50781 6.90625H3.50781C3.50781 6.35396 3.95553 5.90625 4.50781 5.90625V3.90625ZM15.5478 3.90625H4.50781V5.90625H15.5478V3.90625ZM18.5478 6.90625C18.5478 5.2494 17.2046 3.90625 15.5478 3.90625V5.90625C16.1 5.90625 16.5478 6.35397 16.5478 6.90625H18.5478ZM18.5478 9.08401V6.90625H16.5478V9.08401H18.5478ZM16.8767 10.7551C16.8767 10.3845 17.1771 10.084 17.5478 10.084V8.08401C16.0726 8.08401 14.8767 9.27991 14.8767 10.7551H16.8767ZM17.5478 11.4262C17.1771 11.4262 16.8767 11.1258 16.8767 10.7551H14.8767C14.8767 12.2303 16.0726 13.4262 17.5478 13.4262V11.4262ZM18.5478 14.604V12.4262H16.5478V14.604H18.5478ZM15.5478 17.604C17.2046 17.604 18.5478 16.2608 18.5478 14.604H16.5478C16.5478 15.1563 16.1 15.604 15.5478 15.604V17.604ZM4.50781 17.604H15.5478V15.604H4.50781V17.604ZM1.50781 14.604C1.50781 16.2608 2.85096 17.604 4.50781 17.604V15.604C3.95553 15.604 3.50781 15.1563 3.50781 14.604H1.50781ZM1.50781 12.4262L1.50781 14.604L3.50781 14.604L3.50781 12.4262H1.50781ZM3.17892 10.7551C3.17892 11.1258 2.87845 11.4262 2.50781 11.4262V13.4262C3.98302 13.4262 5.17892 12.2303 5.17892 10.7551H3.17892ZM2.50781 10.084C2.87845 10.084 3.17892 10.3845 3.17892 10.7551H5.17892C5.17892 9.27991 3.98302 8.08401 2.50781 8.08401V10.084ZM1.50781 6.90625L1.50781 9.08401H3.50781L3.50781 6.90625H1.50781Z" fill="#315DE4"/>
<path d="M12.5312 4.90625V6.57736" stroke="#315DE4" stroke-width="2" stroke-linecap="round"/>
<path d="M12.5312 9.91406V11.5852" stroke="#315DE4" stroke-width="2" stroke-linecap="round" stroke-linejoin="round"/>
<path d="M12.5312 14.9297V16.6008" stroke="#315DE4" stroke-width="2" stroke-linecap="round" stroke-linejoin="round"/>
</svg>
