<svg width="11" height="11" viewBox="0 0 11 11" fill="none" xmlns="http://www.w3.org/2000/svg">
<path d="M5.2498 0.97137C5.33645 0.704661 5.71378 0.704662 5.80043 0.97137L6.76 3.92462C6.79876 4.0439 6.90991 4.12465 7.03532 4.12465H10.1406C10.421 4.12465 10.5376 4.48351 10.3107 4.64834L7.79853 6.47355C7.69706 6.54727 7.65461 6.67793 7.69336 6.79721L8.65293 9.75046C8.73959 10.0172 8.43433 10.2389 8.20746 10.0741L5.69527 8.24891C5.59381 8.17519 5.45642 8.17519 5.35496 8.24891L2.84277 10.0741C2.6159 10.239 2.31064 10.0172 2.3973 9.75046L3.35687 6.79721C3.39562 6.67793 3.35317 6.54727 3.2517 6.47355L0.739518 4.64834C0.512643 4.48351 0.629242 4.12465 0.909676 4.12465H4.01491C4.14032 4.12465 4.25147 4.0439 4.29023 3.92462L5.2498 0.97137Z" fill="#FDD836"/>
</svg>
