<svg width="18" height="18" viewBox="0 0 18 18" fill="none" xmlns="http://www.w3.org/2000/svg">
<path d="M15.5478 9.0981C15.5478 12.699 12.6287 15.6181 9.02779 15.6181V17.6181C13.7332 17.6181 17.5478 13.8036 17.5478 9.0981H15.5478ZM9.02779 15.6181C5.4269 15.6181 2.50781 12.699 2.50781 9.0981H0.507812C0.507812 13.8036 4.32234 17.6181 9.02779 17.6181V15.6181ZM2.50781 9.0981C2.50781 5.49722 5.4269 2.57812 9.02779 2.57812V0.578125C4.32234 0.578125 0.507812 4.39265 0.507812 9.0981H2.50781ZM9.02779 2.57812C12.6287 2.57812 15.5478 5.49722 15.5478 9.0981H17.5478C17.5478 4.39265 13.7332 0.578125 9.02779 0.578125V2.57812ZM11.37 9.0981C11.37 10.3917 10.3214 11.4403 9.02779 11.4403V13.4403C11.4259 13.4403 13.37 11.4962 13.37 9.0981H11.37ZM9.02779 11.4403C7.73422 11.4403 6.68558 10.3917 6.68558 9.0981H4.68558C4.68558 11.4962 6.62965 13.4403 9.02779 13.4403V11.4403ZM6.68558 9.0981C6.68558 7.80453 7.73422 6.75589 9.02779 6.75589V4.75589C6.62965 4.75589 4.68558 6.69996 4.68558 9.0981H6.68558ZM9.02779 6.75589C10.3214 6.75589 11.37 7.80453 11.37 9.0981H13.37C13.37 6.69996 11.4259 4.75589 9.02779 4.75589V6.75589ZM13.6381 3.07357L10.684 6.02769L12.0982 7.44191L15.0523 4.48778L13.6381 3.07357ZM10.684 12.1685L13.6381 15.1226L15.0523 13.7084L12.0982 10.7543L10.684 12.1685ZM7.37159 6.02769L4.41747 3.07357L3.00326 4.48778L5.95738 7.44191L7.37159 6.02769ZM5.95738 10.7543L3.00326 13.7084L4.41747 15.1226L7.37159 12.1685L5.95738 10.7543Z" fill="#315DE4"/>
</svg>
