<svg width="11" height="11" viewBox="0 0 11 11" fill="none" xmlns="http://www.w3.org/2000/svg">
<path d="M5.14774 0.971431C5.2344 0.704722 5.61172 0.704723 5.69838 0.971431L6.65795 3.92468C6.69671 4.04396 6.80786 4.12471 6.93327 4.12471H10.0385C10.3189 4.12471 10.4355 4.48357 10.2087 4.6484L7.69648 6.47361C7.59501 6.54733 7.55256 6.67799 7.59131 6.79727L8.55088 9.75052C8.63754 10.0172 8.33228 10.239 8.10541 10.0742L5.59322 8.24897C5.49176 8.17525 5.35437 8.17525 5.25291 8.24897L2.74072 10.0742C2.51385 10.239 2.20859 10.0172 2.29525 9.75052L3.25482 6.79727C3.29357 6.67799 3.25111 6.54733 3.14965 6.47361L0.637468 4.6484C0.410592 4.48357 0.527191 4.12471 0.807625 4.12471H3.91286C4.03827 4.12471 4.14942 4.04396 4.18818 3.92468L5.14774 0.971431Z" fill="#D8D8D8"/>
</svg>
