<svg width="14" height="13" viewBox="0 0 14 13" fill="none" xmlns="http://www.w3.org/2000/svg">
<path d="M0.833332 0.664062C0.373095 0.664062 0 1.03716 0 1.4974C0 1.95763 0.373095 2.33073 0.833332 2.33073H9.99998C10.4602 2.33073 10.8333 1.95763 10.8333 1.4974C10.8333 1.03716 10.4602 0.664062 9.99998 0.664062H0.833332Z" fill="#68707D"/>
<path d="M0.833332 3.9974C0.373095 3.9974 0 4.37049 0 4.83073C0 5.29097 0.373095 5.66406 0.833332 5.66406H6.66666C7.12689 5.66406 7.49999 5.29097 7.49999 4.83073C7.49999 4.37049 7.12689 3.9974 6.66666 3.9974H0.833332Z" fill="#68707D"/>
<path d="M0.833332 7.33073C0.373095 7.33073 0 7.70383 0 8.16406C0 8.6243 0.373095 8.9974 0.833332 8.9974H4.16666C4.6269 8.9974 4.99999 8.6243 4.99999 8.16406C4.99999 7.70383 4.6269 7.33073 4.16666 7.33073H0.833332Z" fill="#68707D"/>
<path d="M10.8333 4.83073C10.8333 4.37049 10.4602 3.9974 9.99999 3.9974C9.53975 3.9974 9.16665 4.37049 9.16665 4.83073L9.16665 9.48555L8.08924 8.40814C7.76381 8.0827 7.23617 8.0827 6.91073 8.40814C6.5853 8.73358 6.5853 9.26121 6.91073 9.58665L9.41073 12.0867C9.56701 12.2429 9.77897 12.3307 9.99998 12.3307C10.221 12.3307 10.433 12.2429 10.5892 12.0867L13.0892 9.58665C13.4147 9.26121 13.4147 8.73358 13.0892 8.40814C12.7638 8.0827 12.2362 8.0827 11.9107 8.40814L10.8333 9.48555L10.8333 4.83073Z" fill="#68707D"/>
</svg>
