<svg width="18" height="16" viewBox="0 0 18 16" fill="none" xmlns="http://www.w3.org/2000/svg">
<path d="M17.1371 7.29527L10.4527 0.61085C10.3359 0.494032 10.187 0.414482 10.0249 0.382256C9.86288 0.350031 9.69491 0.366578 9.54225 0.429804C9.3896 0.49303 9.25911 0.600098 9.1673 0.737471C9.07549 0.874844 9.02646 1.03635 9.02643 1.20159V4.16362C6.74394 4.37484 4.62242 5.4302 3.07703 7.12317C1.53165 8.81614 0.673632 11.0249 0.670898 13.3171V14.5704C0.67103 14.7439 0.725134 14.913 0.825705 15.0543C0.926276 15.1956 1.06833 15.3021 1.23216 15.359C1.39599 15.416 1.57348 15.4205 1.74001 15.372C1.90654 15.3236 2.05386 15.2245 2.16152 15.0885C2.98011 14.115 3.9845 13.3145 5.11599 12.7336C6.24749 12.1527 7.4834 11.8031 8.75153 11.7053C8.79331 11.7003 8.89775 11.692 9.02643 11.6836V14.5704C9.02646 14.7357 9.07549 14.8972 9.1673 15.0345C9.25911 15.1719 9.3896 15.279 9.54225 15.3422C9.69491 15.4054 9.86288 15.422 10.0249 15.3898C10.187 15.3575 10.3359 15.278 10.4527 15.1612L17.1371 8.47674C17.2938 8.32006 17.3818 8.10757 17.3818 7.88601C17.3818 7.66445 17.2938 7.45196 17.1371 7.29527ZM10.6975 12.5534V10.8104C10.6975 10.5888 10.6095 10.3763 10.4528 10.2196C10.2961 10.0629 10.0836 9.97489 9.86198 9.97489C9.64891 9.97489 8.7791 10.0167 8.55685 10.0459C6.30492 10.2534 4.16135 11.109 2.38545 12.5091C2.58702 10.6663 3.46126 8.96249 4.84077 7.72404C6.22028 6.4856 8.00812 5.7995 9.86198 5.79713C10.0836 5.79713 10.2961 5.70909 10.4528 5.5524C10.6095 5.3957 10.6975 5.18318 10.6975 4.96157V3.21861L15.3649 7.88601L10.6975 12.5534Z" fill="#68707D"/>
</svg>
