<svg width="13" height="11" viewBox="0 0 13 11" fill="none" xmlns="http://www.w3.org/2000/svg">
<path d="M7.125 8V1.75C7.125 1.40482 6.84518 1.125 6.5 1.125H1.5C1.15482 1.125 0.875 1.40482 0.875 1.75V8C0.875 8.34518 1.15482 8.625 1.5 8.625H2.125M7.125 8C7.125 8.34518 6.84518 8.625 6.5 8.625H4.625M7.125 8L7.125 3C7.125 2.65482 7.40482 2.375 7.75 2.375H9.36612C9.53188 2.375 9.69085 2.44085 9.80806 2.55806L11.9419 4.69194C12.0592 4.80915 12.125 4.96812 12.125 5.13388V8C12.125 8.34518 11.8452 8.625 11.5 8.625H10.875M7.125 8C7.125 8.34518 7.40482 8.625 7.75 8.625H8.375M2.125 8.625C2.125 9.31536 2.68464 9.875 3.375 9.875C4.06536 9.875 4.625 9.31536 4.625 8.625M2.125 8.625C2.125 7.93464 2.68464 7.375 3.375 7.375C4.06536 7.375 4.625 7.93464 4.625 8.625M8.375 8.625C8.375 9.31536 8.93464 9.875 9.625 9.875C10.3154 9.875 10.875 9.31536 10.875 8.625M8.375 8.625C8.375 7.93464 8.93464 7.375 9.625 7.375C10.3154 7.375 10.875 7.93464 10.875 8.625" stroke="#505762" stroke-width="1.25"/>
</svg>
