<svg width="16" height="18" viewBox="0 0 16 18" fill="none" xmlns="http://www.w3.org/2000/svg">
<path d="M4.68596 4.92034V11.6048C4.68596 12.5277 5.43414 13.2759 6.35707 13.2759H11.3704M4.68596 4.92034V3.24923C4.68596 2.3263 5.43414 1.57812 6.35707 1.57812H10.1887C10.4103 1.57812 10.6229 1.66616 10.7796 1.82285L14.4679 5.51116C14.6246 5.66786 14.7126 5.88038 14.7126 6.10199V11.6048C14.7126 12.5277 13.9644 13.2759 13.0415 13.2759H11.3704M4.68596 4.92034H3.34375C2.23918 4.92034 1.34375 5.81577 1.34375 6.92034V14.947C1.34375 15.8699 2.09193 16.6181 3.01486 16.6181H9.37038C10.475 16.6181 11.3704 15.7226 11.3704 14.6181V13.2759" stroke="#315DE4" stroke-width="2" stroke-linecap="round" stroke-linejoin="round"/>
</svg>
