<svg width="26" height="27" viewBox="0 0 26 27" fill="none" xmlns="http://www.w3.org/2000/svg">
<rect x="0.378676" y="0.63185" width="25.2435" height="25.2435" rx="12.6218" fill="white" stroke="#D6DAE1" stroke-width="0.382353"/>
<path d="M7.48443 13.0909H7.49208M12.8374 13.0909H12.845M18.1903 13.0909H18.198M8.24914 13.0909C8.24914 13.5132 7.90677 13.8556 7.48443 13.8556C7.0621 13.8556 6.71973 13.5132 6.71973 13.0909C6.71973 12.6685 7.0621 12.3262 7.48443 12.3262C7.90677 12.3262 8.24914 12.6685 8.24914 13.0909ZM13.6021 13.0909C13.6021 13.5132 13.2597 13.8556 12.8374 13.8556C12.415 13.8556 12.0727 13.5132 12.0727 13.0909C12.0727 12.6685 12.415 12.3262 12.8374 12.3262C13.2597 12.3262 13.6021 12.6685 13.6021 13.0909ZM18.955 13.0909C18.955 13.5132 18.6127 13.8556 18.1903 13.8556C17.768 13.8556 17.4256 13.5132 17.4256 13.0909C17.4256 12.6685 17.768 12.3262 18.1903 12.3262C18.6127 12.3262 18.955 12.6685 18.955 13.0909Z" stroke="#68707D" stroke-width="1.83042" stroke-linecap="round" stroke-linejoin="round"/>
</svg>
