<svg width="21" height="18" viewBox="0 0 21 18" fill="none" xmlns="http://www.w3.org/2000/svg">
<path d="M1.5 6C1.5 4.89543 2.39543 4 3.5 4H4.42963C5.09834 4 5.7228 3.6658 6.09373 3.1094L6.90627 1.8906C7.2772 1.3342 7.90166 1 8.57037 1H12.4296C13.0983 1 13.7228 1.3342 14.0937 1.8906L14.9063 3.1094C15.2772 3.6658 15.9017 4 16.5704 4H17.5C18.6046 4 19.5 4.89543 19.5 6V15C19.5 16.1046 18.6046 17 17.5 17H3.5C2.39543 17 1.5 16.1046 1.5 15V6Z" stroke="#383E47" stroke-width="2" stroke-linecap="round" stroke-linejoin="round"/>
<path d="M13.5 10C13.5 11.6569 12.1569 13 10.5 13C8.84315 13 7.5 11.6569 7.5 10C7.5 8.34315 8.84315 7 10.5 7C12.1569 7 13.5 8.34315 13.5 10Z" stroke="#383E47" stroke-width="2" stroke-linecap="round" stroke-linejoin="round"/>
</svg>
