<svg width="24" height="24" viewBox="0 0 24 24" fill="none" xmlns="http://www.w3.org/2000/svg">
<path fill-rule="evenodd" clip-rule="evenodd" d="M12 23.7857C18.0751 23.7857 23 18.8608 23 12.7857C23 6.71057 18.0751 1.78571 12 1.78571C5.92487 1.78571 1 6.71057 1 12.7857C1 14.7585 1.51935 16.6101 2.4288 18.211L1 23.7857L6.74739 22.453C8.30822 23.3028 10.0977 23.7857 12 23.7857ZM12 22.0934C17.1405 22.0934 21.3077 17.9262 21.3077 12.7857C21.3077 7.64521 17.1405 3.47801 12 3.47801C6.8595 3.47801 2.69231 7.64521 2.69231 12.7857C2.69231 14.7705 3.31354 16.6101 4.37216 18.1209L3.53846 21.2472L6.71994 20.4519C8.22021 21.4871 10.0393 22.0934 12 22.0934Z" fill="#BFC8D0"/>
<path d="M21.4284 12C21.4284 17.2072 17.2071 21.4286 11.9999 21.4286C10.0137 21.4286 8.17099 20.8144 6.65123 19.7657L3.42843 20.5714L4.27296 17.4044C3.20059 15.8741 2.57129 14.0105 2.57129 12C2.57129 6.79273 6.7926 2.57141 11.9999 2.57141C17.2071 2.57141 21.4284 6.79273 21.4284 12Z" fill="url(#paint0_linear_154_3446)"/>
<path fill-rule="evenodd" clip-rule="evenodd" d="M12 23C18.0751 23 23 18.0751 23 12C23 5.92487 18.0751 1 12 1C5.92487 1 1 5.92487 1 12C1 13.9728 1.51935 15.8244 2.4288 17.4253L1 23L6.74739 21.6673C8.30822 22.5171 10.0977 23 12 23ZM12 21.3077C17.1405 21.3077 21.3077 17.1405 21.3077 12C21.3077 6.8595 17.1405 2.69231 12 2.69231C6.8595 2.69231 2.69231 6.8595 2.69231 12C2.69231 13.9848 3.31354 15.8244 4.37216 17.3352L3.53846 20.4615L6.71994 19.6662C8.22021 20.7014 10.0393 21.3077 12 21.3077Z" fill="white"/>
<path d="M9.25002 6.8927C8.98848 6.36739 8.58727 6.41389 8.18196 6.41389C7.4576 6.41389 6.32812 7.28154 6.32812 8.89632C6.32813 10.2197 6.91128 11.6684 8.87633 13.8355C10.7727 15.9268 13.2645 17.0087 15.3332 16.9719C17.4018 16.9351 17.8274 15.1549 17.8274 14.5538C17.8274 14.2873 17.6621 14.1544 17.5481 14.1182C16.8432 13.7799 15.5431 13.1495 15.2472 13.0311C14.9514 12.9127 14.7969 13.0729 14.7009 13.16C14.4326 13.4157 13.9008 14.1691 13.7188 14.3386C13.5367 14.508 13.2652 14.4223 13.1523 14.3582C12.7366 14.1914 11.6094 13.6901 10.711 12.8191C9.5999 11.742 9.53469 11.3715 9.32535 11.0416C9.15788 10.7777 9.28077 10.6158 9.34209 10.545C9.58149 10.2688 9.91205 9.84235 10.0603 9.63042C10.2085 9.41849 10.0908 9.09673 10.0202 8.89633C9.71654 8.03444 9.45925 7.31295 9.25002 6.8927Z" fill="white"/>
<defs>
<linearGradient id="paint0_linear_154_3446" x1="20.2499" y1="4.92855" x2="2.57129" y2="21.4286" gradientUnits="userSpaceOnUse">
<stop stop-color="#5BD066"/>
<stop offset="1" stop-color="#27B43E"/>
</linearGradient>
</defs>
</svg>
