<svg width="21" height="21" viewBox="0 0 21 21" fill="none" xmlns="http://www.w3.org/2000/svg">
<path fill-rule="evenodd" clip-rule="evenodd" d="M10.4987 20.3177C15.5613 20.3177 19.6654 16.2136 19.6654 11.151C19.6654 6.08843 15.5613 1.98438 10.4987 1.98438C5.43609 1.98438 1.33203 6.08843 1.33203 11.151C1.33203 12.7951 1.76483 14.338 2.5227 15.6722L1.33203 20.3177L6.12152 19.2071C7.42222 19.9153 8.91347 20.3177 10.4987 20.3177ZM10.4987 18.9074C14.7824 18.9074 18.2551 15.4348 18.2551 11.151C18.2551 6.86729 14.7824 3.39463 10.4987 3.39463C6.21495 3.39463 2.74229 6.86729 2.74229 11.151C2.74229 12.805 3.25998 14.3381 4.14216 15.597L3.44742 18.2023L6.09865 17.5395C7.34888 18.4022 8.86479 18.9074 10.4987 18.9074Z" fill="#BFC8D0"/>
<path d="M18.3588 10.4978C18.3588 14.8371 14.8411 18.3549 10.5017 18.3549C8.84655 18.3549 7.31095 17.8431 6.04449 16.9692L3.35882 17.6406L4.06259 15.0015C3.16895 13.7262 2.64453 12.1732 2.64453 10.4978C2.64453 6.15839 6.16229 2.64062 10.5017 2.64062C14.8411 2.64062 18.3588 6.15839 18.3588 10.4978Z" fill="url(#paint0_linear_1542_38654)"/>
<path fill-rule="evenodd" clip-rule="evenodd" d="M10.4987 19.6693C15.5613 19.6693 19.6654 15.5652 19.6654 10.5026C19.6654 5.43999 15.5613 1.33594 10.4987 1.33594C5.43609 1.33594 1.33203 5.43999 1.33203 10.5026C1.33203 12.1466 1.76483 13.6896 2.5227 15.0237L1.33203 19.6693L6.12152 18.5587C7.42222 19.2669 8.91347 19.6693 10.4987 19.6693ZM10.4987 18.259C14.7824 18.259 18.2551 14.7864 18.2551 10.5026C18.2551 6.21886 14.7824 2.74619 10.4987 2.74619C6.21495 2.74619 2.74229 6.21886 2.74229 10.5026C2.74229 12.1566 3.25998 13.6896 4.14216 14.9486L3.44742 17.5539L6.09865 16.8911C7.34888 17.7538 8.86479 18.259 10.4987 18.259Z" fill="white"/>
<path d="M8.20835 6.24363C7.9904 5.80587 7.65606 5.84463 7.3183 5.84463C6.71467 5.84463 5.77344 6.56767 5.77344 7.91332C5.77344 9.01615 6.2594 10.2234 7.89694 12.0293C9.47729 13.7721 11.5538 14.6736 13.2776 14.643C15.0015 14.6123 15.3562 13.1288 15.3562 12.6278C15.3562 12.4058 15.2184 12.295 15.1235 12.2649C14.536 11.983 13.4525 11.4577 13.206 11.359C12.9595 11.2603 12.8308 11.3938 12.7508 11.4664C12.5272 11.6794 12.084 12.3073 11.9323 12.4485C11.7806 12.5898 11.5544 12.5183 11.4602 12.4649C11.1138 12.3259 10.1745 11.9081 9.42584 11.1823C8.49991 10.2847 8.44557 9.97594 8.27113 9.70105C8.13157 9.48114 8.23398 9.34621 8.28508 9.28725C8.48458 9.05706 8.76004 8.70167 8.88357 8.52507C9.0071 8.34846 8.90904 8.08032 8.85019 7.91332C8.59711 7.19508 8.38271 6.59384 8.20835 6.24363Z" fill="white"/>
<defs>
<linearGradient id="paint0_linear_1542_38654" x1="17.3767" y1="4.60491" x2="2.64453" y2="18.3549" gradientUnits="userSpaceOnUse">
<stop stop-color="#5BD066"/>
<stop offset="1" stop-color="#27B43E"/>
</linearGradient>
</defs>
</svg>
