<svg width="17" height="14" viewBox="0 0 17 14" fill="none" xmlns="http://www.w3.org/2000/svg">
<path d="M13.7282 0.203125C14.1714 0.203125 14.5965 0.379187 14.9099 0.69258C15.2233 1.00597 15.3993 1.43103 15.3993 1.87423V3.76926C15.6534 3.91593 15.8643 4.12688 16.011 4.38091C16.1577 4.63495 16.2349 4.92311 16.2349 5.21644V8.55865C16.2349 8.85199 16.1577 9.14015 16.011 9.39418C15.8643 9.64821 15.6534 9.85917 15.3993 10.0058V11.9009C15.3993 12.3441 15.2233 12.7691 14.9099 13.0825C14.5965 13.3959 14.1714 13.572 13.7282 13.572H2.03048C1.58728 13.572 1.16222 13.3959 0.84883 13.0825C0.535437 12.7691 0.359375 12.3441 0.359375 11.9009V1.87423C0.359375 1.43103 0.535437 1.00597 0.84883 0.69258C1.16222 0.379187 1.58728 0.203125 2.03048 0.203125H13.7282ZM13.7282 1.87423H2.03048V11.9009H13.7282V10.2298H10.386C9.51406 10.2298 8.67664 9.88903 8.05241 9.28023C7.42819 8.67144 7.0666 7.8428 7.04479 6.97113C7.02298 6.09946 7.34269 5.25378 7.9357 4.61453C8.5287 3.97529 9.34804 3.5931 10.2189 3.54951L10.386 3.54534H13.7282V1.87423ZM14.5638 5.21644H10.386C9.9428 5.21644 9.51775 5.39251 9.20436 5.7059C8.89097 6.01929 8.7149 6.44434 8.7149 6.88755C8.7149 7.33075 8.89097 7.7558 9.20436 8.0692C9.51775 8.38259 9.9428 8.55865 10.386 8.55865H14.5638V5.21644ZM11.2216 6.052C11.4432 6.052 11.6557 6.14003 11.8124 6.29672C11.9691 6.45342 12.0571 6.66595 12.0571 6.88755C12.0571 7.10915 11.9691 7.32168 11.8124 7.47837C11.6557 7.63507 11.4432 7.7231 11.2216 7.7231C11 7.7231 10.7874 7.63507 10.6307 7.47837C10.474 7.32168 10.386 7.10915 10.386 6.88755C10.386 6.66595 10.474 6.45342 10.6307 6.29672C10.7874 6.14003 11 6.052 11.2216 6.052Z" fill="#315DE4"/>
</svg>
