<svg width="360" height="270" viewBox="0 0 360 270" fill="none" xmlns="http://www.w3.org/2000/svg">
<path d="M104.975 249.07H327.277C347.749 213.855 356.36 171.859 351.333 131.429C349.647 117.866 346.366 104.213 339.101 92.6382C331.835 81.0638 320.102 71.7423 306.562 69.875C289.152 67.4785 272.731 77.2536 256.077 82.8555C231.189 91.2244 203.731 90.3172 178.496 83.0596C150.902 75.1292 124.555 59.7068 95.8576 60.6594C69.753 61.5288 45.2661 76.6261 29.8286 97.7034C14.3911 118.773 7.4132 145.218 6.7328 171.33C6.0524 197.442 11.3368 223.381 18.5793 248.48L104.983 249.077L104.975 249.07Z" fill="#3F68E9"/>
<path d="M55.1915 67.3274C63.2353 62.1412 72.2695 58.2781 81.78 57.197C84.9552 56.8341 88.6898 56.4939 90.3455 53.7572C91.7214 51.4816 90.8973 48.3669 89.0452 46.4467C87.2005 44.534 84.5696 43.589 81.9841 42.9539C68.8675 39.7334 54.6925 43.0447 43.1786 50.1133C38.9072 52.7366 34.9004 55.8967 31.8537 59.8808C28.8071 63.8649 26.7583 68.7184 26.66 73.7307C26.6071 76.3389 27.1061 79.0076 28.414 81.2605C29.5177 83.158 31.5665 85.6528 33.9554 84.7305C36.3217 83.8157 38.6804 80.4591 40.5477 78.7657C45.1442 74.6077 49.9675 70.6991 55.1839 67.3349L55.1915 67.3274Z" fill="#3F68E9"/>
<path d="M277.547 268.348H276.209L297.407 249.032H298.745L277.547 268.348Z" fill="#F58249"/>
<path d="M210.195 269.445L211.397 268.349H277.547L276.353 269.445H210.195Z" fill="#F58249"/>
<path d="M297.409 249.032L280.512 264.432L276.21 268.348H211.398L221.234 259.389L232.589 249.032H297.409Z" fill="#EDB320"/>
<g style="mix-blend-mode:screen" opacity="0.5">
<path d="M280.512 264.433L276.21 268.349H211.391L221.226 259.39C226.662 258.211 232.468 258.196 238.077 258.286C248.283 258.453 258.542 258.793 268.574 260.69C272.642 261.461 276.807 262.595 280.512 264.433Z" fill="#F5AD49"/>
</g>
<path d="M325.586 15.6846H207.461V242.772H325.586V15.6846Z" fill="#3F68E9"/>
<path d="M319.07 24.6357H213.971V242.772H319.07V24.6357Z" fill="#1C484F"/>
<g style="mix-blend-mode:multiply" opacity="0.5">
<path d="M319.07 212.744H213.971V242.772H319.07V212.744Z" fill="#1F4F57"/>
</g>
<path d="M254.475 220.326L319.097 242.772V24.6357L254.475 31.6363V220.326Z" fill="#E6E6E6"/>
<path d="M258.367 58.4209V40.4205L313.911 35.6729V55.9866L313.623 56.0017L258.367 58.4285V58.4209ZM258.972 40.98V57.7934L313.306 55.4045V36.3306L258.972 40.98Z" fill="#3F68E9"/>
<path d="M313.911 232.822L313.517 232.694L258.367 214.527V165.803L313.911 177.71V232.83V232.822ZM258.972 214.088L313.306 231.991V178.194L258.972 166.544V214.088Z" fill="#3F68E9"/>
<path d="M313.911 158.137L286.105 153.359V66.0943L313.911 65.4668V158.137ZM286.71 152.853L313.306 157.419V66.0867L286.71 66.6915V152.853Z" fill="#3F68E9"/>
<path d="M282.801 152.793L258.359 148.597V66.7296L282.801 66.1777V152.8V152.793ZM258.964 148.083L282.196 152.074V66.7901L258.964 67.3117V148.083Z" fill="#3F68E9"/>
<path d="M294.073 167.118L275.264 163.375V156.224L294.073 159.686V167.125V167.118ZM275.868 162.876L293.468 166.377V160.178L275.868 156.934V162.869V162.876Z" fill="#3F68E9"/>
<path d="M3.81641 248.874H349.324" stroke="#1C484F" stroke-width="0.756" stroke-miterlimit="10"/>
<path style="mix-blend-mode:multiply" opacity="0.5" d="M82.6364 248.066L50.1511 267.465H0.701172L37.7905 246.456L82.6364 248.066Z" fill="url(#paint0_linear_1_38198)"/>
<path d="M82.6384 202.336V206.071H26.7852L35.842 203.016L37.8681 202.336H82.6384Z" fill="#C7762F"/>
<path d="M75.2901 206.069H26.7852V252.321H75.2901V206.069Z" fill="#EDB320"/>
<path d="M49.3525 245.034H28.9707V247.869H49.3525V245.034Z" fill="#C7762F"/>
<path d="M42.6467 241.746H28.9707V243.81H42.6467V241.746Z" fill="#C7762F"/>
<path d="M71.5509 212.745C71.5509 214.794 69.8877 216.457 67.8389 216.457C65.7902 216.457 64.127 214.794 64.127 212.745C64.127 210.696 65.7902 209.033 67.8389 209.033C69.8877 209.033 71.5509 210.696 71.5509 212.745Z" fill="#C7762F"/>
<g style="mix-blend-mode:screen" opacity="0.5">
<path d="M26.7803 252.321H28.9727L28.9727 206.069H26.7803L26.7803 252.321Z" fill="#F5AD49"/>
</g>
<path d="M82.6413 202.336V248.066L75.293 252.323V206.071L77.251 205.08L82.6413 202.336Z" fill="#EDB320"/>
<g style="mix-blend-mode:multiply" opacity="0.5">
<path d="M82.6413 239.493V248.066L75.293 252.322V206.07L77.2586 205.072C77.0696 212.103 77.372 219.149 78.1733 226.135C78.5513 229.431 79.0578 232.765 80.396 235.796C80.9781 237.112 81.7265 238.374 82.6413 239.486V239.493Z" fill="#E38C3B"/>
</g>
<g style="mix-blend-mode:multiply" opacity="0.5">
<path d="M82.6382 202.336V202.85C61.6365 205.549 43.8932 204.037 35.8418 203.016L37.8679 202.328H82.6382V202.336Z" fill="#C7762F"/>
</g>
<path d="M75.2895 169.306V172.057H34.1328L40.8083 169.805L42.2976 169.306H75.2895Z" fill="#C7762F"/>
<path d="M69.8689 172.058H34.1328V206.131H69.8689V172.058Z" fill="#EDB320"/>
<path d="M50.7661 200.762H35.752V202.856H50.7661V200.762Z" fill="#C7762F"/>
<path d="M45.8294 198.336H35.752V199.856H45.8294V198.336Z" fill="#C7762F"/>
<path d="M67.1185 176.98C67.1185 178.492 65.8938 179.709 64.3893 179.709C62.8849 179.709 61.6602 178.485 61.6602 176.98C61.6602 175.476 62.8849 174.251 64.3893 174.251C65.8938 174.251 67.1185 175.476 67.1185 176.98Z" fill="#C7762F"/>
<g style="mix-blend-mode:screen" opacity="0.5">
<path d="M34.1417 206.138H35.752L35.752 172.065H34.1417L34.1417 206.138Z" fill="#F5AD49"/>
</g>
<path d="M75.2897 169.306V203.001L69.8691 206.138V172.057L71.3207 171.324L75.2897 169.306Z" fill="#EDB320"/>
<g style="mix-blend-mode:multiply" opacity="0.5">
<path d="M75.2899 196.681V203.001L69.877 206.138V172.065L71.3209 171.332C71.1848 176.518 71.4041 181.704 71.9937 186.853C72.2735 189.279 72.6439 191.736 73.6267 193.974C74.0501 194.949 74.6095 195.872 75.2824 196.696L75.2899 196.681Z" fill="#E38C3B"/>
</g>
<g style="mix-blend-mode:multiply" opacity="0.5">
<path d="M75.2898 169.306V169.684C59.8144 171.673 46.7432 170.561 40.8086 169.805L42.2979 169.299H75.2822L75.2898 169.306Z" fill="#C7762F"/>
</g>
<path d="M287.24 140.812C289.977 143.7 292.532 146.77 294.898 149.975C297.257 153.188 299.419 156.545 301.415 160C305.407 166.917 308.657 174.243 311.371 181.742C314.04 189.265 316.187 196.968 317.926 204.747C318.795 208.641 319.574 212.549 320.285 216.465C320.98 220.389 321.615 224.32 322.22 228.259L321.124 228.433C320.481 224.509 319.801 220.593 319.06 216.692C318.334 212.784 317.556 208.89 316.694 205.02C314.963 197.278 312.929 189.597 310.321 182.105C307.758 174.606 304.605 167.295 300.795 160.34C298.898 156.855 296.819 153.468 294.558 150.21C292.313 146.936 289.871 143.791 287.232 140.812H287.24Z" fill="#1C2540"/>
<path d="M309.322 113.241C313.004 122.124 316.686 131.023 319.445 140.253C320.141 142.559 320.768 144.88 321.32 147.224C321.607 148.395 321.849 149.575 322.099 150.754C322.325 151.934 322.522 153.128 322.734 154.307C323.505 159.063 324.049 163.856 324.299 168.664C324.866 178.28 324.669 187.919 324.631 197.528C324.616 202.336 324.639 207.137 324.805 211.93C324.994 216.723 325.342 221.508 325.924 226.263L324.82 226.4C324.284 221.599 323.981 216.783 323.83 211.967C323.709 207.152 323.732 202.336 323.792 197.52C323.928 187.904 324.215 178.288 323.739 168.694C323.535 163.893 323.036 159.116 322.318 154.375C322.114 153.196 321.932 152.009 321.721 150.83C321.486 149.65 321.252 148.479 320.98 147.307C320.451 144.963 319.846 142.642 319.181 140.336C316.519 131.098 312.921 122.162 309.33 113.241H309.322Z" fill="#1C2540"/>
<path d="M354.501 142.597C335.949 165.723 326.628 195.932 328.85 225.356L327.739 225.432C325.864 195.698 335.662 165.496 354.494 142.597H354.501Z" fill="#1C2540"/>
<path d="M332.469 250.803H313.698C311.921 250.803 310.439 249.457 310.273 247.688L308.156 225.401H338.003L335.886 247.688C335.72 249.457 334.238 250.803 332.462 250.803H332.469Z" fill="#E9574E"/>
<g style="mix-blend-mode:multiply" opacity="0.5">
<path d="M337.383 232.001L338.011 225.401H308.156L308.784 232.001H337.383Z" fill="#871A1A"/>
</g>
<path d="M339.864 220.956H306.305V227.072H339.864V220.956Z" fill="#E9574E"/>
<path d="M358.387 147.479C357.336 149.385 355.658 150.859 354.123 152.409C353.36 153.18 352.626 153.981 351.923 154.805C349.149 158.048 346.85 161.692 345.104 165.593C343.826 168.443 342.844 171.429 342.193 174.491C342.14 174.733 342.095 174.975 342.042 175.217C341.226 179.383 340.916 183.662 339.683 187.736C339.411 188.628 338.912 189.959 338.232 191.35C336.682 194.525 334.18 198.018 331.322 197.27C330.967 197.186 330.604 197.028 330.241 196.793C329.515 196.34 328.926 195.712 328.449 194.979C326.733 192.333 326.446 188.235 326.68 185.128C326.726 184.516 326.794 183.949 326.869 183.435C327.406 179.927 328.653 176.593 329.976 173.282C330.536 171.876 331.126 170.477 331.67 169.071C332.69 166.447 333.605 163.771 334.588 161.133C335.609 158.373 336.69 155.637 338.028 153.021C339.071 150.965 340.303 148.969 341.732 147.147C343.872 144.418 346.45 142.074 349.542 140.524C350.993 139.798 352.581 139.247 354.206 139.269C355.832 139.299 357.502 139.965 358.455 141.28C359.733 143.049 359.438 145.567 358.379 147.479H358.387Z" fill="#6BD5B1"/>
<g style="mix-blend-mode:screen" opacity="0.19">
<path d="M358.388 147.48C357.337 149.385 355.659 150.859 354.125 152.409C353.361 153.18 352.628 153.981 351.925 154.806C351.327 155.1 350.73 155.41 350.14 155.743C347.872 157.058 345.725 158.979 345.128 161.534C344.818 162.857 344.947 164.225 345.098 165.586C343.82 168.436 342.837 171.422 342.187 174.484C342.134 174.726 342.089 174.968 342.036 175.21C340.305 177.206 338.377 179.118 337.621 181.598C337.031 183.549 337.228 185.635 337.576 187.639C337.787 188.871 338.052 190.096 338.218 191.335C336.668 194.511 334.166 198.003 331.308 197.255C330.953 197.172 330.59 197.013 330.227 196.779C329.502 196.325 328.912 195.698 328.436 194.964C326.72 192.318 326.432 188.221 326.667 185.114C327.899 183.791 329.441 182.702 330.242 181.084C331.445 178.672 330.673 175.989 329.963 173.267C330.522 171.861 331.112 170.462 331.656 169.056C332.677 166.433 333.592 163.757 334.574 161.118C336.638 159.719 338.778 158.336 339.965 156.234C341.288 153.876 341.182 151.018 341.53 148.334C341.582 147.933 341.643 147.533 341.719 147.132C343.858 144.403 346.436 142.059 349.528 140.51C350.98 139.784 352.567 139.232 354.193 139.255C355.818 139.285 357.489 139.95 358.441 141.266C359.719 143.035 359.424 145.552 358.366 147.465L358.388 147.48Z" fill="#AFE9D6"/>
</g>
<path d="M329.953 159.433C329.787 162.691 330.286 165.942 330.467 169.2C330.498 169.82 330.528 170.433 330.528 171.053C330.551 173.721 330.241 176.398 329.114 178.786C327.701 181.795 323.543 185.976 320.382 182.975C319.196 181.856 318.349 180.442 317.759 178.892C316.723 176.186 316.466 173.071 316.55 170.38C316.663 166.675 317.306 162.948 317.253 159.259C317.245 158.148 317.169 157.036 316.996 155.933C316.799 154.67 316.481 153.445 316.081 152.251C313.881 145.742 309.05 140.147 306.283 133.736C305.678 132.33 305.179 130.886 304.779 129.42C303.531 124.793 303.297 119.894 304.128 115.177C304.242 114.519 304.378 113.869 304.537 113.226C305.225 110.391 306.759 107.246 309.541 106.588C309.647 106.558 309.761 106.536 309.866 106.52C312.943 106.029 315.514 108.773 317.26 111.359C319.294 114.368 321.086 117.528 322.794 120.733C323.55 122.139 324.283 123.553 325.017 124.967C327.3 129.352 329.613 133.895 330.861 138.628C331.481 141.002 331.843 143.413 331.79 145.878V146.037C331.662 150.55 330.165 154.935 329.931 159.44L329.953 159.433Z" fill="#6BD5B1"/>
<g style="mix-blend-mode:screen" opacity="0.19">
<path d="M330.151 169.617C330.287 170.093 330.415 170.569 330.536 171.053C330.559 173.722 330.249 176.398 329.123 178.787C327.709 181.796 323.551 185.977 320.391 182.975C319.204 181.857 318.357 180.443 317.767 178.893C318.599 178.81 319.363 178.507 320.028 177.888C321.117 176.867 321.631 175.37 321.789 173.881C322.326 168.748 319.068 164.159 317.268 159.252C317.261 158.141 317.185 157.03 317.011 155.926C316.815 154.663 316.497 153.439 316.097 152.244C316.172 147.459 317.352 142.492 314.917 138.47C312.551 134.576 307.524 133.034 304.802 129.413C303.555 124.786 303.32 119.887 304.152 115.17C304.265 114.837 304.379 114.505 304.5 114.187C305.263 112.138 306.155 110.097 307.554 108.419C308.136 107.723 308.809 107.096 309.557 106.582C309.663 106.551 309.777 106.529 309.882 106.514C312.959 106.022 315.53 108.766 317.276 111.352C319.31 114.361 321.101 117.521 322.81 120.726C322.825 121.331 322.84 121.936 322.863 122.541C322.984 126.268 323.43 130.199 325.637 133.2C326.915 134.924 328.677 136.217 330.143 137.774C330.4 138.039 330.642 138.326 330.876 138.621C331.496 140.995 331.859 143.406 331.806 145.871C331.413 146.642 330.929 147.375 330.498 148.124C328.488 151.617 327.558 155.729 327.868 159.751C328.132 163.123 329.228 166.366 330.143 169.617H330.151Z" fill="#AFE9D6"/>
</g>
<path d="M319.974 187.405C319.959 187.707 319.936 188.017 319.906 188.32C319.679 190.845 319.142 196.757 315.892 197.339C313.586 197.747 310.237 193.702 308.4 192.425C307.371 191.714 306.313 191.003 305.308 190.24C303.697 189.03 302.2 187.685 301.104 185.968C300.099 184.396 299.524 182.657 299.154 180.843C298.556 177.962 298.458 174.885 297.921 171.975C297.679 170.675 297.354 169.404 296.946 168.157C295.457 163.591 292.932 159.395 289.999 155.471C288.555 153.528 287.012 151.654 285.44 149.832C284.896 149.204 284.344 148.554 283.807 147.881C281.962 145.53 280.397 142.929 280.685 140.041C281.055 136.299 284.744 133.434 288.502 133.26C292.259 133.079 295.85 135.15 298.299 138.008C299.002 138.817 299.615 139.694 300.167 140.608C301.55 142.892 302.541 145.439 303.38 147.995C303.977 149.816 304.521 151.654 305.119 153.476C305.701 155.222 306.328 156.961 307.129 158.616C307.938 160.317 308.914 161.92 309.949 163.493C312.089 166.728 314.508 169.798 316.421 173.132C317.146 174.386 317.797 175.679 318.326 177.032C319.626 180.314 320.163 183.874 319.974 187.397V187.405Z" fill="#6BD5B1"/>
<g style="mix-blend-mode:screen" opacity="0.19">
<path d="M319.973 187.404C319.958 187.707 319.935 188.017 319.905 188.319C319.678 190.844 319.142 196.756 315.891 197.338C313.585 197.746 310.236 193.702 308.399 192.424C307.371 191.713 306.312 191.003 305.307 190.239C305.7 188.319 306.055 186.285 305.148 184.577C304.029 182.46 301.489 181.742 299.145 180.842C298.548 177.962 298.45 174.885 297.913 171.974C297.671 170.674 297.346 169.404 296.938 168.156C297.603 166.871 298.231 165.571 298.639 164.18C299.463 161.39 299.108 157.928 296.734 156.242C294.995 155.01 292.674 155.063 290.565 155.38C290.376 155.41 290.179 155.441 289.983 155.478C288.539 153.535 286.996 151.661 285.424 149.839C284.88 149.211 284.328 148.561 283.791 147.888C286.671 145.62 289.915 143.783 293.339 142.475C295.449 141.666 297.633 141.061 299.864 140.668C299.962 140.653 300.053 140.638 300.151 140.615C301.534 142.898 302.525 145.446 303.364 148.001C303.961 149.823 304.505 151.661 305.103 153.482C304.838 154.102 304.589 154.73 304.392 155.372C303.659 157.784 303.855 160.785 305.851 162.32C307 163.205 308.444 163.409 309.933 163.499C312.073 166.735 314.492 169.805 316.405 173.138C315.8 174.499 315.067 175.807 314.522 177.191C313.713 179.27 313.373 181.757 314.553 183.647C315.717 185.507 318.008 186.316 319.958 187.412L319.973 187.404Z" fill="#AFE9D6"/>
</g>
<path d="M73.0776 92.6227V94.3388H71.5505V92.6681C70.0385 92.5773 68.5794 92.1011 67.7402 91.4433L68.5794 89.576C69.343 90.143 70.4467 90.5588 71.5505 90.6647V88.1094C69.8495 87.6936 67.9519 87.1266 67.9519 84.9417C67.9519 83.3163 69.1313 81.9253 71.5505 81.6531V79.9521H73.0776V81.6229C74.2267 81.7136 75.3456 82.0236 76.1848 82.5528L75.4212 84.4352C74.6425 83.9892 73.8487 83.7322 73.0776 83.6414V86.2421C74.7786 86.6427 76.6459 87.2022 76.6459 89.3643C76.6459 90.9519 75.4817 92.3354 73.0776 92.6227ZM71.5505 85.8565V83.6868C70.7416 83.8682 70.4165 84.3143 70.4165 84.8208C70.4165 85.3576 70.8776 85.6448 71.5505 85.8641V85.8565ZM74.1814 89.5458C74.1814 89.009 73.7353 88.7217 73.0776 88.4874V90.5966C73.8412 90.4303 74.1814 90.0296 74.1814 89.5382V89.5458Z" fill="white"/>
<path d="M66.387 82.3186V83.1577H65.6386V82.3412C64.8977 82.2959 64.1795 82.0615 63.7637 81.7364L64.1795 80.8217C64.5575 81.1014 65.0942 81.3055 65.6386 81.3584V80.1035C64.807 79.8994 63.8695 79.6196 63.8695 78.5461C63.8695 77.7523 64.4516 77.0644 65.6386 76.9283V76.0967H66.387V76.9132C66.954 76.9585 67.4983 77.1097 67.9141 77.3743L67.5361 78.2966C67.1506 78.0774 66.765 77.9489 66.387 77.9035V79.1812C67.2186 79.3777 68.1409 79.6574 68.1409 80.7158C68.1409 81.4945 67.5664 82.1749 66.387 82.3186ZM65.6386 78.9997V77.9338C65.2379 78.0245 65.0791 78.2437 65.0791 78.4932C65.0791 78.7578 65.3059 78.9014 65.6386 79.0073V78.9997ZM66.9313 80.8141C66.9313 80.5495 66.7121 80.4059 66.387 80.2925V81.3282C66.765 81.245 66.9313 81.0485 66.9313 80.8066V80.8141Z" fill="white"/>
<path d="M155.487 46.0463C155.487 49.4408 150.883 56.464 148.577 59.7753C147.95 60.675 146.619 60.675 145.992 59.7753C143.679 56.464 139.082 49.4332 139.082 46.0463C139.082 41.5179 142.756 37.8438 147.285 37.8438C151.813 37.8438 155.487 41.5179 155.487 46.0463Z" fill="#D6EDF1"/>
<path d="M150.694 46.0463C150.694 47.9287 149.167 49.4558 147.285 49.4558C145.402 49.4558 143.875 47.9287 143.875 46.0463C143.875 44.1638 145.402 42.6367 147.285 42.6367C149.167 42.6367 150.694 44.1638 150.694 46.0463Z" fill="white"/>
<path d="M215.061 0.549805L216.807 4.09544L220.716 4.66244L217.889 7.41428L218.554 11.3077L215.061 9.4706L211.568 11.3077L212.234 7.41428L209.406 4.66244L213.315 4.09544L215.061 0.549805Z" fill="#EDB320"/>
<path d="M228.352 0.549805L230.098 4.09544L234.007 4.66244L231.18 7.41428L231.845 11.3077L228.352 9.4706L224.852 11.3077L225.525 7.41428L222.697 4.66244L226.606 4.09544L228.352 0.549805Z" fill="#EDB320"/>
<path d="M241.641 0.549805L243.388 4.09544L247.296 4.66244L244.469 7.41428L245.134 11.3077L241.641 9.4706L238.141 11.3077L238.814 7.41428L235.986 4.66244L239.887 4.09544L241.641 0.549805Z" fill="#EDB320"/>
<path d="M254.926 0.549805L256.68 4.09544L260.589 4.66244L257.754 7.41428L258.427 11.3077L254.926 9.4706L251.434 11.3077L252.099 7.41428L249.271 4.66244L253.18 4.09544L254.926 0.549805Z" fill="#EDB320"/>
<path d="M268.215 0.549805L269.962 4.09544L273.87 4.66244L271.043 7.41428L271.716 11.3077L268.215 9.4706L264.723 11.3077L265.388 7.41428L262.561 4.66244L266.469 4.09544L268.215 0.549805Z" fill="#EDB320"/>
<path d="M25.6214 39.7412H2.58613C2.07205 39.7412 1.65625 40.157 1.65625 40.6711V55.2468C1.65625 55.7608 2.07205 56.1767 2.58613 56.1767H18.0841L25.4476 59.1175C25.9768 59.3292 26.5513 58.936 26.5513 58.369V40.6711C26.5513 40.157 26.1355 39.7412 25.6214 39.7412Z" fill="#EDB320"/>
<path d="M8.33939 47.9068C8.33939 48.504 7.85555 48.9954 7.25075 48.9954C6.64595 48.9954 6.16211 48.5116 6.16211 47.9068C6.16211 47.302 6.64595 46.8181 7.25075 46.8181C7.85555 46.8181 8.33939 47.302 8.33939 47.9068Z" fill="white"/>
<path d="M15.191 47.9068C15.191 48.504 14.7071 48.9954 14.1023 48.9954C13.4975 48.9954 13.0137 48.5116 13.0137 47.9068C13.0137 47.302 13.4975 46.8181 14.1023 46.8181C14.7071 46.8181 15.191 47.302 15.191 47.9068Z" fill="white"/>
<path d="M22.0367 47.9068C22.0367 48.504 21.5528 48.9954 20.948 48.9954C20.3432 48.9954 19.8594 48.5116 19.8594 47.9068C19.8594 47.302 20.3432 46.8181 20.948 46.8181C21.5528 46.8181 22.0367 47.302 22.0367 47.9068Z" fill="white"/>
<path d="M99.7772 22.6494H82.2834C81.7693 22.6494 81.3535 23.0652 81.3535 23.5793V38.155C81.3535 38.6691 81.7693 39.0849 82.2834 39.0849H92.2475L99.6109 42.0257C100.14 42.2374 100.715 41.8443 100.715 41.2773V23.5793C100.715 23.0652 100.299 22.6494 99.7848 22.6494H99.7772Z" fill="#E9574E"/>
<path d="M87.0312 29.1581C87.0312 28.009 87.7343 27.2832 88.7247 27.2832C89.7151 27.2832 90.403 28.0014 90.403 29.1581C90.403 30.3148 89.7151 31.033 88.7247 31.033C87.7343 31.033 87.0312 30.3072 87.0312 29.1581ZM89.4278 29.1581C89.4278 28.4323 89.148 28.077 88.7171 28.077C88.2862 28.077 88.0065 28.4399 88.0065 29.1581C88.0065 29.8763 88.3013 30.2392 88.7171 30.2392C89.1329 30.2392 89.4278 29.8914 89.4278 29.1581ZM92.7693 27.3588H93.926L89.2841 34.1628H88.1274L92.7693 27.3588ZM91.6504 32.3635C91.6504 31.2144 92.3535 30.4886 93.3287 30.4886C94.304 30.4886 95.0222 31.2144 95.0222 32.3635C95.0222 33.5126 94.3191 34.2384 93.3287 34.2384C92.3384 34.2384 91.6504 33.5126 91.6504 32.3635ZM94.0394 32.3635C94.0394 31.6453 93.7597 31.2824 93.3287 31.2824C92.8978 31.2824 92.6181 31.6302 92.6181 32.3635C92.6181 33.0968 92.9129 33.4446 93.3287 33.4446C93.7445 33.4446 94.0394 33.0817 94.0394 32.3635Z" fill="white"/>
<path d="M34.1177 116.792C33.7624 117.873 33.4751 118.969 33.2559 120.081" stroke="white" stroke-width="0.756" stroke-miterlimit="10"/>
<path d="M32.7422 126.877C33.0068 133.492 35.4033 140.092 39.3118 145.482C45.2464 153.647 54.3335 159.181 64.0028 162.061C73.6796 164.942 83.9385 165.335 94.0084 164.639C108.176 163.664 122.094 160.587 136.148 158.561C150.202 156.535 164.657 155.552 178.491 158.742C190.096 161.411 201.308 167.346 208.852 176.418" stroke="white" stroke-width="0.756" stroke-miterlimit="10"/>
<path d="M210.939 179.124C211.59 180.046 212.202 180.999 212.784 181.982" stroke="white" stroke-width="0.756" stroke-miterlimit="10"/>
<g style="mix-blend-mode:multiply" opacity="0.5">
<path d="M54.8311 106.98L33.5195 114.034L28.3711 108.855L54.8311 106.98Z" fill="#0E36B6"/>
</g>
<path d="M35.3261 116.294L33.2773 118.6L36.7549 117.466L35.3261 116.294Z" fill="#577BB5"/>
<g style="mix-blend-mode:multiply" opacity="0.5">
<path d="M35.3242 116.294L41.0925 124.368C41.0925 124.368 54.8668 106.882 54.829 106.98C54.7912 107.078 35.3242 116.294 35.3242 116.294Z" fill="#0E36B6"/>
</g>
<path d="M33.2773 118.6L33.5193 114.034L54.8309 106.98L35.3261 116.294L33.2773 118.6Z" fill="#D7E0FB"/>
<path d="M17.8365 96.6926C17.8365 98.7565 16.1657 100.427 14.1018 100.427C12.0379 100.427 10.3672 98.7565 10.3672 96.6926C10.3672 94.6288 12.0379 92.958 14.1018 92.958C16.1657 92.958 17.8365 94.6288 17.8365 96.6926Z" fill="#D6EDF1"/>
<path d="M9.29324 111.132C10.7421 111.132 11.9166 109.958 11.9166 108.509C11.9166 107.06 10.7421 105.886 9.29324 105.886C7.84442 105.886 6.66992 107.06 6.66992 108.509C6.66992 109.958 7.84442 111.132 9.29324 111.132Z" fill="#D6EDF1"/>
<path d="M65.3429 104.895C65.3429 106.581 63.9745 107.949 62.2886 107.949C60.6027 107.949 59.2344 106.581 59.2344 104.895C59.2344 103.209 60.6027 101.841 62.2886 101.841C63.9745 101.841 65.3429 103.209 65.3429 104.895Z" fill="white"/>
<path d="M72.5719 118.043C72.5719 119.351 71.5135 120.417 70.1981 120.417C68.8826 120.417 67.8242 119.358 67.8242 118.043C67.8242 116.727 68.8826 115.669 70.1981 115.669C71.5135 115.669 72.5719 116.727 72.5719 118.043Z" fill="white"/>
<path d="M189.765 125.996C189.765 126.57 189.304 127.031 188.729 127.031C188.155 127.031 187.693 126.57 187.693 125.996C187.693 125.421 188.155 124.96 188.729 124.96C189.304 124.96 189.765 125.421 189.765 125.996Z" fill="white"/>
<path d="M34.6432 154.511C34.6432 155.456 33.8796 156.227 32.9271 156.227C31.9745 156.227 31.2109 155.464 31.2109 154.511C31.2109 153.558 31.9821 152.795 32.9271 152.795C33.8721 152.795 34.6432 153.558 34.6432 154.511Z" fill="white"/>
<path d="M156.526 194.17C157.394 194.17 158.098 193.466 158.098 192.598C158.098 191.729 157.394 191.025 156.526 191.025C155.657 191.025 154.953 191.729 154.953 192.598C154.953 193.466 155.657 194.17 156.526 194.17Z" fill="white"/>
<path d="M334.918 63.7451C334.918 64.5994 334.222 65.2949 333.368 65.2949C332.514 65.2949 331.818 64.5994 331.818 63.7451C331.818 62.8908 332.514 62.1953 333.368 62.1953C334.222 62.1953 334.918 62.8908 334.918 63.7451Z" fill="#D6EDF1"/>
<path d="M338.154 110.936C339.097 110.936 339.862 110.171 339.862 109.227C339.862 108.284 339.097 107.519 338.154 107.519C337.21 107.519 336.445 108.284 336.445 109.227C336.445 110.171 337.21 110.936 338.154 110.936Z" fill="white"/>
<path d="M347.997 82.2681C347.997 83.3265 347.143 84.1808 346.085 84.1808C345.026 84.1808 344.172 83.3265 344.172 82.2681C344.172 81.2097 345.026 80.3555 346.085 80.3555C347.143 80.3555 347.997 81.2097 347.997 82.2681Z" fill="#D6EDF1"/>
<path d="M196.078 27.9417C196.988 27.9417 197.726 27.2038 197.726 26.2936C197.726 25.3834 196.988 24.6455 196.078 24.6455C195.168 24.6455 194.43 25.3834 194.43 26.2936C194.43 27.2038 195.168 27.9417 196.078 27.9417Z" fill="#D6EDF1"/>
<path d="M73.909 29.1205C73.909 29.7782 73.3798 30.3074 72.7221 30.3074C72.0644 30.3074 71.5352 29.7782 71.5352 29.1205C71.5352 28.4628 72.0644 27.9336 72.7221 27.9336C73.3798 27.9336 73.909 28.4628 73.909 29.1205Z" fill="#D6EDF1"/>
<path style="mix-blend-mode:multiply" opacity="0.5" d="M226.268 257.162C247.575 257.162 264.847 255.703 264.847 253.904C264.847 252.104 247.575 250.646 226.268 250.646C204.962 250.646 187.689 252.104 187.689 253.904C187.689 255.703 204.962 257.162 226.268 257.162Z" fill="url(#paint1_radial_1_38198)"/>
<path d="M218.815 190.855C219.382 198.725 219.412 205.876 219.11 212.227C218.074 234.045 213.198 246.504 213.198 246.504L205.864 246.338L201.268 179.915L200.754 172.439C202.273 172.302 203.785 172.151 205.275 172.023C211.179 171.509 217.061 170.722 222.92 169.838C221.234 181.768 218.822 190.855 218.822 190.855H218.815Z" fill="#C7683C"/>
<g style="mix-blend-mode:multiply" opacity="0.5">
<path d="M218.814 190.855C219.381 198.725 219.412 205.876 219.109 212.227L217.469 194.68C216.69 186.311 209.667 179.915 201.26 179.915L200.746 172.439C202.266 172.302 203.778 172.151 205.267 172.023C211.171 171.509 217.053 170.722 222.912 169.838C221.226 181.768 218.814 190.855 218.814 190.855Z" fill="#C7683C"/>
</g>
<path d="M214.104 246.171C214.104 246.171 215.525 250.503 214.626 252.907H195.779C195.779 252.907 194.546 249.437 199.899 249.815L205.297 246.504L204.631 235.466C204.631 235.466 207.663 233.379 209.939 236.32L216.523 236.887L214.112 246.171H214.104Z" fill="#E6E6E6"/>
<path d="M209.938 236.32C209.938 236.32 208.615 245.362 208.215 246.504C207.806 247.638 205.818 250.624 203.648 250.647C201.464 250.669 199.906 249.815 199.906 249.815L205.304 246.504L204.639 235.466C204.639 235.466 207.67 233.379 209.946 236.32H209.938Z" fill="#A9C0C4"/>
<path d="M234.268 167.88C231.304 168.477 228.303 168.999 225.264 169.467C221.726 170.019 218.18 170.533 214.627 170.995C222.527 193.924 233.126 221.73 242.546 240.562C245.51 241.507 247.218 238.702 249.698 238.188C249.214 220.664 242.349 202.626 235.893 186.666C235.561 181.185 235.099 174.691 234.268 167.88Z" fill="#D4774C"/>
<path d="M251.074 237.636C251.074 237.636 254.196 240.955 254.4 243.51L237.33 251.501C237.33 251.501 234.744 248.886 239.749 246.958L243.234 241.673L237.957 231.959C237.957 231.959 239.817 228.784 243.121 230.485L249.328 228.209L251.074 237.636Z" fill="#E6E6E6"/>
<path d="M243.128 230.477C243.128 230.477 245.759 239.231 245.88 240.433C245.994 241.635 245.457 245.181 243.499 246.119C241.533 247.064 239.757 246.958 239.757 246.958L243.242 241.673L237.965 231.959C237.965 231.959 239.825 228.783 243.128 230.484V230.477Z" fill="#A9C0C4"/>
<path d="M242.947 146.672C241.049 147.269 239.242 148.078 237.33 148.562C233.724 138.174 229.921 126.985 225.211 117.543C224.137 115.388 223.094 113.377 222.058 111.45C220.599 108.713 219.171 106.15 217.727 103.61C220.803 102.363 223.82 100.964 226.836 99.5654C227.834 99.1042 228.847 98.643 229.845 98.1819C230.979 100.699 232 103.27 232.937 105.848C233.708 107.98 234.427 110.119 235.099 112.243C238.728 123.727 240.996 134.863 242.954 146.687L242.947 146.672Z" fill="#D4774C"/>
<path d="M239.56 143.58C239.56 143.58 240.906 144.102 242.335 145.493C243.763 146.892 243.937 149.696 244.769 150.914C245.6 152.131 246.379 153.144 246.099 153.484C245.82 153.824 245.321 153.34 243.847 151.549C243.847 151.549 242.924 150.853 243.348 151.904C243.763 152.947 245.381 155.102 244.882 155.646C244.474 156.085 242.387 152.713 242.138 152.66C241.888 152.607 243.831 157.09 243.022 157.718C242.214 158.345 241.39 152.962 240.792 152.894C240.195 152.826 241.231 156.636 240.702 156.825C239.545 157.249 239.167 151.004 238.653 151.133C238.139 151.261 237.738 153.582 237.043 153.439C236.347 153.302 237.254 150.936 237.216 150.46C237.179 149.984 236.188 144.48 239.575 143.58H239.56Z" fill="#D4774C"/>
<path d="M232.93 105.84L222.058 111.449C220.599 108.713 219.171 106.15 217.727 103.61C220.803 102.362 223.82 100.964 226.836 99.5651C227.834 99.104 228.847 98.6428 229.845 98.1816C230.979 100.699 232 103.27 232.937 105.847L232.93 105.84Z" fill="#BF6237"/>
<path d="M232.097 101.198C232.097 101.198 223.29 107.238 219.306 107.518L208.246 87.3481C208.246 87.3481 208.17 86.2292 208.336 84.687C208.896 79.4252 215.118 76.8472 219.193 80.2039L219.306 80.3022C220.138 81.0052 221.203 82.3585 222.353 84.0595C225.414 88.5652 229.119 95.4675 230.948 98.9829C231.659 100.351 232.09 101.206 232.09 101.206L232.097 101.198Z" fill="#D99434"/>
<g style="mix-blend-mode:multiply" opacity="0.5">
<path d="M232.097 101.198C232.097 101.198 223.29 107.238 219.306 107.518L208.246 87.3481C208.246 87.3481 208.17 86.2292 208.336 84.687C208.896 79.4252 215.118 76.8472 219.193 80.2039L219.306 80.3022C220.138 81.0052 221.203 82.3585 222.353 84.0595C221.982 88.3309 221.619 92.6098 221.249 96.8888C221.158 97.9018 221.09 98.9905 221.574 99.875C222.201 101.032 223.615 101.546 224.938 101.606C227.206 101.705 229.467 100.684 230.948 98.9829C231.659 100.351 232.09 101.206 232.09 101.206L232.097 101.198Z" fill="#D99434"/>
</g>
<path d="M212.836 76.8772V64.252H204.444V77.5046C202.388 78.2455 200.612 79.6517 199.394 81.5039C198.714 82.5396 198.087 83.4166 197.52 84.2255C198.298 84.611 199.122 84.9361 199.954 85.2234C200.256 85.1856 200.551 85.1554 200.793 85.1251C203.227 84.8681 205.699 84.3691 207.915 83.3032C209.653 82.4715 211.294 81.4585 212.519 79.9768C212.541 79.8558 212.556 79.7348 212.602 79.6139C212.927 78.6462 213.335 77.7919 213.819 76.9754C213.479 76.9376 213.146 76.9074 212.821 76.8772H212.836Z" fill="#D4774C"/>
<path d="M212.708 67.374C211.968 69.385 211.015 71.2296 209.843 72.3863C208.618 73.6035 207.409 74.2839 206.335 74.6543C205.632 74.8962 204.99 75.0096 204.445 75.055V72.855C205.088 72.9079 206.093 72.8701 207.28 72.4543C208.354 72.0839 209.571 71.4035 210.796 70.1863C211.521 69.4681 212.157 68.4853 212.708 67.374Z" fill="#BF6237"/>
<path d="M238.519 171.113C237.936 171.264 236.901 171.506 235.532 171.809C228.176 173.434 211.144 176.851 201.981 177.312C200.885 177.365 199.894 177.388 199.055 177.343L198.201 115.691C198.201 115.691 197.369 110.626 196.5 105.409C195.661 100.404 194.784 95.2636 194.58 94.3035C194.149 92.353 193.763 91.1056 197.173 84.3545C200.575 77.611 204.491 77.4749 204.491 77.4749C201.527 78.0797 198.322 83.3793 198.322 83.3793C198.322 83.3793 205.164 81.4893 207.704 78.8357C210.244 76.1822 213.313 76.7416 213.313 76.7416C215.907 77.2028 217.57 78.6921 218.636 80.325C220.057 82.525 220.503 85.2239 220.034 87.8019C219.475 90.8637 219.157 94.8176 218.991 98.5446C218.704 104.691 218.794 110.24 218.794 110.24C229.016 120.287 227.05 136.088 227.05 136.088L238.526 171.098L238.519 171.113Z" fill="#EDB320"/>
<path d="M212.188 99.1638C211.734 102.324 211.349 105.492 211.107 108.667C210.986 110.254 210.903 111.849 210.895 113.437C210.895 113.838 210.895 114.231 210.918 114.624C210.933 115.017 210.941 115.418 210.986 115.811L211.039 116.401C211.062 116.597 211.099 116.794 211.13 116.983C211.198 117.376 211.258 117.761 211.326 118.155C212.589 124.399 214.033 130.621 215.477 136.828L219.771 155.478L221.91 164.807L224.004 174.144C222.402 167.967 220.867 161.776 219.355 155.577C217.843 149.377 216.391 143.163 214.932 136.949L212.838 127.605C212.173 124.482 211.462 121.375 210.903 118.223C210.835 117.829 210.782 117.429 210.721 117.028C210.691 116.832 210.661 116.627 210.638 116.431L210.593 115.826C210.555 115.425 210.548 115.025 210.54 114.624C210.525 114.223 210.532 113.823 210.54 113.422C210.57 111.819 210.676 110.224 210.827 108.636C211.152 105.461 211.598 102.294 212.173 99.1562L212.188 99.1638Z" fill="#C2612D"/>
<g style="mix-blend-mode:screen" opacity="0.5">
<path d="M216.413 89.0877L209.889 109.099C203.561 119.963 200.401 132.384 200.847 144.941L201.989 177.305C200.893 177.358 199.902 177.381 199.063 177.336L198.209 115.684C198.209 115.684 197.377 110.619 196.508 105.402L213.835 86.5098L216.421 89.0802L216.413 89.0877Z" fill="#F5AD49"/>
</g>
<g style="mix-blend-mode:multiply" opacity="0.5">
<path d="M238.519 171.113C237.937 171.264 236.901 171.506 235.533 171.808L224.012 135.792C226.522 124.634 216.406 112.016 216.406 112.016L218.977 98.5518C218.689 104.698 218.78 110.247 218.78 110.247C229.001 120.294 227.036 136.095 227.036 136.095L238.512 171.105L238.519 171.113Z" fill="#F5AD49"/>
</g>
<path d="M165.526 97.1587C163.795 97.4762 163.054 97.8467 161.534 98.7312C159.183 94.5354 156.9 90.3925 154.957 85.9548C156.983 85.0703 159.055 84.3067 161.066 83.3844C163.107 88.1245 165.224 91.9045 165.526 97.1587Z" fill="#67B38B"/>
<path d="M161.467 97.2111C159.153 94.1341 157.883 90.3239 156.205 86.8841C156.515 86.7102 156.613 86.4456 156.507 86.1054C157.717 85.614 158.934 85.1453 160.136 84.6237C160.31 84.9261 160.582 85.0319 160.915 84.9261C162.616 88.449 164.627 91.8359 164.808 95.8427C164.468 95.9334 164.347 96.1829 164.325 96.5231C163.455 96.6289 162.858 96.9087 162.162 97.4454C161.988 97.1959 161.762 97.075 161.467 97.2111Z" fill="#80D4A9"/>
<path d="M163.1 90.4006C163.591 91.5346 162.979 92.661 161.883 93.1146C160.786 93.5682 159.599 93.2053 159.123 92.094C158.647 90.9827 159.101 89.7504 160.219 89.2666C161.338 88.7827 162.616 89.2666 163.1 90.393V90.4006Z" fill="#67B38B"/>
<path d="M162.253 90.5215C162.389 90.4686 162.51 90.4157 162.639 90.3628C162.684 90.4762 162.737 90.582 162.782 90.6954C162.661 90.7483 162.533 90.8012 162.412 90.8542C162.51 91.1717 162.556 91.4741 162.48 91.7916C162.314 91.7916 162.155 91.7841 161.989 91.7916C162.049 91.5346 162.034 91.3002 161.966 91.0507C161.777 91.1339 161.58 91.217 161.399 91.3002C161.429 91.7614 161.505 92.1242 160.991 92.3662C160.605 92.54 160.174 92.3132 159.963 91.9277C159.826 91.9806 159.698 92.0335 159.569 92.0865C159.524 91.9731 159.479 91.8596 159.426 91.7538C159.554 91.7009 159.683 91.6555 159.811 91.6026C159.736 91.3456 159.69 91.0885 159.721 90.8239C159.887 90.8239 160.061 90.8239 160.227 90.8239C160.212 91.0281 160.227 91.2246 160.28 91.4212C160.477 91.338 160.673 91.2624 160.855 91.1641C160.832 90.7181 160.688 90.3174 161.21 90.0679C161.596 89.8865 162.049 90.1511 162.261 90.5291L162.253 90.5215ZM160.908 91.5195C160.741 91.5875 160.582 91.6555 160.416 91.7311C160.507 91.8445 160.628 91.9201 160.764 91.8596C160.908 91.7992 160.9 91.6555 160.9 91.527L160.908 91.5195ZM161.475 90.582C161.338 90.6425 161.338 90.7861 161.338 90.9222C161.497 90.8542 161.656 90.7861 161.807 90.7181C161.716 90.6122 161.611 90.5215 161.475 90.5896V90.582Z" fill="#80D4A9"/>
<path d="M165.359 97.8164C163.605 97.6576 162.796 97.8164 161.087 98.2549C159.953 93.5752 158.872 88.9712 158.199 84.1782C160.384 83.8758 162.592 83.6943 164.769 83.3466C165.457 88.4647 166.47 92.6756 165.359 97.8164Z" fill="#67B38B"/>
<path d="M161.435 96.7737C160.037 93.1902 159.84 89.1759 159.145 85.411C159.492 85.3203 159.659 85.101 159.643 84.7457C160.944 84.6021 162.244 84.4736 163.537 84.2997C163.628 84.6399 163.854 84.8138 164.21 84.8062C164.898 88.6542 165.926 92.4645 165.019 96.3654C164.663 96.3654 164.482 96.5696 164.368 96.8871C163.507 96.7586 162.849 96.8644 162.04 97.1895C161.942 96.9022 161.753 96.7208 161.435 96.7812V96.7737Z" fill="#80D4A9"/>
<path d="M164.844 90.6498C165.011 91.8745 164.118 92.7893 162.939 92.9405C161.76 93.0841 160.709 92.4189 160.55 91.2168C160.391 90.0148 161.155 88.9564 162.365 88.7901C163.574 88.6237 164.67 89.4327 164.837 90.6574L164.844 90.6498Z" fill="#67B38B"/>
<path d="M163.99 90.5362C164.133 90.5211 164.269 90.506 164.405 90.4909C164.42 90.6118 164.436 90.7328 164.451 90.8538C164.315 90.8689 164.186 90.884 164.05 90.8991C164.065 91.2318 164.02 91.5342 163.861 91.8214C163.702 91.7761 163.551 91.7232 163.392 91.6854C163.521 91.451 163.566 91.2242 163.566 90.9672C163.362 90.9974 163.15 91.0201 162.954 91.0579C162.856 91.5115 162.833 91.8819 162.273 91.9726C161.858 92.0407 161.502 91.7005 161.396 91.2771C161.253 91.2847 161.117 91.3074 160.973 91.3225C160.958 91.2015 160.943 91.0806 160.928 90.9596C161.064 90.9445 161.2 90.9294 161.336 90.9142C161.336 90.6421 161.359 90.385 161.457 90.1356C161.616 90.1809 161.782 90.2263 161.941 90.2716C161.873 90.4682 161.835 90.6572 161.827 90.8613C162.039 90.8386 162.251 90.816 162.455 90.7706C162.553 90.3321 162.523 89.9088 163.09 89.8105C163.506 89.7424 163.876 90.1129 163.982 90.5362H163.99ZM162.425 91.1335C162.251 91.1562 162.069 91.1788 161.895 91.2015C161.956 91.33 162.047 91.4359 162.198 91.4132C162.349 91.3905 162.387 91.2544 162.425 91.1259V91.1335ZM163.218 90.385C163.067 90.4077 163.037 90.5438 162.999 90.6723C163.165 90.6496 163.339 90.627 163.506 90.5967C163.445 90.4758 163.37 90.3548 163.218 90.3775V90.385Z" fill="#80D4A9"/>
<path d="M165.019 98.398C163.378 97.7705 162.554 97.7025 160.793 97.6647C160.959 92.8565 161.163 88.1315 161.798 83.3309C163.991 83.6258 166.153 84.0491 168.353 84.3062C167.635 89.4167 167.484 93.7486 165.019 98.398Z" fill="#67B38B"/>
<path d="M161.525 96.3342C161.147 92.5088 162.039 88.5852 162.379 84.775C162.735 84.7825 162.954 84.6086 163.045 84.2684C164.338 84.4801 165.623 84.7069 166.915 84.8884C166.915 85.2437 167.082 85.4705 167.422 85.5536C167.044 89.447 167.014 93.3934 165.086 96.9012C164.746 96.8029 164.511 96.9541 164.315 97.2263C163.521 96.871 162.856 96.7954 161.994 96.8936C161.971 96.5912 161.843 96.3644 161.525 96.3342Z" fill="#80D4A9"/>
<path d="M166.454 91.3602C166.281 92.5774 165.184 93.2275 164.005 93.0536C162.826 92.8798 162.002 91.9499 162.176 90.7478C162.349 89.5534 163.37 88.7369 164.58 88.9032C165.789 89.0695 166.628 90.143 166.462 91.3678L166.454 91.3602Z" fill="#67B38B"/>
<path d="M165.669 91.0192C165.813 91.0495 165.942 91.0646 166.085 91.0873C166.07 91.2082 166.055 91.3292 166.032 91.4501C165.896 91.4275 165.768 91.4123 165.632 91.3897C165.556 91.7072 165.435 91.9869 165.201 92.2288C165.065 92.1381 164.929 92.0549 164.785 91.9718C164.966 91.7828 165.08 91.5787 165.148 91.3292C164.944 91.3065 164.732 91.2687 164.535 91.246C164.316 91.6543 164.203 92.0096 163.628 91.9415C163.205 91.8886 162.955 91.4728 162.97 91.0343C162.827 91.0041 162.691 90.989 162.555 90.9663C162.57 90.8453 162.592 90.7244 162.608 90.611C162.744 90.6337 162.88 90.6563 163.016 90.679C163.084 90.422 163.182 90.1801 163.341 89.9608C163.485 90.0515 163.628 90.1347 163.772 90.2254C163.651 90.3917 163.568 90.5656 163.507 90.7622C163.711 90.7924 163.923 90.8302 164.135 90.8453C164.346 90.4522 164.43 90.0289 165.004 90.0893C165.427 90.1347 165.677 90.5959 165.662 91.0268L165.669 91.0192ZM163.999 91.178C163.825 91.1477 163.651 91.1251 163.469 91.1024C163.492 91.246 163.553 91.367 163.704 91.3897C163.855 91.4123 163.923 91.2914 163.999 91.178ZM164.966 90.6715C164.815 90.6563 164.747 90.7773 164.679 90.8907C164.845 90.9134 165.019 90.9361 165.186 90.9587C165.163 90.8227 165.118 90.6866 164.966 90.6715Z" fill="#80D4A9"/>
<path d="M209.11 103.857C207.968 105.444 206.766 106.994 205.519 108.506C205.428 108.619 205.33 108.74 205.232 108.854C204.03 110.313 201.951 112.596 200.129 114.569C197.967 116.905 194.572 117.593 191.669 116.285C189.749 115.416 187.67 114.463 186.301 113.798C182.605 111.991 179.067 109.889 175.544 107.69C172.021 105.497 168.528 103.206 164.922 101.044C163.894 100.462 162.419 99.5172 162.419 99.5172C161.346 99.3206 161.331 98.179 161.331 98.179C160.507 98.1412 160.529 97.2567 160.529 97.2567C159.373 96.8485 159.894 95.7976 159.894 95.7976C159.894 95.7976 161.316 96.3571 161.361 96.1908C161.399 96.0244 157.71 93.7111 158.594 93.3936C159.479 93.0685 163.432 95.4196 164.929 95.5406C166.426 95.6616 166.683 94.2932 166.683 94.2932L167.008 93.076C167.008 93.076 167.628 93.5523 167.84 94.1042C168.052 94.6485 167.681 96.667 167.681 96.667C175.627 99.7666 183.996 103.048 192.1 105.512C193.121 103.97 194.096 102.466 195.041 100.991C196.311 99.0031 197.528 97.045 198.76 95.0568C199.826 96.0774 200.93 97.0677 202.041 98.043C204.34 100.054 206.691 101.997 209.11 103.857Z" fill="#D4774C"/>
<path d="M209.11 103.856C207.968 105.444 206.766 106.994 205.519 108.506C200.658 107.425 197.029 103.607 195.033 100.991C196.303 99.0028 197.52 97.0448 198.753 95.0565C199.819 96.0771 200.922 97.0675 202.034 98.0427C204.332 100.054 206.683 101.997 209.102 103.856H209.11Z" fill="#BF6237"/>
<path d="M196.43 97.1835L207.445 81.0883C207.445 81.0883 216.169 77.1117 218.308 86.9851L208.246 105.885C208.246 105.885 200.414 104.464 196.437 97.1835H196.43Z" fill="#F5AD49"/>
<path d="M196.958 97.9539C196.762 97.712 196.565 97.47 196.376 97.2206L196.354 97.1903L196.376 97.145C197.072 96.011 197.82 94.9072 198.553 93.7959C199.302 92.6921 200.058 91.6035 200.837 90.5224C201.615 89.4413 202.394 88.3678 203.21 87.3094C204.019 86.251 204.828 85.2002 205.69 84.1796C205.01 85.3287 204.284 86.44 203.543 87.5513C202.817 88.6627 202.054 89.7513 201.29 90.8399C200.519 91.9286 199.74 93.0021 198.947 94.068C198.138 95.1264 197.344 96.1924 196.497 97.2206V97.145C196.663 97.4096 196.815 97.6817 196.973 97.9539H196.958Z" fill="#C2612D"/>
<path d="M207.611 105.884C207.944 106.035 208.284 106.186 208.617 106.353L208.533 106.383C209.214 104.818 209.947 103.276 210.665 101.726C211.399 100.184 212.147 98.6567 212.911 97.1295C213.682 95.61 214.445 94.0829 215.254 92.5784C216.056 91.074 216.865 89.5695 217.719 88.0878C217.054 89.6602 216.343 91.2176 215.617 92.7599C214.906 94.3097 214.15 95.8443 213.394 97.3714C212.638 98.8986 211.86 100.418 211.074 101.93C210.265 103.435 209.478 104.947 208.632 106.436L208.601 106.496L208.549 106.466C208.231 106.277 207.921 106.081 207.604 105.892L207.611 105.884Z" fill="#C2612D"/>
<path d="M194.471 63.1649C194.675 62.424 195.174 61.7587 195.635 61.1237C195.922 60.7305 196.195 60.2996 196.384 59.846C196.686 56.1038 197.586 52.5355 198.1 51.4998C198.916 49.8971 203.301 48.4455 207.61 49.2545C211.927 50.0331 215.503 52.9513 215.692 54.743C215.76 55.4234 216.085 58.145 213.779 64.8205C213.023 66.9675 212.033 68.9558 210.785 70.1805C209.561 71.3977 208.343 72.0781 207.27 72.4485C205.206 73.1667 203.686 72.7358 203.686 72.7358L202.862 72.5846C202.862 72.5846 200.882 72.4107 199.007 70.4603C198.342 69.7723 197.699 68.8651 197.155 67.663C196.784 66.8314 196.542 65.8335 196.406 64.7525C195.817 64.7449 195.219 64.5408 194.766 64.1703C194.471 63.9284 194.35 63.5277 194.456 63.1573L194.471 63.1649Z" fill="#D4774C"/>
<path d="M210.667 62.9308C210.773 62.6586 210.803 62.3789 210.811 62.0916C210.826 61.8119 210.811 61.5322 210.72 61.3054C210.546 60.8442 209.949 60.7988 209.541 61.0786C209.11 61.3507 208.709 61.7816 208.49 62.2579C208.271 62.7493 208.218 63.3239 208.15 63.906C208.059 63.339 207.984 62.7418 208.18 62.1445C208.384 61.5473 208.793 61.0786 209.322 60.7232C209.594 60.5569 209.949 60.4586 210.289 60.5267C210.637 60.5872 210.955 60.8744 211.03 61.2071C211.121 61.5322 211.076 61.8421 211.015 62.1294C210.94 62.4091 210.856 62.7115 210.667 62.9383V62.9308Z" fill="#BF6237"/>
<path d="M209.232 64.0649C209.361 63.823 209.414 63.5811 209.452 63.3467C209.482 63.1124 209.489 62.8629 209.474 62.6285C209.459 62.3942 209.406 62.1825 209.293 62.0086C209.172 61.8423 208.975 61.676 208.703 61.6835C208.93 61.5096 209.308 61.5701 209.535 61.7818C209.777 61.9935 209.875 62.311 209.898 62.5983C209.913 62.8856 209.882 63.1653 209.777 63.4374C209.678 63.702 209.489 63.944 209.24 64.0725L209.232 64.0649Z" fill="#BF6237"/>
<path d="M199.918 66.1592C199.797 66.3709 199.593 66.5145 199.389 66.6203C199.17 66.7111 198.935 66.7791 198.693 66.7262C198.905 66.6052 199.102 66.5296 199.298 66.4238C199.502 66.3406 199.691 66.2348 199.918 66.1516V66.1592Z" fill="#BF6237"/>
<path d="M200.463 64.3528C200.244 65.0407 199.722 65.6229 199.079 65.9857C198.754 66.1672 198.399 66.2957 198.036 66.3335C197.673 66.394 197.303 66.3411 196.955 66.2503C197.658 66.1218 198.301 65.9555 198.868 65.6153C199.45 65.2978 199.956 64.8593 200.455 64.3528H200.463Z" fill="#BF6237"/>
<path d="M198.201 64.2615C198.164 64.458 198.096 64.5412 198.012 64.6017C197.922 64.6546 197.823 64.6773 197.627 64.6319C197.604 64.4278 197.687 64.3219 197.786 64.2463C197.891 64.1859 198.027 64.1556 198.201 64.2615Z" fill="#BF6237"/>
<path d="M198.768 61.1392C198.768 61.744 199.13 62.2354 199.584 62.2354C200.038 62.2354 200.401 61.744 200.401 61.1392C200.401 60.5344 200.038 60.043 199.584 60.043C199.13 60.043 198.768 60.5344 198.768 61.1392Z" fill="#5E2B13"/>
<path d="M198.443 59.9146C198.443 59.9146 198.557 60.0053 198.647 60.028C198.738 60.0583 198.836 60.0734 198.935 60.0809C199.139 60.0961 199.35 60.0809 199.562 60.0507C199.744 60.028 199.91 60.1566 199.94 60.338C199.963 60.5194 199.834 60.6858 199.653 60.716C199.615 60.716 199.577 60.716 199.547 60.716C199.305 60.6706 199.063 60.6177 198.821 60.527C198.7 60.4741 198.587 60.4212 198.474 60.338C198.368 60.2473 198.262 60.1717 198.209 59.9751C198.194 59.9222 198.224 59.8617 198.285 59.8466C198.322 59.839 198.353 59.8466 198.383 59.8693L198.443 59.9222V59.9146Z" fill="#5E2B13"/>
<path d="M198.438 57.9567C198.71 57.9341 199.043 57.9114 199.345 57.9265C199.655 57.9265 199.973 57.9567 200.283 58.0021C200.593 58.0475 200.903 58.1306 201.205 58.2289C201.515 58.3272 201.802 58.4633 202.105 58.5994H202.12C202.226 58.6523 202.354 58.5993 202.4 58.5011C202.437 58.4179 202.415 58.3196 202.347 58.2592C202.082 58.0172 201.795 57.7904 201.47 57.6241C201.152 57.4351 200.804 57.3142 200.457 57.2083C200.101 57.1025 199.731 57.0496 199.368 57.042C198.99 57.042 198.642 57.0571 198.242 57.1781C198.03 57.2385 197.901 57.4653 197.969 57.677C198.022 57.866 198.204 57.9794 198.393 57.9643H198.438V57.9567Z" fill="#5E2B13"/>
<path d="M197.718 57.253C197.673 57.4118 197.733 57.5932 197.854 57.7142C197.975 57.8352 198.126 57.9032 198.278 57.9486H198.285C198.399 57.9864 198.52 57.9259 198.557 57.8125C198.595 57.6991 198.527 57.5781 198.414 57.5403C198.391 57.5328 198.361 57.5328 198.338 57.5328C198.225 57.5403 198.119 57.5328 198.028 57.495C197.983 57.4723 197.945 57.4496 197.915 57.4118C197.885 57.374 197.862 57.3211 197.854 57.2757V57.2606C197.854 57.2606 197.809 57.2001 197.779 57.2077C197.748 57.2077 197.733 57.2304 197.726 57.253H197.718Z" fill="#5E2B13"/>
<path d="M204.496 71.2549C206.563 71.2549 208.238 69.5795 208.238 67.5127C208.238 65.4459 206.563 63.7705 204.496 63.7705C202.429 63.7705 200.754 65.4459 200.754 67.5127C200.754 69.5795 202.429 71.2549 204.496 71.2549Z" fill="#D46C46"/>
<path d="M202.882 72.5929C202.882 72.5929 200.901 72.4115 199.026 70.4685C198.527 69.9545 198.036 69.3043 197.59 68.5029C198.55 72.0334 199.964 75.4355 201.786 78.6107C203.184 77.6505 204.228 77.5069 204.454 77.4842V72.8575C203.978 72.8273 203.706 72.7441 203.706 72.7441L202.882 72.5929Z" fill="#1A223B"/>
<path d="M224.61 77.7181C222.455 75.2611 219.877 73.0158 218.675 69.9691C216.906 65.4482 218.57 60.2092 217.156 55.5673C216.12 52.1578 213.368 49.3303 209.997 48.1963C207.827 47.4706 205.453 47.4176 203.208 47.8712C201.076 48.3022 198.936 49.2472 197.643 50.9935C196.252 52.876 196.041 55.3632 196.071 57.6992C196.079 58.5535 196.116 59.4078 196.184 60.2621C196.26 60.126 196.328 59.9824 196.381 59.8463C196.502 58.3267 196.729 56.8374 196.986 55.5295C199.496 56.278 202.437 55.8773 204.72 54.5996C204.16 55.8622 204.062 57.3212 204.447 58.6442C204.833 59.9672 205.71 61.1466 206.859 61.9026C207.502 61.2751 208.054 60.4284 208.885 60.0958C209.717 59.7631 210.775 59.8236 211.388 60.4738C211.985 61.1088 212 62.1445 211.629 62.9383C211.259 63.7321 210.571 64.3294 209.876 64.8586C209.966 66.0228 210.458 67.187 211.206 68.0867C211.66 68.631 212.212 69.0846 212.832 69.4324V76.7051C213.134 76.7126 213.308 76.7504 213.308 76.7504C215.379 77.1209 216.861 78.1415 217.912 79.3738C218.35 79.593 218.774 79.8652 219.182 80.1978L219.295 80.2961C220.989 81.7174 223.62 85.83 226.054 90.0334C227.007 89.0657 227.71 87.8863 227.982 86.5558C228.647 83.3503 226.765 80.1751 224.602 77.7106L224.61 77.7181Z" fill="#1A223B"/>
<path style="mix-blend-mode:multiply" opacity="0.5" d="M157.819 253.086C157.819 254.885 140.545 256.344 119.241 256.344C97.9367 256.344 80.6621 254.885 80.6621 253.086C80.6621 251.286 97.9367 249.827 119.241 249.827C140.545 249.827 157.819 251.286 157.819 253.086Z" fill="url(#paint2_radial_1_38198)"/>
<path d="M144.277 245.39H131.387L106.779 173.336L107.921 127.908L123.502 123.009L128.696 153.597L144.277 245.39Z" fill="#1C2540"/>
<g style="mix-blend-mode:multiply" opacity="0.5">
<path d="M134.744 245.39H131.38L106.779 173.343L107.913 127.915L123.494 123.009L128.688 153.597C120.69 173.404 119.684 195.351 125.838 215.8L134.744 245.383V245.39Z" fill="#1C2540"/>
</g>
<path d="M132.308 246.334C132.308 246.334 130.6 249.025 132.308 252.654H153.015C153.015 252.654 153.688 251.482 153.015 250.877C152.342 250.272 145.485 250.083 142.431 245.381H132.165L132.308 246.326V246.334Z" fill="#E6E6E6"/>
<path d="M153.316 252.253H131.967V253.085H153.316V252.253Z" fill="#A9C0C4"/>
<path d="M95.2988 124.285C95.2988 124.285 93.1215 132.843 94.7091 139.436L95.2308 191.101L91.3223 245.389H103.471L119.884 140.267L123.505 123L95.2988 124.278V124.285Z" fill="#28365D"/>
<path d="M92.4566 246.334C92.4566 246.334 90.7481 249.025 92.4566 252.654H113.163C113.163 252.654 113.836 251.482 113.163 250.877C112.491 250.272 105.634 250.083 102.579 245.381H92.313L92.4566 246.326V246.334Z" fill="#E6E6E6"/>
<path d="M113.465 252.253H92.1152V253.085H113.465V252.253Z" fill="#A9C0C4"/>
<path d="M109.544 81.7677C111.714 83.5972 114.655 86.1601 117.58 86.591C119.1 86.8178 120.226 86.3642 121.096 85.5175C121.171 85.3209 121.247 85.1168 121.322 84.9202C120.922 84.3154 120.491 83.6653 120.045 82.9471C118.843 81.0117 117.852 79.5073 116.25 78.6303V65.1055H108.236V77.6626C107.48 77.708 106.679 77.7836 105.832 77.8819C106.921 79.2653 108.108 80.5581 109.544 81.7677Z" fill="#EBAF7F"/>
<path d="M116.24 73.7017V75.947C115.953 75.8865 115.658 75.8033 115.34 75.6899C114.275 75.3195 113.057 74.6391 111.833 73.4219C111.311 72.9079 110.827 72.2501 110.389 71.4941C111.455 72.424 112.483 72.9835 113.413 73.301C114.6 73.7168 115.605 73.7546 116.248 73.7017H116.24Z" fill="#E48855"/>
<path d="M124.565 115.621C124.195 120.799 123.885 124.685 123.885 124.685C123.885 124.685 121.027 125.275 116.703 125.706C116.514 125.721 116.325 125.743 116.128 125.758C110.315 126.295 102.112 126.507 94.7109 124.685L98.5439 108.628L99.8064 97.1288L101.863 78.4102C101.863 78.4102 105.182 77.2611 108.236 77.6013C108.236 77.6013 114.443 82.6589 116.219 82.228C116.219 82.228 116.234 82.228 116.242 82.228C116.469 82.1675 116.635 82.0617 116.756 81.9256C117.293 81.3208 116.9 80.0885 116.574 79.3174C116.401 78.9167 116.249 78.637 116.249 78.637C116.249 78.637 116.363 78.6597 116.537 78.7126C116.945 78.826 117.693 79.0831 118.124 79.4913C118.737 80.0734 124.422 88.2231 125.457 90.2114C126.145 91.5117 125.261 105.853 124.573 115.628L124.565 115.621Z" fill="#F36960"/>
<path d="M107.988 77.8208C107.988 77.8208 107.565 73.9955 108.026 73.9577C108.487 73.9199 114.845 76.581 115.306 77.5336C115.767 78.4861 116.448 82.1376 116.448 82.1376C116.448 82.1376 114.497 83.5589 107.988 77.8133V77.8208Z" fill="#E5392D"/>
<path d="M116.447 82.1453L116.197 77.3598L116.243 75.9536C116.243 75.9536 118.11 76.5811 118.571 77.1859C119.032 77.7907 118.881 80.4594 118.881 80.4594C118.881 80.4594 118.616 82.0394 116.447 82.1453Z" fill="#E5392D"/>
<path d="M116.703 125.707C116.514 125.722 116.325 125.745 116.129 125.76C118.117 115.04 116.817 91.2712 116.22 82.2294C116.22 82.2294 116.235 82.2294 116.242 82.2294C116.469 82.1689 116.635 82.0631 116.756 81.927C117.339 90.7193 118.684 114.73 116.703 125.715V125.707Z" fill="#E5392D"/>
<g style="mix-blend-mode:multiply" opacity="0.5">
<path d="M124.565 115.621C124.195 120.8 123.885 124.686 123.885 124.686C123.885 124.686 121.027 125.275 116.703 125.706C116.514 125.721 116.325 125.744 116.128 125.759C110.315 126.296 102.112 126.508 94.7109 124.686L98.5439 108.628L99.8064 97.1295C101.409 96.5549 103.072 96.192 104.736 96.0862C105 102.059 108.039 107.842 112.794 111.471C116.159 114.034 120.332 115.47 124.558 115.621H124.565Z" fill="#871A1A"/>
</g>
<path d="M156.676 107.19V109.95H115.527L122.203 107.697L123.692 107.19H156.676Z" fill="#C7762F"/>
<path d="M151.263 109.951H115.527V144.024H151.263V109.951Z" fill="#EDB320"/>
<path d="M132.153 138.654H117.139V140.748H132.153V138.654Z" fill="#C7762F"/>
<path d="M127.216 136.228H117.139V137.748H127.216V136.228Z" fill="#C7762F"/>
<path d="M148.503 114.865C148.503 116.377 147.279 117.594 145.774 117.594C144.27 117.594 143.045 116.369 143.045 114.865C143.045 113.36 144.27 112.136 145.774 112.136C147.279 112.136 148.503 113.36 148.503 114.865Z" fill="#C7762F"/>
<g style="mix-blend-mode:screen" opacity="0.5">
<path d="M115.528 144.017H117.139V109.945H115.528V144.017Z" fill="#F5AD49"/>
</g>
<path d="M156.677 107.191V140.886L151.264 144.024V109.951L152.708 109.217L156.677 107.191Z" fill="#EDB320"/>
<g style="mix-blend-mode:multiply" opacity="0.5">
<path d="M156.677 134.566V140.886L151.264 144.024V109.951L152.708 109.217C152.572 114.404 152.791 119.59 153.38 124.738C153.66 127.165 154.031 129.622 155.013 131.86C155.437 132.835 155.996 133.757 156.669 134.581L156.677 134.566Z" fill="#E38C3B"/>
</g>
<g style="mix-blend-mode:multiply" opacity="0.5">
<path d="M156.678 107.191V107.569C141.203 109.557 128.132 108.446 122.197 107.69L123.687 107.183H156.671L156.678 107.191Z" fill="#C7762F"/>
</g>
<path d="M121.412 140.788C121.412 140.788 124.217 141 124.383 140.599C124.549 140.198 121.76 139.299 121.76 139.299L119.341 137.704C117.723 135.776 116.082 133.825 114.442 131.845C114.328 131.92 114.222 131.996 114.109 132.064C112.884 133.092 111.531 134.014 110.117 134.891C109.611 135.36 109.082 135.829 108.545 136.29C110.639 138.142 112.763 139.987 114.933 141.824C115.674 142.882 117.458 145.007 117.458 145.007C118.335 145.203 119.333 145.052 119.333 145.052C120.165 145.12 121.291 144.878 121.291 144.878C122.183 144.984 122.758 144.394 122.758 144.394C124.973 144.893 126.175 143.971 126.175 143.971H124.557L121.404 140.803L121.412 140.788Z" fill="#EBAF7F"/>
<path d="M119.241 135.723L118.039 136.721L113.791 140.251L112.785 141.083C112.785 141.083 89.4776 120.3 88.4872 116.747C88.0714 115.273 88.336 112.393 88.7821 109.527C89.4625 105.218 90.5511 100.977 91.9497 96.8416C93.7717 91.4438 96.8335 82.9917 98.9352 80.3382C99.0334 80.2172 99.1242 80.1038 99.2149 80.0131C99.3283 79.8997 99.4492 79.7863 99.5626 79.6804C103.963 75.7266 110.895 79.5141 110.358 85.3958C110.245 86.6432 109.965 87.4068 109.965 87.4068L109.413 89.1304L109.398 89.1682L108.143 93.0768L102.057 113.905L119.249 135.715L119.241 135.723Z" fill="#F36960"/>
<g style="mix-blend-mode:multiply" opacity="0.5">
<path d="M119.24 135.722L118.038 136.72L98.3517 113.223L99.8713 112.18L97.5957 108.566L101.383 109.95L109.389 89.1747L108.134 93.0832L102.049 113.911L119.24 135.722Z" fill="#871A1A"/>
</g>
<g style="mix-blend-mode:screen" opacity="0.5">
<path d="M113.791 140.252L112.785 141.083C112.785 141.083 89.4776 120.301 88.4872 116.748C88.0714 115.274 88.336 112.393 88.7821 109.528C89.4625 105.219 90.5511 100.978 91.9497 96.8422C93.7717 91.4444 96.8335 82.9923 98.9352 80.3387C96.9242 86.5606 88.4419 113.142 89.3415 116.105C90.2638 119.152 110.184 137.024 113.791 140.244V140.252Z" fill="#FF7A46"/>
</g>
<path d="M111.689 126.137C110.676 125.049 109.716 123.915 108.756 122.781C107.796 121.647 106.866 120.49 105.944 119.333C105.029 118.169 104.114 116.997 103.23 115.803L101.907 114.011C101.483 113.399 101.045 112.801 100.629 112.181C101.135 112.726 101.619 113.285 102.118 113.845L103.562 115.538C104.522 116.672 105.452 117.829 106.375 118.985C107.289 120.15 108.204 121.321 109.089 122.516C109.973 123.703 110.858 124.905 111.689 126.137Z" fill="#911B1A"/>
<path d="M109.406 89.1383C108.914 91.2324 108.362 93.3114 107.81 95.3829C107.251 97.4619 106.646 99.5182 106.072 101.59C105.452 103.646 104.847 105.71 104.204 107.759L103.229 110.828C102.881 111.849 102.556 112.869 102.193 113.882C102.435 112.831 102.707 111.796 102.964 110.752L103.789 107.638C104.348 105.566 104.953 103.502 105.527 101.431C106.147 99.3745 106.744 97.3107 107.395 95.2619C108.037 93.2131 108.695 91.1644 109.406 89.1307V89.1383Z" fill="#911B1A"/>
<path d="M126.215 64.0164C126.011 63.2755 125.512 62.6103 125.051 61.9752C124.763 61.5821 124.491 61.1512 124.302 60.6976C124 56.9554 123.1 53.3871 122.586 52.3513C121.77 50.7486 117.385 49.2971 113.076 50.106C108.759 50.8847 105.183 53.8029 104.994 55.5946C104.926 56.275 104.601 58.9966 106.907 65.6721C107.663 67.8191 108.653 69.8074 109.9 71.0321C111.125 72.2493 112.342 72.9297 113.416 73.3001C115.48 74.0183 116.999 73.5874 116.999 73.5874L117.823 73.4362C117.823 73.4362 119.804 73.2623 121.679 71.3118C122.344 70.6239 122.987 69.7167 123.531 68.5146C123.902 67.683 124.143 66.6851 124.28 65.604C124.869 65.5965 125.466 65.3923 125.92 65.0219C126.215 64.78 126.336 64.3793 126.23 64.0089L126.215 64.0164Z" fill="#EBAF7F"/>
<path d="M110.024 63.7744C109.835 63.5476 109.752 63.2452 109.676 62.9655C109.616 62.6782 109.578 62.3682 109.661 62.0431C109.737 61.7105 110.054 61.4232 110.395 61.3627C110.735 61.2871 111.09 61.393 111.362 61.5593C111.892 61.9146 112.3 62.3833 112.496 62.9806C112.685 63.5778 112.625 64.1751 112.527 64.7421C112.451 64.1675 112.421 63.5854 112.194 63.094C111.967 62.6253 111.574 62.1943 111.143 61.9146C110.727 61.6349 110.138 61.6803 109.964 62.1414C109.865 62.3682 109.858 62.6479 109.873 62.9277C109.873 63.2149 109.911 63.4947 110.017 63.7668L110.024 63.7744Z" fill="#E48855"/>
<path d="M111.468 64.9084C111.218 64.7874 111.037 64.5379 110.931 64.2733C110.818 64.0087 110.787 63.7214 110.802 63.4417C110.825 63.1544 110.916 62.8369 111.165 62.6252C111.392 62.4211 111.763 62.3455 111.997 62.5194C111.725 62.5194 111.528 62.6706 111.407 62.8445C111.294 63.0184 111.241 63.2376 111.226 63.4644C111.196 63.9407 111.226 64.417 111.468 64.9008V64.9084Z" fill="#E48855"/>
<path d="M120.781 67.0098C121.008 67.0929 121.197 67.1988 121.401 67.2819C121.598 67.3878 121.802 67.4558 122.006 67.5843C121.764 67.6297 121.53 67.5616 121.31 67.4785C121.099 67.3651 120.902 67.229 120.781 67.0173V67.0098Z" fill="#E48855"/>
<path d="M120.229 65.2036C120.727 65.7101 121.234 66.1486 121.816 66.4661C122.103 66.6324 122.406 66.761 122.723 66.8592C123.041 66.9726 123.381 67.018 123.729 67.0936C123.381 67.1919 123.018 67.2297 122.655 67.1692C122.285 67.1314 121.937 67.0029 121.612 66.8214C121.294 66.64 121 66.4056 120.765 66.1259C120.531 65.8462 120.334 65.5362 120.229 65.1885V65.2036Z" fill="#E48855"/>
<path d="M122.488 65.112C122.579 65.0591 122.647 65.0439 122.715 65.0439C122.79 65.0439 122.843 65.0666 122.896 65.0969C122.949 65.1347 122.995 65.1725 123.017 65.2405C123.047 65.301 123.07 65.3766 123.055 65.4749C122.957 65.5051 122.889 65.4975 122.828 65.4975C122.76 65.4975 122.715 65.4749 122.669 65.4446C122.632 65.4144 122.586 65.3841 122.556 65.3237C122.526 65.2707 122.496 65.2103 122.48 65.1044L122.488 65.112Z" fill="#E48855"/>
<path d="M121.922 61.9898C121.922 62.5946 121.559 63.086 121.106 63.086C120.652 63.086 120.289 62.5946 120.289 61.9898C120.289 61.385 120.652 60.8936 121.106 60.8936C121.559 60.8936 121.922 61.385 121.922 61.9898Z" fill="#5E2B13"/>
<path d="M122.255 58.8073C121.983 58.7847 121.65 58.762 121.348 58.7771C121.038 58.7771 120.72 58.8073 120.41 58.8527C120.1 58.8981 119.79 58.9812 119.488 59.0795C119.178 59.1778 118.891 59.3139 118.588 59.4499H118.573C118.467 59.5029 118.339 59.4499 118.294 59.3517C118.256 59.2685 118.278 59.1702 118.347 59.1097C118.611 58.8678 118.898 58.641 119.223 58.4747C119.541 58.2857 119.889 58.1647 120.237 58.0589C120.592 57.9531 120.962 57.9001 121.325 57.8926C121.703 57.8926 122.051 57.9077 122.452 58.0287C122.663 58.0891 122.792 58.3159 122.724 58.5276C122.671 58.7166 122.489 58.83 122.3 58.8149H122.255V58.8073Z" fill="#5E2B13"/>
<path d="M122.979 58.1036C123.024 58.2624 122.963 58.4438 122.842 58.5648C122.722 58.6857 122.57 58.7538 122.419 58.7992H122.412C122.298 58.837 122.177 58.7765 122.139 58.6631C122.102 58.5497 122.17 58.4287 122.283 58.3909C122.306 58.3834 122.336 58.3834 122.359 58.3834C122.472 58.3909 122.578 58.3834 122.669 58.3456C122.714 58.3229 122.752 58.3002 122.782 58.2624C122.812 58.2246 122.835 58.1717 122.842 58.1263V58.1112C122.842 58.1112 122.888 58.0507 122.918 58.0583C122.948 58.0583 122.963 58.0809 122.971 58.1036H122.979Z" fill="#5E2B13"/>
<path d="M119.934 68.3555C119.934 70.4194 118.255 72.0977 116.191 72.0977C114.128 72.0977 112.449 70.4194 112.449 68.3555C112.449 66.2916 114.128 64.6133 116.191 64.6133C118.255 64.6133 119.934 66.2916 119.934 68.3555Z" fill="#E9A770"/>
<path d="M115.488 56.3968C115.76 58.9294 114.981 61.5603 113.371 63.541C113.22 62.3617 112.312 61.3108 111.178 60.9404C110.619 60.759 109.961 60.759 109.5 61.1143C108.933 61.5452 108.827 62.3692 108.963 63.0648C109.198 64.2744 110.037 65.3479 111.148 65.862C110.974 66.6255 110.543 67.442 110.203 68.1451C109.863 68.8482 109.334 69.4908 108.623 69.8234C106.544 67.3362 105.35 64.2214 105.478 60.9858C105.546 59.2848 105.07 57.4326 105.75 55.8676C106.423 54.3027 107.64 53.0024 109.062 52.065C110.483 51.1275 112.108 50.5303 113.764 50.1447C114.278 50.0238 114.807 49.9255 115.329 49.9557C115.858 49.986 116.387 50.1598 116.765 50.5303C117.249 50.999 117.415 51.7096 117.423 52.39C117.453 54.0154 116.758 55.3914 115.48 56.4044L115.488 56.3968Z" fill="#5E2B13"/>
<path d="M110.246 49.4262C110.246 49.4262 109.574 49.0028 110.148 48.5265C110.73 48.0502 111.819 48.1561 111.653 48.9045L110.246 49.4262Z" fill="#FF814F"/>
<path d="M105.46 62.4974C105.46 62.4974 102.05 55.4439 107.637 50.8928C113.224 46.3416 122.13 47.8159 123.732 53.9697L117.442 57.4246L105.46 62.4898V62.4974Z" fill="#FF4846"/>
<path d="M111.152 48.9346C111.152 48.9346 117.82 52.4273 117.291 57.4698L125.07 54.2719C125.07 54.2719 121.638 45.268 111.152 48.9346Z" fill="#C42C2B"/>
<path d="M104.524 59.1023C104.524 59.1023 105.008 58.6487 105.673 58.9738C106.043 59.1552 106.293 59.5181 106.399 59.9112L106.603 60.6899L105.038 61.3778C105.038 61.3778 104.509 60.0473 104.524 59.0947V59.1023Z" fill="#5E2B13"/>
<path d="M113.074 59.2771C113.074 59.2771 124.407 54.6579 124.414 53.0023C124.414 53.0023 129.774 50.825 131.627 53.1686C133.479 55.5122 111.502 59.9423 111.502 59.9423L113.074 59.2771Z" fill="#E5392D"/>
<defs>
<linearGradient id="paint0_linear_1_38198" x1="41.6008" y1="248.164" x2="41.7898" y2="273.838" gradientUnits="userSpaceOnUse">
<stop offset="0.24" stop-color="#9C9C9C"/>
<stop offset="1" stop-color="white" stop-opacity="0"/>
</linearGradient>
<radialGradient id="paint1_radial_1_38198" cx="0" cy="0" r="1" gradientUnits="userSpaceOnUse" gradientTransform="translate(226.268 254.626) scale(40.8467 3.6762)">
<stop offset="0.41" stop-color="#9C9C9C"/>
<stop offset="1" stop-color="white" stop-opacity="0"/>
</radialGradient>
<radialGradient id="paint2_radial_1_38198" cx="0" cy="0" r="1" gradientUnits="userSpaceOnUse" gradientTransform="translate(119.241 252.673) scale(39.312 2.75184)">
<stop offset="0.41" stop-color="#9C9C9C"/>
<stop offset="1" stop-color="white" stop-opacity="0"/>
</radialGradient>
</defs>
</svg>
