<svg width="167" height="167" viewBox="0 0 167 167" fill="none" xmlns="http://www.w3.org/2000/svg">
<circle cx="83.5" cy="83.5" r="83.5" fill="white"/>
<rect x="50" y="47" width="66.7805" height="74" rx="9.02439" fill="#D7E0FB"/>
<rect x="50" y="66.8536" width="66.7805" height="54.1463" rx="9.02439" fill="#315DE4"/>
<circle cx="74.8166" cy="59.183" r="2.2561" fill="#315DE4"/>
<circle cx="92.8655" cy="59.183" r="2.2561" fill="#315DE4"/>
<path d="M68.9911 74.0731C67.9148 74.0731 67.0302 74.9488 67.159 76.0174C67.3356 77.4827 67.7116 78.9202 68.2787 80.2894C69.095 82.2602 70.2916 84.0509 71.7999 85.5593C73.3083 87.0677 75.099 88.2642 77.0698 89.0805C79.0406 89.8969 81.1529 90.317 83.2861 90.317C85.4193 90.317 87.5316 89.8969 89.5024 89.0805C91.4732 88.2642 93.2639 87.0677 94.7723 85.5593C96.2807 84.0509 97.4772 82.2602 98.2935 80.2894C98.8607 78.9202 99.2366 77.4827 99.4132 76.0174C99.5421 74.9488 98.6575 74.0731 97.5811 74.0731C96.5048 74.0731 95.6479 74.951 95.4787 76.0139C95.327 76.9673 95.0636 77.9018 94.6924 78.7978C94.072 80.2957 93.1626 81.6567 92.0161 82.8031C90.8697 83.9496 89.5087 84.859 88.0108 85.4794C86.5129 86.0999 84.9074 86.4192 83.2861 86.4192C81.6648 86.4192 80.0594 86.0999 78.5615 85.4794C77.0636 84.859 75.7025 83.9496 74.5561 82.8031C73.4097 81.6567 72.5002 80.2957 71.8798 78.7978C71.5087 77.9018 71.2453 76.9673 71.0935 76.0139C70.9243 74.951 70.0675 74.0731 68.9911 74.0731Z" fill="white"/>
</svg>
