<svg width="215" height="212" viewBox="0 0 215 212" fill="none" xmlns="http://www.w3.org/2000/svg">
<path d="M53.9579 35.2097C53.9579 35.2097 86.1171 59.6134 135.007 13.9825C178.426 -26.542 213.879 37.3965 214.127 68.0154C214.449 107.68 170.707 139.415 191.935 165.467C213.162 191.519 149.838 234.539 115.71 197.308C73.2554 150.994 61.7537 188.624 37.5551 188.624C20.1874 188.624 -15.4703 145.47 8.60899 113.364C28.8713 86.348 17.821 77.3817 12.4684 68.0154C4.74948 54.5072 23.0821 17.842 53.9579 35.2097Z" fill="#DEE9FF"/>
<path d="M105.992 90.6988V181.259L35.6797 150.889L36.0151 60.6562L105.992 90.6988Z" fill="#418DF9"/>
<path d="M105.992 90.7529V181.313L175.963 151.992V60.9453L105.992 90.7529Z" fill="#A2BDFF"/>
<path d="M105.992 90.7012L176.305 61.2509L106.544 30.3281L35.6797 60.5147L105.992 90.7012Z" fill="#699CFF"/>
<path d="M62.1875 49.2262L132.232 79.7138L132.868 101.931L152.466 93.8447L151.873 71.4871L79.7565 41.7422L62.1875 49.2262Z" fill="#418DF9"/>
<path d="M128.237 123.244C129.347 123.244 130.247 121.601 130.247 119.575C130.247 117.549 129.347 115.906 128.237 115.906C127.127 115.906 126.227 117.549 126.227 119.575C126.227 121.601 127.127 123.244 128.237 123.244Z" fill="white"/>
<path d="M160.627 110.056C161.737 110.056 162.637 108.414 162.637 106.388C162.637 104.361 161.737 102.719 160.627 102.719C159.517 102.719 158.617 104.361 158.617 106.388C158.617 108.414 159.517 110.056 160.627 110.056Z" fill="white"/>
<path d="M139.891 142.613L138.586 142.106C141.478 134.661 145.104 130.559 149.365 129.915C153.441 129.299 156.874 132.107 158.12 133.677L157.023 134.547C156.161 133.461 153.145 130.76 149.575 131.299C145.898 131.855 142.55 135.767 139.891 142.613Z" fill="white"/>
</svg>
