<svg width="391" height="14" viewBox="0 0 391 14" fill="none" xmlns="http://www.w3.org/2000/svg">
<path d="M10.8611 0.49408L0 13.4531V0.49408L391 0.494629V13.4531L380.139 0.49408L369.278 13.4531L358.417 0.49408L347.556 13.4531L336.694 0.49408L325.833 13.4531L314.972 0.49408L304.111 13.4531L293.25 0.49408L282.389 13.4531L271.528 0.49408L260.667 13.4531L249.806 0.49408L238.944 13.4531L228.083 0.49408L217.222 13.4531L206.361 0.49408L195.5 13.4531L184.639 0.49408L173.778 13.4531L162.917 0.49408L152.056 13.4531L141.194 0.49408L130.333 13.4531L119.472 0.49408L108.611 13.4531L97.75 0.49408L86.8889 13.4531L76.0278 0.49408L65.1667 13.4531L54.3056 0.49408L43.4444 13.4531L32.5833 0.49408L21.7222 13.4531L10.8611 0.49408Z" fill="white"/>
</svg>
