<svg width="25" height="26" viewBox="0 0 25 26" fill="none" xmlns="http://www.w3.org/2000/svg">
<g clip-path="url(#clip0_170_7411)">
<path d="M12.4995 25.5264C19.3154 25.5264 24.8408 20.001 24.8408 13.1851C24.8408 6.36914 19.3154 0.84375 12.4995 0.84375C5.68359 0.84375 0.158203 6.36914 0.158203 13.1851C0.158203 20.001 5.68359 25.5264 12.4995 25.5264Z" fill="#F0F0F0"/>
<path d="M12.4995 0.84375C7.60669 0.84375 3.37902 3.69117 1.38281 7.81929H23.6162C21.6201 3.69117 17.3923 0.84375 12.4995 0.84375Z" fill="#FF9811"/>
<path d="M12.4995 25.5264C17.3923 25.5264 21.6201 22.679 23.6163 18.5509H1.38281C3.37902 22.679 7.60669 25.5264 12.4995 25.5264Z" fill="#6DA544"/>
<path d="M12.4996 17.4777C14.8704 17.4777 16.7922 15.5558 16.7922 13.1851C16.7922 10.8143 14.8704 8.89246 12.4996 8.89246C10.1289 8.89246 8.20703 10.8143 8.20703 13.1851C8.20703 15.5558 10.1289 17.4777 12.4996 17.4777Z" fill="#0052B4"/>
<path d="M12.4993 15.868C13.981 15.868 15.1822 14.6668 15.1822 13.1851C15.1822 11.7034 13.981 10.5022 12.4993 10.5022C11.0176 10.5022 9.81641 11.7034 9.81641 13.1851C9.81641 14.6668 11.0176 15.868 12.4993 15.868Z" fill="#F0F0F0"/>
<path d="M12.4999 9.87439L13.3276 11.7515L15.367 11.5297L14.1552 13.185L15.367 14.8404L13.3276 14.6186L12.4999 16.4957L11.6722 14.6186L9.63281 14.8403L10.8446 13.185L9.63281 11.5297L11.6722 11.7515L12.4999 9.87439Z" fill="#0052B4"/>
</g>
<defs>
<clipPath id="clip0_170_7411">
<rect width="24.6826" height="24.6826" fill="white" transform="translate(0.158203 0.84375)"/>
</clipPath>
</defs>
</svg>
