<svg width="183" height="189" viewBox="0 0 183 189" fill="none" xmlns="http://www.w3.org/2000/svg">
<path d="M2.53616 160.253C9.53025 177.321 20.9341 180.874 28.9524 177.321C44.4593 170.451 84.7408 162.774 126.111 180.819C180.904 204.718 192.562 168.66 175.075 132.187C157.588 95.7146 151.66 58.8305 171.82 38.5094C191.98 18.1883 165.599 -13.6007 118.75 19.4896C88.4741 40.8738 66.2552 36.112 54.3239 30.0667C43.0789 24.3692 30.5731 18.4128 18.8564 23.0634C4.63915 28.7068 -0.962339 40.9423 20.6678 68.2759C51.3208 107.01 -13.143 121.996 2.53616 160.253Z" fill="#DEE9FF"/>
<path d="M160.936 42.4313C160.75 42.6671 160.541 42.8841 160.312 43.0792L143.969 57.2227L131.771 94.2728L97.7649 119.122C97.7649 119.122 91.9706 123.976 86.6816 124.426C85.4976 124.84 81.9105 126.236 79.9237 128.393C79.2832 129.089 74.2598 143.924 66.4688 164.903C66.0788 165.953 65.3105 166.819 64.3147 167.332C63.3188 167.844 62.1674 167.966 61.0864 167.673C51.3506 165.031 29.5438 159.212 19.1685 155.281C18.5291 155.04 17.9587 154.645 17.507 154.132C17.0554 153.619 16.7363 153.003 16.5776 152.338C16.419 151.674 16.4256 150.98 16.597 150.318C16.7684 149.657 17.0992 149.047 17.5607 148.543C29.4829 135.511 54.5485 105.683 54.5485 105.683L56.2491 102.151C56.2491 102.151 66.9572 68.6939 70.4596 66.5193C71.7841 65.0811 79.4029 53.9282 82.4007 46.1477C83.082 45.0154 86.2421 40.3028 88.889 36.234C90.7646 33.3253 92.3926 30.7377 92.6703 29.9986C92.7301 29.8293 92.8302 29.677 92.962 29.5549C92.962 29.5549 92.9536 29.5526 92.9643 29.5465C94.2274 28.2271 98.4183 28.5251 98.6216 33.5339C98.8489 39.0591 93.88 50.5209 92.88 50.8332C92.374 52.0522 90.9364 58.6174 88.1241 64.1763C87.8819 65.0165 87.5202 67.1871 89.8922 66.6606C92.2666 66.1257 147.187 40.2526 147.187 40.2526L153.999 35.9736C155.002 35.3243 156.195 35.0333 157.385 35.148C158.794 35.31 160.086 36.0117 160.988 37.1056C162.932 39.3578 161.662 41.5214 160.936 42.4313Z" fill="#699CFF"/>
<path d="M91.6661 37.1429C90.6847 37.233 89.6829 36.7624 88.8896 36.2332C90.7652 33.3245 92.3933 30.737 92.6709 29.9979C92.7307 29.8285 92.8308 29.6763 92.9626 29.5542C95.2229 32.2533 91.937 36.866 91.6661 37.1429Z" fill="#D4E5FF"/>
<path d="M147.789 31.1791L107.543 19.5787C104.737 18.7698 101.806 20.3891 100.997 23.1957L76.6435 107.686C75.8345 110.492 77.4539 113.423 80.2604 114.232L120.506 125.832C123.313 126.641 126.244 125.022 127.053 122.215L151.406 37.7255C152.215 34.919 150.595 31.9881 147.789 31.1791Z" fill="#0E84E5"/>
<path d="M145.673 33.295L108.208 22.496C106.103 21.8893 103.905 23.1038 103.298 25.2087L79.6631 107.206C79.0564 109.311 80.271 111.509 82.3758 112.116L119.841 122.915C121.946 123.522 124.144 122.307 124.751 120.202L148.386 38.2048C148.993 36.0999 147.778 33.9017 145.673 33.295Z" fill="#D4E5FF"/>
<path d="M147.59 60.9372L140.836 60.8839C137.495 60.8575 134.765 63.5447 134.738 66.8858C134.712 70.2269 137.399 72.9568 140.74 72.9832L147.495 73.0365C150.836 73.0628 153.566 70.3757 153.592 67.0346C153.619 63.6934 150.932 60.9636 147.59 60.9372Z" fill="#699CFF"/>
<path d="M145.249 73.4417L136.696 73.3743C133.987 73.3529 131.773 75.532 131.752 78.2413C131.73 80.9507 133.91 83.1644 136.619 83.1858L145.171 83.2533C147.881 83.2746 150.094 81.0956 150.116 78.3862C150.137 75.6768 147.958 73.4631 145.249 73.4417Z" fill="#699CFF"/>
<path d="M139.545 84.177L134.492 84.1372C132.444 84.121 130.771 85.7681 130.755 87.816C130.739 89.8639 132.386 91.5372 134.434 91.5533L139.487 91.5932C141.535 91.6093 143.208 89.9623 143.224 87.9144C143.24 85.8664 141.593 84.1932 139.545 84.177Z" fill="#699CFF"/>
<path d="M136.572 85.5189L133.62 85.4956C133.109 85.4916 132.691 85.9026 132.687 86.4137L132.666 89.055C132.662 89.5661 133.073 89.9837 133.584 89.9878L136.537 90.0111C137.048 90.0151 137.465 89.604 137.469 89.0929L137.49 86.4516C137.494 85.9405 137.083 85.5229 136.572 85.5189Z" fill="#D4E5FF"/>
<path d="M139.566 75.7024L136.258 75.6763C135.163 75.6676 134.268 76.5485 134.259 77.6438L134.247 79.2435C134.238 80.3388 135.119 81.2337 136.214 81.2423L139.522 81.2684C140.617 81.277 141.512 80.3962 141.52 79.3009L141.533 77.7012C141.542 76.6059 140.661 75.711 139.566 75.7024Z" fill="#D4E5FF"/>
<path d="M143.803 63.0134L141.132 62.9923C139.672 62.9808 138.479 64.1553 138.467 65.6156L138.451 67.7159C138.439 69.1762 139.614 70.3694 141.074 70.3809L143.745 70.402C145.205 70.4135 146.398 69.239 146.41 67.7787L146.426 65.6784C146.438 64.2181 145.263 63.0249 143.803 63.0134Z" fill="#D4E5FF"/>
<path d="M170.687 2.09395C166.395 -0.527313 162.87 0.812936 161.821 2.53026C161.064 3.77055 161.763 4.98361 162.622 5.50797C164.339 6.55642 165.135 3.68064 168.378 5.6612C169.968 6.63204 170.812 8.10847 169.919 9.57115C168.87 11.2883 166.488 11.1868 164.895 11.4364C163.487 11.6684 161.483 12.2345 159.813 14.9692C158.803 16.6227 158.957 17.3715 160.26 18.1677C161.818 19.1189 162.563 18.6136 162.932 18.009C163.942 16.3554 164.557 15.4208 167.14 15.1213C168.407 14.9779 172.43 14.4657 174.255 11.4766C176.081 8.48752 174.757 4.5793 170.687 2.09395Z" fill="#0E84E5"/>
<path d="M158.952 20.3808C158.63 20.1844 158.273 20.0533 157.901 19.995C157.529 19.9366 157.149 19.9521 156.782 20.0406C156.416 20.1292 156.071 20.289 155.767 20.5109C155.462 20.7328 155.204 21.0126 155.008 21.3341C154.812 21.6557 154.68 22.0128 154.622 22.385C154.564 22.7572 154.579 23.1373 154.668 23.5036C154.756 23.8698 154.916 24.215 155.138 24.5195C155.36 24.824 155.64 25.0817 155.961 25.2781C156.611 25.6747 157.391 25.7971 158.131 25.6183C158.87 25.4395 159.509 24.9742 159.905 24.3248C160.302 23.6754 160.424 22.895 160.245 22.1554C160.067 21.4157 159.601 20.7774 158.952 20.3808Z" fill="#0E84E5"/>
</svg>
