<svg width="220" height="188" viewBox="0 0 220 188" fill="none" xmlns="http://www.w3.org/2000/svg">
<path d="M148.595 8.60411C148.595 8.60411 118.646 46.5398 70.7272 23.9114C22.8084 1.28309 -25.1105 62.5128 16.1529 99.7829C57.4164 137.053 17.037 157.533 45.0698 180.374C76.9309 206.335 104.67 153.692 129.96 165.671C185.777 192.111 227.129 181.644 217.811 151.029C201.456 97.2892 180.541 93.7931 196.514 65.8405C212.487 37.8878 177.234 -20.2327 148.595 8.60411Z" fill="#DEE9FF"/>
<path d="M132.288 113.524L129.922 126.227L118.652 186.612L98.3516 182.822L111.368 113.066L111.987 109.742L132.288 113.524Z" fill="#699CFF"/>
<path d="M182.284 83.1479L175.284 120.676C175.264 120.786 175.222 120.891 175.161 120.985C175.099 121.079 175.021 121.16 174.928 121.223C174.836 121.286 174.732 121.33 174.623 121.354C174.513 121.377 174.4 121.378 174.29 121.357L75.9453 103.015L87.5205 40.9531L162.2 54.8817C175.735 57.4057 184.725 70.0583 182.284 83.1479Z" fill="#A2BDFF"/>
<path d="M108.528 70.5513L101.583 107.788L49.9609 98.1605L56.9061 60.9233C59.4632 47.2131 73.0924 38.2538 87.3471 40.9124C101.602 43.571 111.085 56.8408 108.528 70.5513Z" fill="#699CFF"/>
<path d="M132.563 87.9608C128.759 87.2512 126.249 83.5541 126.966 79.7148C127.682 75.8754 131.356 73.3308 135.16 74.0407C136.372 74.2685 137.503 74.8134 138.437 75.62C139.371 76.4266 140.074 77.466 140.476 78.6327L188.528 87.5949L187.23 94.5552L139.177 85.5929C138.382 86.5366 137.351 87.2528 136.19 87.6687C135.028 88.0846 133.777 88.1854 132.563 87.9608Z" fill="#418DF9"/>
<path d="M106.818 71.2337L100.051 107.514L51.4219 98.4439L58.1891 62.1636C60.6804 48.8059 73.5865 40.0072 87.0151 42.5118C100.444 45.0164 109.309 57.8758 106.818 71.2337Z" fill="#418DF9"/>
<path d="M133.923 84.4397C135.878 84.4397 137.463 82.8547 137.463 80.8996C137.463 78.9444 135.878 77.3594 133.923 77.3594C131.968 77.3594 130.383 78.9444 130.383 80.8996C130.383 82.8547 131.968 84.4397 133.923 84.4397Z" fill="white"/>
<path d="M189.08 87.5651L184.835 110.323C184.817 110.421 184.761 110.508 184.678 110.564C184.596 110.621 184.495 110.642 184.397 110.624L173.239 108.543C173.22 108.539 173.203 108.528 173.191 108.512C173.18 108.496 173.176 108.476 173.18 108.456L177.48 85.4015C177.483 85.3822 177.494 85.3651 177.511 85.3539C177.527 85.3428 177.547 85.3386 177.566 85.3422L189.021 87.4786C189.04 87.4822 189.057 87.4933 189.068 87.5096C189.08 87.5258 189.084 87.5458 189.08 87.5651Z" fill="#699CFF"/>
<path d="M67.5128 85.4235C67.9827 88.88 71.7756 92.9883 71.7756 92.9883C65.9961 93.3979 62.8661 90.1295 61.5193 88.1434C59.8542 88.6246 58.1428 88.9283 56.4138 89.0495C44.5487 89.8905 34.3346 82.1441 33.5969 71.7388C32.8592 61.3334 41.8787 52.2236 53.7439 51.3828C65.609 50.5419 75.8224 58.2879 76.5599 68.6934C77.0397 75.4617 73.3875 81.6828 67.5128 85.4235Z" fill="white"/>
<path d="M101.631 107.811C101.094 109.171 91.2683 149.686 59.4718 143.756C24.6049 137.853 49.825 98.1484 49.825 98.1484L101.631 107.811Z" fill="#A2BDFF"/>
<path d="M55.0751 73.7908C56.7044 73.7908 58.0252 72.47 58.0252 70.8407C58.0252 69.2114 56.7044 67.8906 55.0751 67.8906C53.4458 67.8906 52.125 69.2114 52.125 70.8407C52.125 72.47 53.4458 73.7908 55.0751 73.7908Z" fill="#699CFF"/>
<path d="M41.8741 72.506C43.5132 72.506 44.842 71.1773 44.842 69.5382C44.842 67.8991 43.5132 66.5703 41.8741 66.5703C40.235 66.5703 38.9062 67.8991 38.9062 69.5382C38.9062 71.1773 40.235 72.506 41.8741 72.506Z" fill="#699CFF"/>
<path d="M68.1554 75.0451C69.7945 75.0451 71.1232 73.7163 71.1232 72.0772C71.1232 70.4381 69.7945 69.1094 68.1554 69.1094C66.5163 69.1094 65.1875 70.4381 65.1875 72.0772C65.1875 73.7163 66.5163 75.0451 68.1554 75.0451Z" fill="#699CFF"/>
<path d="M132.295 113.524L129.929 126.227L111.375 113.066L111.994 109.742L132.295 113.524Z" fill="#418DF9"/>
</svg>
