<svg width="269" height="26" viewBox="0 0 269 26" fill="none" xmlns="http://www.w3.org/2000/svg">
<path d="M12.9736 7.432C12.9736 8.328 12.7576 9.168 12.3256 9.952C11.9096 10.736 11.2456 11.368 10.3336 11.848C9.43756 12.328 8.30156 12.568 6.92556 12.568H4.11756V19H0.757563V2.248H6.92556C8.22156 2.248 9.32556 2.472 10.2376 2.92C11.1496 3.368 11.8296 3.984 12.2776 4.768C12.7416 5.552 12.9736 6.44 12.9736 7.432ZM6.78156 9.856C7.70956 9.856 8.39756 9.648 8.84556 9.232C9.29356 8.8 9.51756 8.2 9.51756 7.432C9.51756 5.8 8.60556 4.984 6.78156 4.984H4.11756V9.856H6.78156ZM14.4951 12.304C14.4951 10.96 14.7591 9.768 15.2871 8.728C15.8311 7.688 16.5591 6.888 17.4711 6.328C18.3991 5.768 19.4311 5.488 20.5671 5.488C21.5591 5.488 22.4231 5.688 23.1591 6.088C23.9111 6.488 24.5111 6.992 24.9591 7.6V5.704H28.3431V19H24.9591V17.056C24.5271 17.68 23.9271 18.2 23.1591 18.616C22.4071 19.016 21.5351 19.216 20.5431 19.216C19.4231 19.216 18.3991 18.928 17.4711 18.352C16.5591 17.776 15.8311 16.968 15.2871 15.928C14.7591 14.872 14.4951 13.664 14.4951 12.304ZM24.9591 12.352C24.9591 11.536 24.7991 10.84 24.4791 10.264C24.1591 9.672 23.7271 9.224 23.1831 8.92C22.6391 8.6 22.0551 8.44 21.4311 8.44C20.8071 8.44 20.2311 8.592 19.7031 8.896C19.1751 9.2 18.7431 9.648 18.4071 10.24C18.0871 10.816 17.9271 11.504 17.9271 12.304C17.9271 13.104 18.0871 13.808 18.4071 14.416C18.7431 15.008 19.1751 15.464 19.7031 15.784C20.2471 16.104 20.8231 16.264 21.4311 16.264C22.0551 16.264 22.6391 16.112 23.1831 15.808C23.7271 15.488 24.1591 15.04 24.4791 14.464C24.7991 13.872 24.9591 13.168 24.9591 12.352ZM44.3448 5.704L36.1128 25.288H32.5368L35.4168 18.664L30.0888 5.704H33.8568L37.2888 14.992L40.7688 5.704H44.3448ZM62.668 5.512C64.3 5.512 65.612 6.016 66.604 7.024C67.612 8.016 68.116 9.408 68.116 11.2V19H64.756V11.656C64.756 10.616 64.492 9.824 63.964 9.28C63.436 8.72 62.716 8.44 61.804 8.44C60.892 8.44 60.164 8.72 59.62 9.28C59.092 9.824 58.828 10.616 58.828 11.656V19H55.468V11.656C55.468 10.616 55.204 9.824 54.676 9.28C54.148 8.72 53.428 8.44 52.516 8.44C51.588 8.44 50.852 8.72 50.308 9.28C49.78 9.824 49.516 10.616 49.516 11.656V19H46.156V5.704H49.516V7.312C49.948 6.752 50.5 6.312 51.172 5.992C51.86 5.672 52.612 5.512 53.428 5.512C54.468 5.512 55.396 5.736 56.212 6.184C57.028 6.616 57.66 7.24 58.108 8.056C58.54 7.288 59.164 6.672 59.98 6.208C60.812 5.744 61.708 5.512 62.668 5.512ZM83.6644 12.064C83.6644 12.544 83.6324 12.976 83.5684 13.36H73.8484C73.9284 14.32 74.2644 15.072 74.8564 15.616C75.4484 16.16 76.1764 16.432 77.0404 16.432C78.2884 16.432 79.1764 15.896 79.7044 14.824H83.3284C82.9444 16.104 82.2084 17.16 81.1204 17.992C80.0324 18.808 78.6964 19.216 77.1124 19.216C75.8324 19.216 74.6804 18.936 73.6564 18.376C72.6484 17.8 71.8564 16.992 71.2804 15.952C70.7204 14.912 70.4404 13.712 70.4404 12.352C70.4404 10.976 70.7204 9.768 71.2804 8.728C71.8404 7.688 72.6244 6.888 73.6324 6.328C74.6404 5.768 75.8004 5.488 77.1124 5.488C78.3764 5.488 79.5044 5.76 80.4964 6.304C81.5044 6.848 82.2804 7.624 82.8244 8.632C83.3844 9.624 83.6644 10.768 83.6644 12.064ZM80.1844 11.104C80.1684 10.24 79.8564 9.552 79.2484 9.04C78.6404 8.512 77.8964 8.248 77.0164 8.248C76.1844 8.248 75.4804 8.504 74.9044 9.016C74.3444 9.512 74.0004 10.208 73.8724 11.104H80.1844ZM93.4849 5.512C95.0689 5.512 96.3489 6.016 97.3249 7.024C98.3009 8.016 98.7889 9.408 98.7889 11.2V19H95.4289V11.656C95.4289 10.6 95.1649 9.792 94.6369 9.232C94.1089 8.656 93.3889 8.368 92.4769 8.368C91.5489 8.368 90.8129 8.656 90.2689 9.232C89.7409 9.792 89.4769 10.6 89.4769 11.656V19H86.1169V5.704H89.4769V7.36C89.9249 6.784 90.4929 6.336 91.1809 6.016C91.8849 5.68 92.6529 5.512 93.4849 5.512ZM105.896 8.464V14.896C105.896 15.344 106 15.672 106.208 15.88C106.432 16.072 106.8 16.168 107.312 16.168H108.872V19H106.76C103.928 19 102.512 17.624 102.512 14.872V8.464H100.928V5.704H102.512V2.416H105.896V5.704H108.872V8.464H105.896ZM122.096 19.216C121.008 19.216 120.032 19.024 119.168 18.64C118.304 18.24 117.616 17.704 117.104 17.032C116.608 16.36 116.336 15.616 116.288 14.8H119.672C119.736 15.312 119.984 15.736 120.416 16.072C120.864 16.408 121.416 16.576 122.072 16.576C122.712 16.576 123.208 16.448 123.56 16.192C123.928 15.936 124.112 15.608 124.112 15.208C124.112 14.776 123.888 14.456 123.44 14.248C123.008 14.024 122.312 13.784 121.352 13.528C120.36 13.288 119.544 13.04 118.904 12.784C118.28 12.528 117.736 12.136 117.272 11.608C116.824 11.08 116.6 10.368 116.6 9.472C116.6 8.736 116.808 8.064 117.224 7.456C117.656 6.848 118.264 6.368 119.048 6.016C119.848 5.664 120.784 5.488 121.856 5.488C123.44 5.488 124.704 5.888 125.648 6.688C126.592 7.472 127.112 8.536 127.208 9.88H123.992C123.944 9.352 123.72 8.936 123.32 8.632C122.936 8.312 122.416 8.152 121.76 8.152C121.152 8.152 120.68 8.264 120.344 8.488C120.024 8.712 119.864 9.024 119.864 9.424C119.864 9.872 120.088 10.216 120.536 10.456C120.984 10.68 121.68 10.912 122.624 11.152C123.584 11.392 124.376 11.64 125 11.896C125.624 12.152 126.16 12.552 126.608 13.096C127.072 13.624 127.312 14.328 127.328 15.208C127.328 15.976 127.112 16.664 126.68 17.272C126.264 17.88 125.656 18.36 124.856 18.712C124.072 19.048 123.152 19.216 122.096 19.216ZM142.638 5.704V19H139.254V17.32C138.822 17.896 138.254 18.352 137.55 18.688C136.862 19.008 136.11 19.168 135.294 19.168C134.254 19.168 133.334 18.952 132.534 18.52C131.734 18.072 131.102 17.424 130.638 16.576C130.19 15.712 129.966 14.688 129.966 13.504V5.704H133.326V13.024C133.326 14.08 133.59 14.896 134.118 15.472C134.646 16.032 135.366 16.312 136.278 16.312C137.206 16.312 137.934 16.032 138.462 15.472C138.99 14.896 139.254 14.08 139.254 13.024V5.704H142.638ZM145.089 12.352C145.089 10.976 145.369 9.776 145.929 8.752C146.489 7.712 147.265 6.912 148.257 6.352C149.249 5.776 150.385 5.488 151.665 5.488C153.313 5.488 154.673 5.904 155.745 6.736C156.833 7.552 157.561 8.704 157.929 10.192H154.305C154.113 9.616 153.785 9.168 153.321 8.848C152.873 8.512 152.313 8.344 151.641 8.344C150.681 8.344 149.921 8.696 149.361 9.4C148.801 10.088 148.521 11.072 148.521 12.352C148.521 13.616 148.801 14.6 149.361 15.304C149.921 15.992 150.681 16.336 151.641 16.336C153.001 16.336 153.889 15.728 154.305 14.512H157.929C157.561 15.952 156.833 17.096 155.745 17.944C154.657 18.792 153.297 19.216 151.665 19.216C150.385 19.216 149.249 18.936 148.257 18.376C147.265 17.8 146.489 17 145.929 15.976C145.369 14.936 145.089 13.728 145.089 12.352ZM159.526 12.352C159.526 10.976 159.806 9.776 160.366 8.752C160.926 7.712 161.702 6.912 162.694 6.352C163.686 5.776 164.822 5.488 166.102 5.488C167.75 5.488 169.11 5.904 170.182 6.736C171.27 7.552 171.998 8.704 172.366 10.192H168.742C168.55 9.616 168.222 9.168 167.758 8.848C167.31 8.512 166.75 8.344 166.078 8.344C165.118 8.344 164.358 8.696 163.798 9.4C163.238 10.088 162.958 11.072 162.958 12.352C162.958 13.616 163.238 14.6 163.798 15.304C164.358 15.992 165.118 16.336 166.078 16.336C167.438 16.336 168.326 15.728 168.742 14.512H172.366C171.998 15.952 171.27 17.096 170.182 17.944C169.094 18.792 167.734 19.216 166.102 19.216C164.822 19.216 163.686 18.936 162.694 18.376C161.702 17.8 160.926 17 160.366 15.976C159.806 14.936 159.526 13.728 159.526 12.352ZM187.188 12.064C187.188 12.544 187.156 12.976 187.092 13.36H177.372C177.452 14.32 177.788 15.072 178.38 15.616C178.972 16.16 179.7 16.432 180.564 16.432C181.812 16.432 182.7 15.896 183.228 14.824H186.852C186.468 16.104 185.732 17.16 184.644 17.992C183.556 18.808 182.22 19.216 180.636 19.216C179.356 19.216 178.204 18.936 177.18 18.376C176.172 17.8 175.38 16.992 174.804 15.952C174.244 14.912 173.964 13.712 173.964 12.352C173.964 10.976 174.244 9.768 174.804 8.728C175.364 7.688 176.148 6.888 177.156 6.328C178.164 5.768 179.324 5.488 180.636 5.488C181.9 5.488 183.028 5.76 184.02 6.304C185.028 6.848 185.804 7.624 186.348 8.632C186.908 9.624 187.188 10.768 187.188 12.064ZM183.708 11.104C183.692 10.24 183.38 9.552 182.772 9.04C182.164 8.512 181.42 8.248 180.54 8.248C179.708 8.248 179.004 8.504 178.428 9.016C177.868 9.512 177.524 10.208 177.396 11.104H183.708ZM194.728 19.216C193.64 19.216 192.664 19.024 191.8 18.64C190.936 18.24 190.248 17.704 189.736 17.032C189.24 16.36 188.968 15.616 188.92 14.8H192.304C192.368 15.312 192.616 15.736 193.048 16.072C193.496 16.408 194.048 16.576 194.704 16.576C195.344 16.576 195.84 16.448 196.192 16.192C196.56 15.936 196.744 15.608 196.744 15.208C196.744 14.776 196.52 14.456 196.072 14.248C195.64 14.024 194.944 13.784 193.984 13.528C192.992 13.288 192.176 13.04 191.536 12.784C190.912 12.528 190.368 12.136 189.904 11.608C189.456 11.08 189.232 10.368 189.232 9.472C189.232 8.736 189.44 8.064 189.856 7.456C190.288 6.848 190.896 6.368 191.68 6.016C192.48 5.664 193.416 5.488 194.488 5.488C196.072 5.488 197.336 5.888 198.28 6.688C199.224 7.472 199.744 8.536 199.84 9.88H196.624C196.576 9.352 196.352 8.936 195.952 8.632C195.568 8.312 195.048 8.152 194.392 8.152C193.784 8.152 193.312 8.264 192.976 8.488C192.656 8.712 192.496 9.024 192.496 9.424C192.496 9.872 192.72 10.216 193.168 10.456C193.616 10.68 194.312 10.912 195.256 11.152C196.216 11.392 197.008 11.64 197.632 11.896C198.256 12.152 198.792 12.552 199.24 13.096C199.704 13.624 199.944 14.328 199.96 15.208C199.96 15.976 199.744 16.664 199.312 17.272C198.896 17.88 198.288 18.36 197.488 18.712C196.704 19.048 195.784 19.216 194.728 19.216ZM207.807 19.216C206.719 19.216 205.743 19.024 204.879 18.64C204.015 18.24 203.327 17.704 202.815 17.032C202.319 16.36 202.047 15.616 201.999 14.8H205.383C205.447 15.312 205.695 15.736 206.127 16.072C206.575 16.408 207.127 16.576 207.783 16.576C208.423 16.576 208.919 16.448 209.271 16.192C209.639 15.936 209.823 15.608 209.823 15.208C209.823 14.776 209.599 14.456 209.151 14.248C208.719 14.024 208.023 13.784 207.062 13.528C206.071 13.288 205.255 13.04 204.615 12.784C203.991 12.528 203.447 12.136 202.983 11.608C202.535 11.08 202.311 10.368 202.311 9.472C202.311 8.736 202.519 8.064 202.935 7.456C203.367 6.848 203.975 6.368 204.759 6.016C205.559 5.664 206.495 5.488 207.567 5.488C209.151 5.488 210.415 5.888 211.359 6.688C212.303 7.472 212.823 8.536 212.919 9.88H209.703C209.655 9.352 209.431 8.936 209.031 8.632C208.647 8.312 208.127 8.152 207.471 8.152C206.863 8.152 206.391 8.264 206.055 8.488C205.735 8.712 205.575 9.024 205.575 9.424C205.575 9.872 205.799 10.216 206.247 10.456C206.695 10.68 207.391 10.912 208.335 11.152C209.295 11.392 210.087 11.64 210.711 11.896C211.335 12.152 211.871 12.552 212.319 13.096C212.783 13.624 213.023 14.328 213.039 15.208C213.039 15.976 212.823 16.664 212.391 17.272C211.975 17.88 211.367 18.36 210.567 18.712C209.783 19.048 208.863 19.216 207.807 19.216ZM221.893 8.464H219.565V19H216.157V8.464H214.645V5.704H216.157V5.032C216.157 3.4 216.621 2.2 217.549 1.432C218.477 0.663999 219.877 0.303999 221.749 0.352V3.184C220.933 3.168 220.365 3.304 220.045 3.592C219.725 3.88 219.565 4.4 219.565 5.152V5.704H221.893V8.464ZM236.622 5.704V19H233.238V17.32C232.806 17.896 232.238 18.352 231.534 18.688C230.846 19.008 230.094 19.168 229.278 19.168C228.238 19.168 227.318 18.952 226.518 18.52C225.718 18.072 225.086 17.424 224.622 16.576C224.174 15.712 223.95 14.688 223.95 13.504V5.704H227.31V13.024C227.31 14.08 227.574 14.896 228.102 15.472C228.63 16.032 229.35 16.312 230.262 16.312C231.19 16.312 231.918 16.032 232.446 15.472C232.974 14.896 233.238 14.08 233.238 13.024V5.704H236.622ZM243.297 1.24V19H239.937V1.24H243.297ZM248.105 19.168C247.497 19.168 246.993 18.984 246.593 18.616C246.209 18.232 246.017 17.76 246.017 17.2C246.017 16.64 246.209 16.176 246.593 15.808C246.993 15.424 247.497 15.232 248.105 15.232C248.697 15.232 249.185 15.424 249.569 15.808C249.953 16.176 250.145 16.64 250.145 17.2C250.145 17.76 249.953 18.232 249.569 18.616C249.185 18.984 248.697 19.168 248.105 19.168ZM254.339 19.168C253.731 19.168 253.227 18.984 252.827 18.616C252.443 18.232 252.251 17.76 252.251 17.2C252.251 16.64 252.443 16.176 252.827 15.808C253.227 15.424 253.731 15.232 254.339 15.232C254.931 15.232 255.419 15.424 255.803 15.808C256.187 16.176 256.379 16.64 256.379 17.2C256.379 17.76 256.187 18.232 255.803 18.616C255.419 18.984 254.931 19.168 254.339 19.168ZM260.574 19.168C259.966 19.168 259.462 18.984 259.062 18.616C258.678 18.232 258.486 17.76 258.486 17.2C258.486 16.64 258.678 16.176 259.062 15.808C259.462 15.424 259.966 15.232 260.574 15.232C261.166 15.232 261.654 15.424 262.038 15.808C262.422 16.176 262.614 16.64 262.614 17.2C262.614 17.76 262.422 18.232 262.038 18.616C261.654 18.984 261.166 19.168 260.574 19.168ZM266.808 19.168C266.2 19.168 265.696 18.984 265.296 18.616C264.912 18.232 264.72 17.76 264.72 17.2C264.72 16.64 264.912 16.176 265.296 15.808C265.696 15.424 266.2 15.232 266.808 15.232C267.4 15.232 267.888 15.424 268.272 15.808C268.656 16.176 268.848 16.64 268.848 17.2C268.848 17.76 268.656 18.232 268.272 18.616C267.888 18.984 267.4 19.168 266.808 19.168Z" fill="#212121"/>
</svg>
