<svg width="183" height="189" viewBox="0 0 183 189" fill="none" xmlns="http://www.w3.org/2000/svg">
<path d="M2.53372 160.249C9.52781 177.317 20.9316 180.869 28.95 177.317C44.4569 170.446 84.7383 162.77 126.109 180.814C180.902 204.713 192.56 168.656 175.073 132.183C157.586 95.7101 151.658 58.826 171.818 38.5049C191.978 18.1838 165.596 -13.6052 118.747 19.4851C88.4716 40.8693 66.2528 36.1075 54.3214 30.0621C43.0764 24.3647 30.5706 18.4083 18.854 23.0589C4.6367 28.7023 -0.96478 40.9377 20.6653 68.2714C51.3183 107.006 -13.1455 121.992 2.53372 160.249Z" fill="#DEE9FF"/>
<path d="M160.933 42.4285C160.747 42.6643 160.538 42.8812 160.31 43.0764L143.967 57.2199L131.769 94.27L97.7624 119.119C97.7624 119.119 91.9682 123.974 86.6791 124.424C85.4951 124.838 81.9081 126.233 79.9213 128.39C79.2807 129.086 74.2574 143.921 66.4663 164.9C66.0764 165.95 65.3081 166.817 64.3122 167.329C63.3164 167.841 62.1649 167.963 61.0839 167.67C51.3481 165.028 29.5414 159.21 19.1661 155.279C18.5267 155.037 17.9562 154.642 17.5046 154.129C17.0529 153.616 16.7338 153 16.5752 152.336C16.4166 151.671 16.4232 150.977 16.5946 150.315C16.7659 149.654 17.0968 149.044 17.5582 148.54C29.4804 135.508 54.5461 105.68 54.5461 105.68L56.2466 102.148C56.2466 102.148 66.9547 68.6911 70.4572 66.5165C71.7817 65.0782 79.4005 53.9254 82.3983 46.1449C83.0796 45.0126 86.2396 40.3 88.8866 36.2311C90.7621 33.3225 92.3902 30.7349 92.6678 29.9958C92.7276 29.8265 92.8277 29.6742 92.9595 29.5521C92.9595 29.5521 92.9512 29.5498 92.9619 29.5437C94.2249 28.2243 98.4158 28.5223 98.6192 33.5311C98.8465 39.0563 93.8776 50.5181 92.8775 50.8304C92.3716 52.0494 90.934 58.6146 88.1217 64.1735C87.8795 65.0137 87.5177 67.1843 89.8898 66.6578C92.2642 66.1229 147.185 40.2498 147.185 40.2498L153.996 35.9708C155 35.3215 156.193 35.0305 157.383 35.1452C158.792 35.3072 160.083 36.0089 160.986 37.1028C162.929 39.355 161.66 41.5186 160.933 42.4285Z" fill="#699CFF"/>
<path d="M91.6632 37.1355C90.6818 37.2257 89.68 36.755 88.8867 36.2259C90.7623 33.3172 92.3904 30.7297 92.668 29.9906C92.7278 29.8212 92.8279 29.6689 92.9597 29.5469C95.22 32.246 91.9341 36.8587 91.6632 37.1355Z" fill="#D4E5FF"/>
<path d="M147.788 31.1745L107.543 19.5741C104.736 18.7652 101.805 20.3845 100.996 23.191L76.643 107.681C75.834 110.487 77.4534 113.418 80.2599 114.227L120.506 125.828C123.312 126.637 126.243 125.017 127.052 122.211L151.405 37.7208C152.214 34.9143 150.595 31.9834 147.788 31.1745Z" fill="#0E84E5"/>
<path d="M145.671 33.2882L108.206 22.4892C106.101 21.8825 103.903 23.097 103.296 25.2019L79.6612 107.199C79.0545 109.304 80.269 111.502 82.3739 112.109L119.839 122.908C121.944 123.515 124.143 122.3 124.749 120.195L148.384 38.198C148.991 36.0931 147.776 33.8949 145.671 33.2882Z" fill="#D4E5FF"/>
<path d="M147.589 60.9291L140.835 60.8759C137.494 60.8495 134.764 63.5366 134.737 66.8778C134.711 70.2189 137.398 72.9488 140.739 72.9751L147.494 73.0284C150.835 73.0548 153.565 70.3676 153.591 67.0265C153.618 63.6854 150.931 60.9555 147.589 60.9291Z" fill="#699CFF"/>
<path d="M145.247 73.4343L136.695 73.3668C133.985 73.3455 131.772 75.5245 131.75 78.2339C131.729 80.9433 133.908 83.157 136.617 83.1783L145.17 83.2458C147.879 83.2672 150.093 81.0881 150.114 78.3788C150.136 75.6694 147.956 73.4557 145.247 73.4343Z" fill="#699CFF"/>
<path d="M139.542 84.1707L134.489 84.1308C132.441 84.1147 130.768 85.7617 130.752 87.8096C130.736 89.8576 132.383 91.5308 134.431 91.547L139.484 91.5868C141.532 91.603 143.205 89.9559 143.221 87.908C143.237 85.8601 141.59 84.1868 139.542 84.1707Z" fill="#699CFF"/>
<path d="M136.569 85.515L133.617 85.4917C133.106 85.4876 132.688 85.8987 132.684 86.4098L132.663 89.0511C132.659 89.5622 133.07 89.9798 133.581 89.9839L136.534 90.0072C137.045 90.0112 137.462 89.6001 137.467 89.089L137.487 86.4477C137.491 85.9366 137.08 85.519 136.569 85.515Z" fill="#D4E5FF"/>
<path d="M139.564 75.698L136.257 75.6719C135.161 75.6633 134.266 76.5441 134.258 77.6394L134.245 79.2391C134.237 80.3344 135.117 81.2293 136.213 81.2379L139.52 81.264C140.615 81.2726 141.51 80.3918 141.519 79.2965L141.532 77.6968C141.54 76.6015 140.659 75.7066 139.564 75.698Z" fill="#D4E5FF"/>
<path d="M143.799 63.0107L141.129 62.9896C139.668 62.9781 138.475 64.1526 138.464 65.6129L138.447 67.7132C138.435 69.1736 139.61 70.3667 141.07 70.3783L143.741 70.3993C145.201 70.4108 146.394 69.2363 146.406 67.776L146.423 65.6757C146.434 64.2154 145.26 63.0222 143.799 63.0107Z" fill="#D4E5FF"/>
<path d="M170.685 2.09078C166.393 -0.530487 162.868 0.809762 161.819 2.52708C161.062 3.76738 161.761 4.98043 162.62 5.50479C164.337 6.55324 165.133 3.67747 168.376 5.65803C169.966 6.62887 170.81 8.1053 169.917 9.56797C168.868 11.2852 166.486 11.1836 164.893 11.4332C163.485 11.6653 161.481 12.2313 159.811 14.966C158.801 16.6196 158.955 17.3683 160.258 18.1645C161.816 19.1158 162.561 18.6104 162.93 18.0058C163.94 16.3522 164.555 15.4176 167.138 15.1182C168.405 14.9747 172.428 14.4625 174.253 11.4734C176.079 8.48435 174.755 4.57612 170.685 2.09078Z" fill="#0E84E5"/>
<path d="M158.95 20.3814C158.629 20.185 158.272 20.0539 157.9 19.9956C157.527 19.9372 157.147 19.9527 156.781 20.0413C156.415 20.1298 156.07 20.2896 155.765 20.5115C155.461 20.7334 155.203 21.0132 155.006 21.3347C154.81 21.6563 154.679 22.0134 154.621 22.3856C154.562 22.7579 154.578 23.1379 154.666 23.5042C154.755 23.8704 154.915 24.2156 155.137 24.5201C155.358 24.8246 155.638 25.0824 155.96 25.2787C156.609 25.6753 157.39 25.7977 158.129 25.6189C158.869 25.4401 159.507 24.9748 159.904 24.3254C160.3 23.676 160.423 22.8956 160.244 22.156C160.065 21.4163 159.6 20.778 158.95 20.3814Z" fill="#0E84E5"/>
</svg>
