<svg width="16" height="18" viewBox="0 0 16 18" fill="none" xmlns="http://www.w3.org/2000/svg">
<path d="M12.7548 12.9188C11.9722 13.7014 10.3356 15.338 9.20947 16.4641C8.55687 17.1167 7.49983 17.1171 6.84723 16.4645C5.74071 15.358 4.13583 13.7531 3.30157 12.9188C0.691143 10.3084 0.691143 6.07606 3.30157 3.46563C5.912 0.855205 10.1443 0.855205 12.7548 3.46563C15.3652 6.07606 15.3652 10.3084 12.7548 12.9188Z" stroke="#315DE4" stroke-width="1.67111" stroke-linecap="round" stroke-linejoin="round"/>
<path d="M10.5348 8.19223C10.5348 9.57662 9.41256 10.6989 8.02817 10.6989C6.64378 10.6989 5.52151 9.57662 5.52151 8.19223C5.52151 6.80785 6.64378 5.68558 8.02817 5.68558C9.41256 5.68558 10.5348 6.80785 10.5348 8.19223Z" stroke="#315DE4" stroke-width="1.67111" stroke-linecap="round" stroke-linejoin="round"/>
</svg>
