<svg width="46" height="29" viewBox="0 0 46 29" fill="none" xmlns="http://www.w3.org/2000/svg">
<path fill-rule="evenodd" clip-rule="evenodd" d="M23.3906 24.7592C21.0075 26.8158 17.9161 28.0573 14.5382 28.0573C7.00084 28.0573 0.890625 21.8761 0.890625 14.2513C0.890625 6.62646 7.00084 0.445312 14.5382 0.445312C17.9161 0.445312 21.0075 1.68681 23.3906 3.74337C25.7738 1.68681 28.8651 0.445312 32.2431 0.445312C39.7804 0.445312 45.8906 6.62646 45.8906 14.2513C45.8906 21.8761 39.7804 28.0573 32.2431 28.0573C28.8651 28.0573 25.7738 26.8158 23.3906 24.7592Z" fill="#ED0006"/>
<path fill-rule="evenodd" clip-rule="evenodd" d="M23.3906 24.7592C26.325 22.2269 28.1857 18.4589 28.1857 14.2513C28.1857 10.0436 26.325 6.27564 23.3906 3.74337C25.7738 1.68681 28.8651 0.445312 32.2431 0.445312C39.7804 0.445312 45.8906 6.62646 45.8906 14.2513C45.8906 21.8761 39.7804 28.0573 32.2431 28.0573C28.8651 28.0573 25.7738 26.8158 23.3906 24.7592Z" fill="#F9A000"/>
<path fill-rule="evenodd" clip-rule="evenodd" d="M23.3888 3.74219C26.3231 6.27446 28.1838 10.0424 28.1838 14.25C28.1838 18.4577 26.3231 22.2256 23.3888 24.7579C20.4544 22.2256 18.5938 18.4577 18.5938 14.25C18.5938 10.0424 20.4544 6.27446 23.3888 3.74219Z" fill="#FF5E00"/>
</svg>
