<svg width="23" height="28" viewBox="0 0 23 28" fill="none" xmlns="http://www.w3.org/2000/svg">
<path fill-rule="evenodd" clip-rule="evenodd" d="M7.08718 26.3946L7.54161 23.4964L6.5293 23.4727H1.69531L5.05476 2.08544C5.06523 2.02068 5.09906 1.96056 5.14847 1.91779C5.19813 1.87502 5.26141 1.85156 5.32762 1.85156H13.4785C16.1846 1.85156 18.052 2.41684 19.0268 3.53272C19.4839 4.0562 19.7751 4.60339 19.916 5.20532C20.0637 5.83706 20.0662 6.59174 19.9221 7.51235L19.9116 7.57932V8.16927L20.3687 8.4293C20.7535 8.63435 21.0595 8.86896 21.2941 9.13754C21.685 9.58526 21.9379 10.1542 22.0448 10.8285C22.1553 11.5221 22.1188 12.3476 21.9379 13.2821C21.7293 14.357 21.3922 15.2932 20.9368 16.0591C20.5182 16.7649 19.9846 17.3505 19.351 17.8041C18.7462 18.2352 18.0277 18.5624 17.2152 18.7719C16.4278 18.9776 15.5301 19.0815 14.5455 19.0815H13.9112C13.4578 19.0815 13.0172 19.2455 12.6713 19.5395C12.3245 19.8396 12.0952 20.2497 12.0249 20.6981L11.9769 20.9591L11.1739 26.0676L11.1377 26.2551C11.1279 26.3145 11.1114 26.344 11.087 26.3641C11.0654 26.3824 11.0342 26.3946 11.0038 26.3946H7.08718Z" fill="#28356A"/>
<path fill-rule="evenodd" clip-rule="evenodd" d="M20.7989 7.64844C20.7748 7.8046 20.7468 7.96419 20.7156 8.12817C19.6407 13.6695 15.9632 15.5838 11.2665 15.5838H8.87502C8.30058 15.5838 7.81645 16.0024 7.72713 16.5713L6.15596 26.5779C6.09778 26.9515 6.38451 27.288 6.75984 27.288H11.0014C11.5035 27.288 11.9302 26.9217 12.0093 26.4244L12.0509 26.2081L12.8495 21.1197L12.9009 20.8406C12.979 20.3415 13.4067 19.9749 13.9088 19.9749H14.5431C18.6525 19.9749 21.8696 18.2999 22.8098 13.4522C23.2025 11.4272 22.9992 9.73625 21.9599 8.54706C21.6454 8.18854 21.2552 7.89087 20.7989 7.64844Z" fill="#298FC2"/>
<path fill-rule="evenodd" clip-rule="evenodd" d="M19.674 7.19986C19.5097 7.15171 19.3403 7.10821 19.1665 7.06886C18.9917 7.0305 18.8128 6.99653 18.6286 6.96671C17.9838 6.86211 17.2772 6.8125 16.5205 6.8125H10.1319C9.97439 6.8125 9.82494 6.84818 9.69131 6.9127C9.39655 7.05493 9.17773 7.335 9.12467 7.67788L7.76551 16.321L7.72656 16.5729C7.81589 16.004 8.30002 15.5853 8.87445 15.5853H11.2659C15.9626 15.5853 19.6402 13.6701 20.715 8.12976C20.7472 7.96577 20.7742 7.80619 20.7983 7.65002C20.5264 7.5051 20.2319 7.38119 19.9147 7.27562C19.8364 7.24947 19.7555 7.2243 19.674 7.19986Z" fill="#22284F"/>
<path fill-rule="evenodd" clip-rule="evenodd" d="M9.12769 7.67822C9.18075 7.33534 9.39957 7.05527 9.69433 6.91402C9.82893 6.84925 9.97741 6.81357 10.1349 6.81357H16.5235C17.2802 6.81357 17.9868 6.86343 18.6316 6.96803C18.8159 6.9976 18.9948 7.03181 19.1695 7.07018C19.3433 7.10928 19.5127 7.15303 19.677 7.20093C19.7586 7.22537 19.8394 7.25078 19.9185 7.27596C20.2356 7.38153 20.5304 7.50642 20.8023 7.65036C21.1221 5.60262 20.7996 4.20838 19.697 2.94587C18.4812 1.55578 16.2871 0.960938 13.4795 0.960938H5.32841C4.75495 0.960938 4.26571 1.37958 4.17711 1.94949L0.782126 23.5567C0.71519 23.9841 1.04354 24.3698 1.4729 24.3698H6.50502L9.12769 7.67822Z" fill="#28356A"/>
</svg>
