<svg width="22" height="22" viewBox="0 0 22 22" fill="none" xmlns="http://www.w3.org/2000/svg">
<g opacity="0.4" clip-path="url(#clip0_79_7)">
<path d="M11 0C8.82441 0 6.69767 0.645139 4.88873 1.85383C3.07979 3.06253 1.66989 4.78049 0.83733 6.79048C0.00476617 8.80047 -0.213071 11.0122 0.211367 13.146C0.635804 15.2798 1.68345 17.2398 3.22183 18.7782C4.76021 20.3165 6.72022 21.3642 8.85401 21.7886C10.9878 22.2131 13.1995 21.9952 15.2095 21.1627C17.2195 20.3301 18.9375 18.9202 20.1462 17.1113C21.3549 15.3023 22 13.1756 22 11C21.9967 8.08363 20.8367 5.28766 18.7745 3.22548C16.7123 1.1633 13.9164 0.00330842 11 0ZM11 20C9.21997 20 7.47991 19.4722 5.99987 18.4832C4.51983 17.4943 3.36628 16.0887 2.68509 14.4441C2.0039 12.7996 1.82567 10.99 2.17294 9.24419C2.5202 7.49836 3.37737 5.89471 4.63604 4.63604C5.89471 3.37737 7.49836 2.5202 9.24419 2.17293C10.99 1.82567 12.7996 2.0039 14.4442 2.68508C16.0887 3.36627 17.4943 4.51982 18.4832 5.99987C19.4722 7.47991 20 9.21997 20 11C19.9974 13.3861 19.0483 15.6738 17.361 17.361C15.6738 19.0483 13.3861 19.9973 11 20Z" fill="white"/>
<path d="M13.48 10.6865C13.7869 10.2357 13.9651 9.70986 13.9954 9.16544C14.0256 8.62101 13.9069 8.07863 13.6518 7.59665C13.3968 7.11466 13.0151 6.71131 12.5478 6.42999C12.0806 6.14866 11.5455 6 11 6C10.4545 6 9.91942 6.14866 9.45217 6.42999C8.98492 6.71131 8.60324 7.11466 8.34819 7.59665C8.09313 8.07863 7.97435 8.62101 8.00462 9.16544C8.0349 9.70986 8.21308 10.2357 8.52 10.6865C7.75725 11.1201 7.12255 11.7474 6.68006 12.5049C6.23757 13.2623 6.00298 14.1232 6 15.0003C6 15.2655 6.10536 15.5197 6.29289 15.7072C6.48043 15.8947 6.73478 16 7 16C7.26522 16 7.51957 15.8947 7.70711 15.7072C7.89464 15.5197 8 15.2655 8 15.0003C8 14.205 8.31607 13.4422 8.87868 12.8797C9.44129 12.3173 10.2044 12.0013 11 12.0013C11.7956 12.0013 12.5587 12.3173 13.1213 12.8797C13.6839 13.4422 14 14.205 14 15.0003C14 15.2655 14.1054 15.5197 14.2929 15.7072C14.4804 15.8947 14.7348 16 15 16C15.2652 16 15.5196 15.8947 15.7071 15.7072C15.8946 15.5197 16 15.2655 16 15.0003C15.997 14.1232 15.7624 13.2623 15.3199 12.5049C14.8774 11.7474 14.2427 11.1201 13.48 10.6865ZM10 9.00236C10 8.80465 10.0586 8.61137 10.1685 8.44698C10.2784 8.28259 10.4346 8.15446 10.6173 8.07879C10.8 8.00313 11.0011 7.98334 11.1951 8.02191C11.3891 8.06048 11.5673 8.15569 11.7071 8.29549C11.847 8.4353 11.9422 8.61342 11.9808 8.80734C12.0194 9.00125 11.9996 9.20225 11.9239 9.38492C11.8482 9.56758 11.72 9.72371 11.5556 9.83355C11.3911 9.9434 11.1978 10.002 11 10.002C10.7349 10.0018 10.4806 9.89639 10.2932 9.70897C10.1057 9.52155 10.0002 9.26742 10 9.00236Z" fill="white"/>
</g>
<defs>
<clipPath id="clip0_79_7">
<rect width="22" height="22" fill="white"/>
</clipPath>
</defs>
</svg>
