<svg width="21" height="21" viewBox="0 0 21 21" fill="none" xmlns="http://www.w3.org/2000/svg">
<g opacity="0.4" clip-path="url(#clip0_79_12)">
<path d="M4.07487 6.41255C3.57853 6.41204 3.08899 6.52785 2.64549 6.75068C2.20218 6.9734 1.81721 7.29687 1.52141 7.69515C1.20944 8.10702 0.998234 8.58621 0.904692 9.09437C0.811132 9.60263 0.837889 10.1257 0.982818 10.6218C0.982858 10.6219 0.982898 10.6221 0.982938 10.6222L3.13307 18.129C3.13309 18.129 3.13312 18.1291 3.13314 18.1292C3.32348 18.8043 3.7274 19.3995 4.2844 19.8258C4.84146 20.2521 5.52166 20.4865 6.2231 20.4938V20.4938H6.22466L15.466 20.4938L15.4675 20.4938C16.169 20.4865 16.8492 20.2521 17.4062 19.8258C17.9633 19.3995 18.3672 18.8042 18.5575 18.1291C18.5576 18.129 18.5576 18.129 18.5576 18.129L20.7077 10.6222C20.7077 10.6221 20.7077 10.6221 20.7078 10.622C20.8527 10.1259 20.8795 9.6027 20.7859 9.09437C20.6924 8.58621 20.4812 8.10702 20.1692 7.69514C19.8734 7.29686 19.4885 6.9734 19.0452 6.75068C18.6017 6.52786 18.1122 6.41206 17.6159 6.41255C16.9321 6.41255 16.1803 6.40136 15.3117 6.38843C15.1545 6.38609 14.9935 6.38369 14.8285 6.38129C13.7514 6.36565 12.5011 6.35 11 6.35V6.34987L10.9938 6.35013C9.49752 6.41252 7.37278 6.41255 6.25157 6.41255H4.07487ZM4.07487 6.41255C4.07489 6.41255 4.07492 6.41255 4.07494 6.41255L4.07479 6.56255M4.07487 6.41255H4.07479V6.56255M4.07479 6.56255C3.60187 6.56206 3.13541 6.67239 2.71283 6.88471C2.29025 7.09703 1.9233 7.40541 1.64141 7.78514L11 6.5C9.5 6.56255 7.37186 6.56255 6.25157 6.56255H4.07479ZM19.1582 10.1772L19.1585 10.1763L19.3024 10.2185C19.3841 9.94014 19.3995 9.64647 19.3472 9.36108C19.2948 9.0757 19.1764 8.80656 19.0012 8.57527L19.1582 10.1772ZM19.1582 10.1772L17.007 17.6854L17.0066 17.6869C16.9132 18.026 16.7123 18.3258 16.4341 18.5412C16.1562 18.7563 15.8161 18.8756 15.4647 18.8813H6.2259C5.87451 18.8756 5.5344 18.7563 5.25649 18.5412C4.9783 18.3258 4.77743 18.026 4.68403 17.6869L4.68404 17.6868L4.68361 17.6854L2.53242 10.1772L2.53243 10.1772L2.5322 10.1764C2.45747 9.92088 2.44358 9.65141 2.49166 9.38955C2.53974 9.12769 2.64844 8.88071 2.80907 8.66839L2.80908 8.6684L2.81025 8.66681C2.95627 8.46842 3.14676 8.30702 3.36644 8.19557C3.58607 8.08415 3.82875 8.02574 4.07502 8.02505H6.25157H6.25539H6.25917H6.26291H6.26662H6.27029H6.27392H6.27752H6.28109H6.28462H6.28811H6.29157H6.29499H6.29838H6.30173H6.30505H6.30833H6.31158H6.3148H6.31798H6.32113H6.32424H6.32732H6.33037H6.33338H6.33637H6.33931H6.34223H6.34511H6.34796H6.35078H6.35357H6.35632H6.35905H6.36174H6.3644H6.36702H6.36962H6.37219H6.37472H6.37723H6.3797H6.38215H6.38456H6.38694H6.3893H6.39162H6.39392H6.39618H6.39842H6.40062H6.4028H6.40495H6.40707H6.40916H6.41123H6.41326H6.41527H6.41725H6.4192H6.42113H6.42302H6.42489H6.42674H6.42855H6.43034H6.43211H6.43384H6.43555H6.43724H6.43889H6.44053H6.44213H6.44371H6.44527H6.4468H6.44831H6.44979H6.45124H6.45258H6.4526H6.45263H6.45263H6.45267H6.45268H6.45272H6.45274H6.45279H6.45281H6.45286H6.45289H6.45295H6.45299H6.45305H6.4531H6.45316H6.45322H6.45327H6.45336H6.4534H6.45351H6.45354H6.45367H6.45369H6.45385H6.45402H6.45405H6.45408H6.4542H6.45426H6.45439H6.45448H6.45459H6.45472H6.4548H6.45497H6.45501H6.45524H6.45546H6.45547H6.45552H6.45572H6.45582H6.45597H6.45614H6.45623H6.45647H6.45649H6.45677H6.45682H6.45682H6.45705H6.45718H6.45734H6.45756H6.45764H6.45795H6.45795H6.45816H6.45826H6.45836H6.45858H6.45879H6.45891H6.45924H6.45947H6.45958H6.4597H6.45993H6.46018H6.46028H6.46064H6.46068H6.46076H6.46101H6.4612H6.46138H6.46173H6.46175H6.46202H6.46213H6.46228H6.46252H6.46285H6.46291H6.46326H6.46331H6.46343H6.46371H6.46404H6.46412H6.46448H6.46453H6.46466H6.46494H6.46531H6.46536H6.46567H6.46579H6.46597H6.46622H6.46665H6.46685H6.46708H6.46735H6.46752H6.46796H6.46799H6.46806H6.46841H6.4688H6.46885H6.46912H6.4693H6.46956H6.46976H6.47021H6.47023H6.47034H6.47067H6.47113H6.47131H6.47159H6.47195H6.47206H6.47237H6.47252H6.47279H6.47299H6.47341H6.47346H6.47365H6.47393H6.4744H6.47442H6.47452H6.47487H6.47534H6.47542H6.47542H6.47581H6.47629H6.47634H6.47639H6.47676H6.47723H6.47728H6.47734H6.47771H6.47818H6.47825H6.47828H6.47865H6.47913H6.47919H6.47923H6.4796H6.48007H6.48008H6.48023H6.48054H6.48094H6.48101H6.48126H6.48148H6.48179H6.48194H6.48231H6.48241H6.48262H6.48287H6.48333H6.48338H6.48343H6.48379H6.48422H6.48424H6.48447H6.4847H6.48499H6.48515H6.48558H6.4856H6.48573H6.48605H6.48646H6.48649H6.48672H6.48693H6.48717H6.48736H6.4878H6.48786H6.48788H6.48823H6.48854H6.48865H6.48906H6.48907H6.48919H6.48949H6.48982H6.4899H6.49027H6.49031H6.49044H6.49072H6.49103H6.49112H6.4915H6.49151H6.49161H6.4919H6.49217H6.49228H6.49266H6.49272H6.49275H6.49304H6.49324H6.4934H6.49375H6.49376H6.49402H6.49412H6.49424H6.49447H6.49471H6.49481H6.49515H6.49517H6.49532H6.49548H6.4956H6.4958H6.49603H6.49612H6.49643H6.49664H6.49673H6.49682H6.49702H6.49719H6.49731H6.49755H6.49759H6.49786H6.49789H6.49799H6.49812H6.49821H6.49838H6.49852H6.49863H6.49881H6.49886H6.49909H6.49909H6.49931H6.49935H6.49936H6.49953H6.4996H6.49973H6.49983H6.49992H6.50004H6.5001H6.50025H6.50028H6.50043H6.50044H6.5006H6.50061H6.50074H6.50075H6.50077H6.50087H6.50091H6.501H6.50104H6.50111H6.50116H6.50121H6.50126H6.50131H6.50135H6.50139H6.50143H6.50145H6.5015H6.50151H6.50155H6.50156H6.50159H6.50159H6.50161H6.50162H6.50163H6.50217H6.50361H6.50508H6.50657H6.50809H6.50963H6.51119H6.51279H6.5144H6.51605H6.51772H6.51941H6.52113H6.52288H6.52466H6.52646H6.52829H6.53014H6.53202H6.53393H6.53587H6.53783H6.53983H6.54185H6.54389H6.54597H6.54808H6.55021H6.55237H6.55456H6.55678H6.55903H6.56131H6.56362H6.56595H6.56832H6.57072H6.57314H6.5756H6.57809H6.58061H6.58316H6.58574H6.58835H6.59099H6.59367H6.59637H6.59911H6.60188H6.60468H6.60751H6.61037H6.61327H6.6162H6.61917H6.62216H6.62519H6.62825H6.63135H6.63448H6.63764H6.64084H6.64407H6.64733H6.65063H6.65397H6.65733H6.66074H6.66418H6.66765H6.67116H6.6747H6.67828H6.6819H6.68555H6.68924H6.69296H6.69672H6.70052H6.70435H6.70822H6.71213H6.71607H6.72005H6.72407H6.72813H6.73222H6.73636H6.74053H6.74474H6.74898H6.75327H6.75759H6.76196H6.76636H6.7708H6.77528H6.7798H6.78436H6.78897H6.79361H6.79829H6.80301H6.80777H6.81257H6.81741H6.8223H6.82722H6.83219H6.83719H6.84224H6.84733H6.85247H6.85764H6.86286H6.86812H6.87342H6.87876H6.88415H6.88958H6.89505H6.90057H6.90613H6.91169H6.91721H6.9227H6.92815H6.93356H6.93893H6.94426H6.94956H6.95482H6.96004H6.96522H6.97037H6.97548H6.98055H6.98559H6.99059H6.99555H7.00048H7.00537H7.01022H7.01504H7.01983H7.02457H7.02928H7.03396H7.0386H7.04321H7.04778H7.05231H7.05681H7.06128H7.06571H7.07011H7.07447H7.0788H7.08309H7.08735H7.09158H7.09577H7.09993H7.10406H7.10815H7.11221H7.11623H7.12023H7.12419H7.12812H7.13201H7.13587H7.1397H7.1435H7.14727H7.151H7.15471H7.15838H7.16202H7.16563H7.1692H7.17275H7.17626H7.17975H7.1832H7.18662H7.19001H7.19338H7.19671H7.20001H7.20328H7.20652H7.20973H7.21291H7.21607H7.21919H7.22228H7.22535H7.22839H7.23139H7.23437H7.23732H7.24024H7.24313H7.246H7.24884H7.25165H7.25443H7.25718H7.2599H7.2626H7.26527H7.26792H7.27053H7.27312H7.27569H7.27822H7.28073H7.28322H7.28567H7.2881H7.29051H7.29289H7.29524H7.29757H7.29987H7.30215H7.3044H7.30662H7.30882H7.311H7.31315H7.31528H7.31738H7.31946H7.32151H7.32354H7.32555H7.32753H7.32949H7.33142H7.33333H7.33522H7.33708H7.33892H7.34074H7.34254H7.34431H7.34606H7.34778H7.34949H7.35117H7.35283H7.35447H7.35609H7.35768H7.35926H7.36081H7.36234H7.36385H7.36534H7.36681H7.36825H7.36968H7.37108H7.37247H7.37383H7.37518H7.3765H7.37781H7.37909H7.38036H7.3816H7.38283H7.38404H7.38522H7.38639H7.38754H7.38867H7.38978H7.39088H7.39195H7.39301H7.39405H7.39507H7.39607H7.39706H7.39803H7.39898H7.39991H7.40083H7.40172H7.4026H7.40347H7.40432H7.40515H7.40596H7.40676H7.40754H7.40831H7.40906H7.40957H7.40957H7.40958H7.40959H7.4096H7.40961H7.40962H7.40964H7.40966H7.40967H7.4097H7.40971H7.40975H7.40976H7.40979H7.40981H7.40982H7.40988H7.40989H7.40996H7.41003H7.41005H7.41012H7.41014H7.41021H7.41025H7.4103H7.41037H7.41041H7.41049H7.41051H7.41063H7.41063H7.41075H7.41077H7.41087H7.41093H7.41101H7.41109H7.41114H7.41121H7.41127H7.41128H7.41143H7.41145H7.41158H7.41165H7.41174H7.41185H7.4119H7.4119H7.41206H7.41207H7.41223H7.4123H7.41241H7.41254H7.41257H7.41258H7.41277H7.41279H7.41295H7.41305H7.41314H7.41323H7.41333H7.41334H7.41353H7.41361H7.41373H7.41387H7.41391H7.41394H7.41414H7.41422H7.41435H7.4145H7.41454H7.41457H7.41478H7.41487H7.415H7.41511H7.41521H7.41522H7.41544H7.41557H7.41567H7.41571H7.41589H7.41594H7.41612H7.41629H7.41632H7.41635H7.41659H7.41672H7.41682H7.41686H7.41706H7.41712H7.41729H7.41741H7.41753H7.41754H7.41777H7.41795H7.41798H7.41801H7.41825H7.41843H7.41848H7.4185H7.41874H7.41888H7.41898H7.41899H7.41923H7.41936H7.41947H7.41949H7.41971H7.41985H7.41996H7.41997H7.4202H7.42035H7.42044H7.42069H7.42086H7.4209H7.42093H7.42117H7.42134H7.42139H7.42141H7.42165H7.42178H7.42189H7.42193H7.42213H7.42219H7.42236H7.42249H7.4226H7.42283H7.42299H7.42306H7.42329H7.42337H7.42352H7.42365H7.42374H7.42375H7.42397H7.42409H7.42419H7.42425H7.42441H7.42443H7.42462H7.42476H7.42484H7.42486H7.42505H7.42508H7.42525H7.42539H7.42546H7.42549H7.42566H7.42568H7.42586H7.42596H7.42605H7.42614H7.42623H7.42624H7.42643H7.42649H7.42661H7.42674H7.42679H7.4268H7.42697H7.42698H7.42714H7.42721H7.4273H7.42742H7.42746H7.42747H7.42762H7.42763H7.42777H7.42782H7.42792H7.428H7.42806H7.42816H7.42818H7.4282H7.42833H7.42834H7.42846H7.42849H7.42858H7.42864H7.42869H7.42877H7.4288H7.42887H7.42889H7.42891H7.42901H7.4291H7.42911H7.42918H7.4292H7.42926H7.42929H7.42933H7.42937H7.4294H7.42943H7.42946H7.42949H7.42951H7.42954H7.42955H7.42958H7.42959H7.42962H7.42962H7.42964H7.42966H7.42967H7.43033H7.43108H7.43185H7.43263H7.43344H7.43425H7.43509H7.43594H7.43681H7.43769H7.43859H7.43951H7.44045H7.4414H7.44237H7.44336H7.44437H7.44539H7.44644H7.4475H7.44858H7.44968H7.45079H7.45193H7.45308H7.45425H7.45544H7.45665H7.45788H7.45913H7.4604H7.46169H7.463H7.46433H7.46568H7.46705H7.46844H7.46985H7.47128H7.47273H7.4742H7.47569H7.47721H7.47874H7.4803H7.48187H7.48347H7.4851H7.48674H7.4884H7.49009H7.4918H7.49353H7.49529H7.49706H7.49886H7.50069H7.50253H7.5044H7.50629H7.50821H7.51015H7.51211H7.5141H7.51611H7.51814H7.5202H7.52228H7.52439H7.52652H7.52868H7.53086H7.53306H7.5353H7.53755H7.53983H7.54214H7.54447H7.54683H7.54922H7.55163H7.55406H7.55652H7.55901H7.56153H7.56407H14.1266H14.1296H14.1327H14.1357H14.1386H14.1416H14.1445H14.1474H14.1502H14.153H14.1558H14.1586H14.1613H14.164H14.1667H14.1693H14.1719H14.1745H14.177H14.1796H14.1821H14.1845H14.187H14.1894H14.1918H14.1941H14.1964H14.1987H14.201H14.2032H14.2055H14.2076H14.2098H14.2119H14.214H14.2161H14.2182H14.2202H14.2222H14.2242H14.2261H14.228H14.2299H14.2318H14.2337H14.2355H14.2373H14.239H14.2408H14.2425H14.2442H14.2459H14.2475H14.2491H14.2507H14.2523H14.2539H14.2554H14.2569H14.2584H14.2599H14.2613H14.2627H14.2641H14.2655H14.2668H14.2681H14.2694H14.2707H14.272H14.2732H14.2739H14.2739H14.2739H14.274H14.274H14.2741H14.2741H14.2742H14.2742H14.2743H14.2743H14.2744H14.2744H14.2745H14.2745H14.2746H14.2747H14.2747H14.2748H14.2749H14.275H14.275H14.2751H14.2752H14.2753H14.2755H14.2755H14.2756H14.2757H14.2757H14.2758H14.276H14.276H14.2762H14.2762H14.2764H14.2764H14.2767H14.2767H14.2768H14.2769H14.277H14.2771H14.2773H14.2773H14.2776H14.2776H14.2778H14.2779H14.2779H14.2781H14.2782H14.2783H14.2786H14.2786H14.2789H14.2789H14.2791H14.2792H14.2793H14.2795H14.2797H14.2797H14.28H14.2801H14.2802H14.2803H14.2805H14.2807H14.281H14.281H14.2813H14.2813H14.2814H14.2816H14.2819H14.2819H14.2823H14.2823H14.2824H14.2826H14.2829H14.2829H14.2833H14.2834H14.2834H14.2836H14.2839H14.284H14.2844H14.2844H14.2845H14.2847H14.285H14.2851H14.2854H14.2854H14.2856H14.2858H14.2862H14.2862H14.2864H14.2866H14.2868H14.2869H14.2873H14.2874H14.2875H14.2877H14.2881H14.2881H14.2883H14.2885H14.2888H14.2889H14.2893H14.2893H14.2895H14.2897H14.2901H14.2902H14.2905H14.2909H14.2909H14.2911H14.2913H14.2916H14.2917H14.2919H14.2921H14.2924H14.2925H14.2928H14.2929H14.2932H14.2933H14.2936H14.2937H14.2939H14.2941H14.2944H14.2945H14.2948H14.2949H14.2952H14.2953H14.2956H14.2957H14.296H14.2961H14.2964H14.2965H14.2968H14.2969H14.2973H14.2975H14.2977H14.2981H14.2982H14.2982H14.2985H14.2989H14.2989H14.2991H14.2993H14.2996H14.2997H14.3H14.3001H14.3003H14.3005H14.3009H14.3009H14.301H14.3012H14.3016H14.3016H14.3019H14.302H14.3022H14.3024H14.3027H14.3028H14.3029H14.3031H14.3034H14.3035H14.3038H14.3039H14.304H14.3042H14.3045H14.3046H14.3049H14.305H14.305H14.3053H14.3056H14.3056H14.306H14.306H14.3061H14.3063H14.3066H14.3066H14.3069H14.307H14.3071H14.3073H14.3075H14.3076H14.3079H14.3079H14.3081H14.3082H14.3083H14.3085H14.3088H14.3088H14.3091H14.3091H14.3093H14.3094H14.3095H14.3097H14.3099H14.3099H14.3102H14.3102H14.3104H14.3105H14.3106H14.3107H14.3109H14.311H14.3112H14.3114H14.3115H14.3115H14.3117H14.3118H14.3119H14.312H14.3121H14.3123H14.3123H14.3125H14.3125H14.3127H14.3127H14.3127H14.3129H14.313H14.313H14.3132H14.3132H14.3133H14.3134H14.3135H14.3135H14.3137H14.3137H14.3138H14.3138H14.3139H14.3139H14.3139H14.314H14.3141H14.3141H14.3142H14.3142H14.3143H14.3143H14.3144H14.3144H14.3144H14.3144H14.3145H14.3145H14.3145H14.3145H14.3146H14.3146H14.3146M19.1582 10.1772L14.3146 8.02505M14.3146 8.02505H14.3151H14.3163H14.3176H14.3189H14.3202H14.3215H14.3228H14.3242H14.3256H14.327H14.3284H14.3299H14.3314H14.3329H14.3344H14.3359H14.3375H14.3391H14.3407H14.3424H14.344H14.3457H14.3475H14.3492H14.351H14.3528H14.3546H14.3564H14.3583H14.3602H14.3621H14.364H14.366H14.368H14.37H14.3721H14.3742H14.3763H14.3784H14.3805H14.3827H14.3849H14.3872H14.3894H14.3917H14.394H14.3964H14.3988H14.4012H14.4036H14.4061H14.4085H14.4111H14.4136H14.4162H14.4188H14.4214H14.4241H14.4268H14.4295H14.4323H14.435H14.4379H14.4407H14.4436H14.4465H14.4494H14.4524H14.4554H14.4584H14.4615H14.4646H14.4677H14.4708H14.474H14.4772H14.4805H14.4838H14.4871H14.4904H14.4938H14.4972H14.5007H14.5041H14.5077H14.5112H14.5148H14.5184H14.522H14.5257H14.5294H14.5332H14.537H14.5408H14.5446H14.5485H14.5525H14.5564H14.5604H14.5644H14.5685H14.5726H14.5767H14.5809H14.5851H14.5894H14.5936H14.598H14.6023H14.6067H14.6111H14.6156H14.6201H14.6246H14.6292H14.6338H14.6385H14.6432H14.6479H14.6527H14.6575H14.6623H14.6672H14.6721H14.6771H14.6821H14.6871H14.6922H14.6973H14.7025H14.7076H14.7129H14.7182H14.7235H14.7288H14.7342H14.7397H14.7452H14.7507H14.7562H14.7618H14.7673H14.7728H14.7782H14.7836H14.789H14.7943H14.7996H14.8049H14.8101H14.8153H14.8204H14.8255H14.8306H14.8356H14.8406H14.8455H14.8504H14.8553H14.8601H14.8649H14.8697H14.8744H14.8791H14.8837H14.8884H14.8929H14.8975H14.902H14.9065H14.9109H14.9153H14.9197H14.924H14.9283H14.9325H14.9368H14.941H14.9451H14.9492H14.9533H14.9574H14.9614H14.9654H14.9693H14.9732H14.9771H14.981H14.9848H14.9886H14.9923H14.9961H14.9997H15.0034H15.007H15.0106H15.0142H15.0177H15.0212H15.0246H15.0281H15.0315H15.0348H15.0382H15.0415H15.0448H15.048H15.0512H15.0544H15.0576H15.0607H15.0638H15.0668H15.0699H15.0729H15.0758H15.0788H15.0817H15.0846H15.0874H15.0903H15.0931H15.0958H15.0986H15.1013H15.104H15.1066H15.1093H15.1119H15.1145H15.117H15.1195H15.122H15.1245H15.1269H15.1293H15.1317H15.1341H15.1364H15.1387H15.141H15.1432H15.1455H15.1477H15.1499H15.152H15.1541H15.1562H15.1583H15.1604H15.1624H15.1644H15.1664H15.1683H15.1702H15.1721H15.174H15.1759H15.1777H15.1795H15.1813H15.1831H15.1848H15.1865H15.1882H15.1899H15.1915H15.1932H15.1948H15.1963H15.1979H15.1994H15.201H15.2025H15.2039H15.2054H15.2068H15.2082H15.2096H15.211H15.2123H15.2136H15.2149H15.2162H15.2175H15.2187H15.22H15.2212H15.2223H15.2235H15.2247H15.2258H15.2269H15.228H15.229H15.2301H15.2311H15.2321H15.2331H15.2341H15.2351H15.236H15.2369H15.2378H15.2387H15.2396H15.2404H15.2413H15.2421H15.2429H15.2437H15.2445H15.2452H15.246H15.2467H15.2468H15.2468H15.2468H15.2469H15.2469H15.2469H15.2469H15.2469H15.2469H15.2469H15.247H15.247H15.247H15.2471H15.2471H15.2472H15.2473H15.2473H15.2473H15.2474H15.2474H15.2474H15.2475H15.2475H15.2476H15.2476H15.2477H15.2477H15.2478H15.248H15.248H15.2481H15.2481H15.2481H15.2482H15.2483H15.2483H15.2485H15.2485H15.2486H15.2486H15.2487H15.2488H15.2488H15.2489H15.2491H15.2491H15.2492H15.2493H15.2494H15.2494H15.2495H15.2496H15.2497H15.2498H15.2499H15.25H15.25H15.2501H15.2502H15.2503H15.2505H15.2505H15.2507H15.2507H15.2508H15.2509H15.2511H15.2511H15.2513H15.2513H15.2514H15.2515H15.2517H15.2517H15.2519H15.2519H15.2521H15.2521H15.2524H15.2524H15.2525H15.2526H15.2528H15.2528H15.253H15.2531H15.2533H15.2535H15.2535H15.2536H15.2537H15.2539H15.2541H15.2542H15.2543H15.2544H15.2546H15.2548H15.2549H15.2551H15.2551H15.2552H15.2553H15.2556H15.2556H15.2557H15.2558H15.256H15.2561H15.2563H15.2565H15.2566H15.2566H15.2568H15.257H15.257H15.2571H15.2572H15.2575H15.2575H15.2576H15.2577H15.2579H15.2579H15.2581H15.2582H15.2583H15.2584H15.2586H15.2587H15.2587H15.2588H15.2591H15.2591H15.2592H15.2593H15.2595H15.2595H15.2597H15.2598H15.2598H15.26H15.2602H15.2602H15.2604H15.2604H15.2605H15.2606H15.2608H15.2608H15.2609H15.261H15.2612H15.2612H15.2614H15.2615H15.2616H15.2616H15.2617H15.2618H15.262H15.262H15.2622H15.2622H15.2623H15.2624H15.2625H15.2626H15.2627H15.2628H15.2628H15.2629H15.263H15.2631H15.2632H15.2632H15.2634H15.2634H15.2635H15.2635H15.2636H15.2637H15.2638H15.2638H15.264H15.264H15.2641H15.2641H15.2642H15.2643H15.2644H15.2644H15.2645H15.2646H15.2647H15.2647H15.2648H15.2648H15.2648H15.2649H15.2649H15.265H15.265H15.2651H15.2651H15.2651H15.2652H15.2652H15.2652H15.2653H15.2654H15.2654H15.2654H15.2655H15.2655H15.2655H15.2663H15.267H15.2677H15.2685H15.2693H15.2701H15.2709H15.2717H15.2726H15.2735H15.2744H15.2753H15.2762H15.2771H15.2781H15.279H15.28H15.2811H15.2821H15.2831H15.2842H15.2853H15.2864H15.2875H15.2887H15.2898H15.291H15.2922H15.2934H15.2947H15.2959H15.2972H15.2985H15.2998H15.3012H15.3025H15.3039H15.3053H15.3068H15.3082H15.3097H15.3112H15.3127H15.3142H15.3158H15.3173H15.3189H15.3206H15.3222H15.3239H15.3256H15.3273H15.329H15.3308H15.3326H15.3344H15.3362H15.338H15.3399H15.3418H15.3438H15.3457H15.3477H15.3497H15.3517H15.3537H15.3558H15.3579H15.36H15.3622H15.3644H15.3666H15.3688H15.371H15.3733H15.3756H15.3779H15.3803H15.3827H15.3851H15.3875H15.39H15.3925H15.395H15.3975H15.4001H15.4027H15.4053H15.408H15.4107H15.4134H15.4161H15.4189H15.4217H15.4245H15.4274H15.4302H15.4332H15.4361H15.4391H14.3146Z" fill="white" stroke="white" stroke-width="0.3"/>
<path d="M7 9V4.29412C7 3.19608 7.8 1 11 1C14.2 1 15 3.19608 15 4.29412V9" stroke="white" stroke-width="2" stroke-linecap="round"/>
</g>
<defs>
<clipPath id="clip0_79_12">
<rect width="21" height="21" fill="white"/>
</clipPath>
</defs>
</svg>
