<svg width="23" height="18" viewBox="0 0 23 18" fill="none" xmlns="http://www.w3.org/2000/svg">
<path d="M22.4842 1.74205C22.378 1.68318 22.2579 1.65384 22.1364 1.65707C22.015 1.6603 21.8966 1.69598 21.7937 1.76042L17.3917 4.51455V3.71307C17.3906 2.80721 17.0303 1.93876 16.3897 1.29822C15.7492 0.657676 14.8807 0.297345 13.9749 0.296265H4.34357C3.4377 0.297345 2.56925 0.657676 1.92871 1.29822C1.28817 1.93876 0.927838 2.80721 0.926758 3.71307V13.6335C0.927838 14.5394 1.28817 15.4078 1.92871 16.0484C2.56925 16.6889 3.4377 17.0493 4.34357 17.0503L13.9749 17.4756C14.8807 17.4745 15.7492 17.1142 16.3897 16.4736C17.0303 15.8331 17.3906 14.9646 17.3917 14.0588C17.3928 13.1529 17.3917 13.2573 17.3917 13.2573L21.7937 16.0087C21.8964 16.0729 22.0145 16.1086 22.1357 16.1119C22.2569 16.1152 22.3767 16.086 22.4829 16.0275C22.589 15.9689 22.6776 15.8831 22.7394 15.7788C22.8013 15.6746 22.8341 15.5557 22.8346 15.4345V2.33737C22.8347 2.2159 22.8022 2.09662 22.7406 1.99193C22.679 1.88724 22.5905 1.80096 22.4842 1.74205ZM15.6057 13.6335C15.605 14.1786 15.3881 14.7012 15.0027 15.0866C14.6173 15.472 14.0947 15.6889 13.5496 15.6896H4.7688C4.22371 15.6889 3.70116 15.472 3.31573 15.0866C2.9303 14.7012 2.71344 14.1786 2.71272 13.6335V4.1383C2.71344 3.59322 2.9303 3.07067 3.31573 2.68524C3.70116 2.2998 4.22371 2.08295 4.7688 2.08223H13.5496C14.0947 2.08295 14.6173 2.2998 15.0027 2.68524C15.3881 3.07067 15.605 3.59322 15.6057 4.1383V13.6335ZM21.0487 13.7818L17.3917 11.2305V6.54137L21.0487 3.98726V13.7818Z" fill="white"/>
<path d="M11.2967 7.97874H10.3896V7.07159C10.3896 6.83099 10.294 6.60025 10.1239 6.43013C9.95373 6.26 9.72299 6.16443 9.4824 6.16443C9.24181 6.16443 9.01107 6.26 8.84094 6.43013C8.67082 6.60025 8.57524 6.83099 8.57524 7.07159V7.97874H7.66808C7.42749 7.97874 7.19675 8.07432 7.02663 8.24444C6.8565 8.41457 6.76093 8.64531 6.76093 8.8859C6.76093 9.1265 6.8565 9.35723 7.02663 9.52736C7.19675 9.69748 7.42749 9.79306 7.66808 9.79306H8.57524V10.7002C8.57524 10.9408 8.67082 11.1715 8.84094 11.3417C9.01107 11.5118 9.24181 11.6074 9.4824 11.6074C9.72299 11.6074 9.95373 11.5118 10.1239 11.3417C10.294 11.1715 10.3896 10.9408 10.3896 10.7002V9.79306H11.2967C11.5373 9.79306 11.768 9.69748 11.9382 9.52736C12.1083 9.35723 12.2039 9.1265 12.2039 8.8859C12.2039 8.64531 12.1083 8.41457 11.9382 8.24444C11.768 8.07432 11.5373 7.97874 11.2967 7.97874Z" fill="#DDA34E"/>
</svg>
