<svg width="49" height="16" viewBox="0 0 49 16" fill="none" xmlns="http://www.w3.org/2000/svg">
<path fill-rule="evenodd" clip-rule="evenodd" d="M12.2505 15.5165H8.00987L4.82991 3.38475C4.67897 2.82669 4.3585 2.33333 3.88708 2.1008C2.71062 1.51646 1.41424 1.05141 0 0.81686V0.349787H6.83134C7.77417 0.349787 8.48129 1.05141 8.59914 1.86626L10.2491 10.6173L14.4877 0.349787H18.6104L12.2505 15.5165ZM20.9678 15.5165H16.9629L20.2607 0.349792H24.2656L20.9678 15.5165ZM29.4471 4.55143C29.565 3.73456 30.2721 3.26748 31.0971 3.26748C32.3934 3.15021 33.8056 3.38476 34.9841 3.96708L35.6913 0.701619C34.5127 0.234547 33.2163 0 32.0399 0C28.1528 0 25.3243 2.10081 25.3243 5.01648C25.3243 7.23457 27.3278 8.39921 28.7421 9.10083C30.2721 9.80043 30.8613 10.2675 30.7435 10.9671C30.7435 12.0165 29.565 12.4836 28.3885 12.4836C26.9743 12.4836 25.56 12.1338 24.2657 11.5494L23.5586 14.8169C24.9728 15.3992 26.5029 15.6338 27.9171 15.6338C32.2756 15.749 34.9841 13.6502 34.9841 10.5C34.9841 6.53295 29.4471 6.30042 29.4471 4.55143ZM49.0003 15.5165L45.8203 0.349792H42.4047C41.6976 0.349792 40.9904 0.816865 40.7547 1.51646L34.8662 15.5165H38.989L39.8119 13.3004H44.8775L45.3489 15.5165H49.0003ZM42.9936 4.43416L44.1701 10.1502H40.8723L42.9936 4.43416Z" fill="#172B85"/>
</svg>
